<svg xmlns="http://www.w3.org/2000/svg" width="40" height="40" fill="none"><path fill="#F0B90B" d="M0 12C0 5.373 5.373 0 12 0h16c6.627 0 12 5.373 12 12v16c0 6.627-5.373 12-12 12H12C5.373 40 0 34.627 0 28z"/><path stroke="#131316" stroke-opacity=".02" d="M12 .5h16C34.351.5 39.5 5.649 39.5 12v16c0 6.351-5.149 11.5-11.5 11.5H12C5.649 39.5.5 34.351.5 28V12C.5 5.649 5.649.5 12 .5Z"/><path fill="#fff" d="m10.701 20 .015 5.459 4.639 2.729v3.196L8.002 27.07v-8.668zm0-5.46v3.182L8 16.124v-3.181l2.701-1.598 2.715 1.598zm6.59-1.597 2.702-1.598 2.715 1.598-2.715 1.598z"/><path fill="#fff" d="M12.654 24.327v-3.196l2.702 1.598v3.181zm4.639 5.006 2.701 1.598 2.715-1.598v3.18l-2.715 1.599-2.701-1.598zm9.29-16.39 2.701-1.598L32 12.943v3.18l-2.715 1.599V14.54zm2.701 12.516.015-5.46L32 18.403v8.668l-7.353 4.312v-3.196z"/><path fill="#fff" d="m27.347 24.328-2.702 1.583V22.73l2.702-1.598z"/><path fill="#fff" d="m27.347 15.673.015 3.196-4.652 2.73v5.472l-2.701 1.583-2.701-1.583v-5.472l-4.652-2.73v-3.196l2.713-1.598 4.623 2.743 4.652-2.743 2.715 1.598zm-14.693-5.457 7.34-4.327 7.353 4.327-2.701 1.598-4.652-2.743-4.638 2.743z"/></svg>