<svg xmlns="http://www.w3.org/2000/svg" width="40" height="40" fill="none"><path fill="#F7931A" d="M0 12C0 5.373 5.373 0 12 0h16c6.627 0 12 5.373 12 12v16c0 6.627-5.373 12-12 12H12C5.373 40 0 34.627 0 28z"/><path fill="#F7931A" d="M0 12C0 5.373 5.373 0 12 0h16c6.627 0 12 5.373 12 12v16c0 6.627-5.373 12-12 12H12C5.373 40 0 34.627 0 28z"/><path fill="#F7931A" d="M0 12C0 5.373 5.373 0 12 0h16c6.627 0 12 5.373 12 12v16c0 6.627-5.373 12-12 12H12C5.373 40 0 34.627 0 28z"/><path stroke="#131316" stroke-opacity=".02" d="M12 .5h16C34.351.5 39.5 5.649 39.5 12v16c0 6.351-5.149 11.5-11.5 11.5H12C5.649 39.5.5 34.351.5 28V12C.5 5.649 5.649.5 12 .5Z"/><g clip-path="url(#a)"><path fill="#FCFCFD" d="m18.27 9.005-.009 3.264c.524-.01 1.053-.018 1.568-.017l.008-3.243 1.965.004-.008 3.331c2.535.236 4.541 1.047 4.76 3.449.162 1.757-.552 2.81-1.692 3.406 1.873.47 3.045 1.623 2.807 4.2-.294 3.198-2.608 4.051-5.912 4.238L21.748 31l-1.964-.005.009-3.318q-.763 0-1.57-.019l-.008 3.333-1.962-.006.007-3.368c-.46-.004-.927-.014-1.403-.016l-2.557-.006.396-2.422s1.453.028 1.428.005c.555 0 .704-.411.74-.67l.013-5.314h.208a2 2 0 0 0-.208-.016l.01-3.793c-.074-.412-.333-.89-1.129-.892.022-.027-1.427-.002-1.427-.002l.005-2.166 2.71.008v.01c.408.002.825-.005 1.25-.013L16.306 9zm.004 16.2c1.29.003 5.25.282 5.501-1.99l.013-.228c.005-2.624-4.17-2.24-5.502-2.244zm.016-6.505c1.11.003 4.593.278 4.599-2.012.006-2.388-3.48-2.033-4.59-2.036z"/></g><defs><clipPath id="a"><path fill="#fff" d="M8 8h24v24H8z"/></clipPath></defs></svg>