<svg xmlns="http://www.w3.org/2000/svg" width="40" height="40" fill="none"><path fill="#627EEA" d="M0 12C0 5.373 5.373 0 12 0h16c6.627 0 12 5.373 12 12v16c0 6.627-5.373 12-12 12H12C5.373 40 0 34.627 0 28z"/><path stroke="#131316" stroke-opacity=".02" d="M12 .5h16C34.351.5 39.5 5.649 39.5 12v16c0 6.351-5.149 11.5-11.5 11.5H12C5.649 39.5.5 34.351.5 28V12C.5 5.649 5.649.5 12 .5Z"/><g fill="#FCFCFD" clip-path="url(#a)"><path d="m19.998 9-.153.481v13.964l.153.142 6.998-3.832z"/><path d="M19.998 9 13 19.755l6.998 3.832V9M19.998 25.695l-.086.098v4.974l.086.233L27 21.866z"/><path d="M19.998 31v-5.305L13 21.865zM19.998 23.587l6.998-3.832-6.998-2.946zM13 19.755l6.998 3.832v-6.778z"/></g><defs><clipPath id="a"><path fill="#fff" d="M8 8h24v24H8z"/></clipPath></defs></svg>