<svg xmlns="http://www.w3.org/2000/svg" width="40" height="40" fill="none"><path fill="#DFEAF4" d="M0 12C0 5.373 5.373 0 12 0h16c6.627 0 12 5.373 12 12v16c0 6.627-5.373 12-12 12H12C5.373 40 0 34.627 0 28z"/><path stroke="#131316" stroke-opacity=".02" d="M12 .5h16C34.351.5 39.5 5.649 39.5 12v16c0 6.351-5.149 11.5-11.5 11.5H12C5.649 39.5.5 34.351.5 28V12C.5 5.649 5.649.5 12 .5Z"/><g clip-path="url(#a)"><path fill="#1968AE" d="M25.73 27.043a.535.535 0 0 0-.645-.418 9.4 9.4 0 0 1-2.028.241c-2.534 0-4.55-1.553-5.422-3.814h5.075a.535.535 0 0 0 .523-.418l.284-1.267a.536.536 0 0 0-.522-.653h-5.993a9.6 9.6 0 0 1 .006-1.886h6.545a.535.535 0 0 0 .523-.42l.29-1.33a.536.536 0 0 0-.523-.65H17.67c.921-2.008 2.799-3.349 5.251-3.349.647 0 1.275.1 1.69.185a.536.536 0 0 0 .625-.385l.535-1.98a.535.535 0 0 0-.416-.666A13 13 0 0 0 23.003 10c-4.339 0-7.84 2.69-9.132 6.429h-1.477a.536.536 0 0 0-.536.535v1.329c0 .296.24.535.536.535h.963a13 13 0 0 0-.008 1.886h-.955a.536.536 0 0 0-.536.536v1.266c0 .296.24.536.536.536h1.345C14.856 27.084 18.343 30 23.002 30c1.174 0 2.168-.203 2.727-.348a.536.536 0 0 0 .393-.623z"/></g><defs><clipPath id="a"><path fill="#fff" d="M8 8h24v24H8z"/></clipPath></defs></svg>