<svg xmlns="http://www.w3.org/2000/svg" width="40" height="40" fill="none"><path fill="#6C00F6" d="M0 12C0 5.373 5.373 0 12 0h16c6.627 0 12 5.373 12 12v16c0 6.627-5.373 12-12 12H12C5.373 40 0 34.627 0 28z"/><path stroke="#131316" stroke-opacity=".02" d="M12 .5h16C34.351.5 39.5 5.649 39.5 12v16c0 6.351-5.149 11.5-11.5 11.5H12C5.649 39.5.5 34.351.5 28V12C.5 5.649 5.649.5 12 .5Z"/><g clip-path="url(#a)"><path fill="#fff" d="m17.506 17.455-1.877-1.144L10 19.745v6.844l5.63 3.423 5.628-3.423V15.945l3.124-1.9 3.124 1.9v3.8l-3.124 1.9-1.876-1.145v3.045l1.876 1.144 5.63-3.422v-6.845L24.381 11l-5.63 3.422v10.645l-3.123 1.9-3.123-1.9v-3.812l3.123-1.9 1.877 1.145z"/></g><defs><clipPath id="a"><path fill="#fff" d="M8 8h24v24H8z"/></clipPath></defs></svg>