<svg xmlns="http://www.w3.org/2000/svg" width="40" height="40" fill="none"><path fill="#000" d="M0 12C0 5.373 5.373 0 12 0h16c6.627 0 12 5.373 12 12v16c0 6.627-5.373 12-12 12H12C5.373 40 0 34.627 0 28z"/><path stroke="#131316" stroke-opacity=".02" d="M12 .5h16C34.351.5 39.5 5.649 39.5 12v16c0 6.351-5.149 11.5-11.5 11.5H12C5.649 39.5.5 34.351.5 28V12C.5 5.649 5.649.5 12 .5Z"/><path fill="url(#a)" d="M11.9 24.951a.79.79 0 0 1 .554-.23h19.153c.35 0 .525.423.277.67l-3.783 3.784a.79.79 0 0 1-.555.23H8.393a.392.392 0 0 1-.277-.67z"/><path fill="url(#b)" d="M11.9 10.825c.15-.145.35-.23.554-.23h19.153c.35 0 .525.423.277.67l-3.783 3.784a.79.79 0 0 1-.555.23H8.393a.392.392 0 0 1-.277-.67z"/><path fill="url(#c)" d="M28.1 17.843a.79.79 0 0 0-.554-.23H8.393a.392.392 0 0 0-.277.67l3.783 3.783c.145.145.344.23.555.23h19.153c.35 0 .525-.423.277-.67z"/><defs><linearGradient id="a" x1="29.777" x2="16.522" y1="8.336" y2="33.724" gradientUnits="userSpaceOnUse"><stop stop-color="#00FFA3"/><stop offset="1" stop-color="#DC1FFF"/></linearGradient><linearGradient id="b" x1="23.981" x2="10.726" y1="5.31" y2="30.698" gradientUnits="userSpaceOnUse"><stop stop-color="#00FFA3"/><stop offset="1" stop-color="#DC1FFF"/></linearGradient><linearGradient id="c" x1="26.861" x2="13.606" y1="6.813" y2="32.201" gradientUnits="userSpaceOnUse"><stop stop-color="#00FFA3"/><stop offset="1" stop-color="#DC1FFF"/></linearGradient></defs></svg>