<svg xmlns="http://www.w3.org/2000/svg" width="40" height="40" fill="none"><path fill="#EF0027" d="M0 12C0 5.373 5.373 0 12 0h16c6.627 0 12 5.373 12 12v16c0 6.627-5.373 12-12 12H12C5.373 40 0 34.627 0 28z"/><path stroke="#131316" stroke-opacity=".02" d="M12 .5h16C34.351.5 39.5 5.649 39.5 12v16c0 6.351-5.149 11.5-11.5 11.5H12C5.649 39.5.5 34.351.5 28V12C.5 5.649 5.649.5 12 .5Z"/><g clip-path="url(#a)"><path fill="#fff" d="M26.673 13.057 10 10l8.774 22L31 17.158zm-.269 1.347 2.551 2.416-6.975 1.258zm-5.94 3.422-7.352-6.075 12.017 2.203zm-.523 1.075-1.2 9.877-6.463-16.211zm1.109.524 7.725-1.393-8.86 10.755z"/></g><defs><clipPath id="a"><path fill="#fff" d="M8 8h24v24H8z"/></clipPath></defs></svg>