<svg xmlns="http://www.w3.org/2000/svg" width="40" height="40" fill="none"><path fill="#E2F1E8" d="M0 12C0 5.373 5.373 0 12 0h16c6.627 0 12 5.373 12 12v16c0 6.627-5.373 12-12 12H12C5.373 40 0 34.627 0 28z"/><path stroke="#131316" stroke-opacity=".02" d="M12 .5h16C34.351.5 39.5 5.649 39.5 12v16c0 6.351-5.149 11.5-11.5 11.5H12C5.649 39.5.5 34.351.5 28V12C.5 5.649 5.649.5 12 .5Z"/><g clip-path="url(#a)"><path fill="#009835" d="m22.302 19.029-4.64-1.358a1.267 1.267 0 0 1 .357-2.484h2.848c.524 0 1.04.16 1.47.452a.67.67 0 0 0 .837-.086l1.495-1.461a.696.696 0 0 0-.077-1.053 6.08 6.08 0 0 0-3.717-1.289V9.688A.69.69 0 0 0 20.188 9h-1.375a.69.69 0 0 0-.688.688v2.062h-.107a4.71 4.71 0 0 0-4.684 5.14c.18 1.98 1.693 3.591 3.601 4.15l4.405 1.289a1.267 1.267 0 0 1-.357 2.484h-2.849c-.524 0-1.04-.16-1.47-.452a.67.67 0 0 0-.837.086l-1.496 1.461a.697.697 0 0 0 .078 1.053 6.08 6.08 0 0 0 3.716 1.289v2.063c0 .378.31.687.688.687h1.375a.69.69 0 0 0 .687-.687V28.24c2.003-.038 3.88-1.229 4.542-3.123.924-2.647-.627-5.363-3.115-6.09"/></g><defs><clipPath id="a"><path fill="#fff" d="M8 8h24v24H8z"/></clipPath></defs></svg>