<svg xmlns="http://www.w3.org/2000/svg" width="40" height="40" fill="none"><path fill="#3E73C4" d="M0 12C0 5.373 5.373 0 12 0h16c6.627 0 12 5.373 12 12v16c0 6.627-5.373 12-12 12H12C5.373 40 0 34.627 0 28z"/><path stroke="#131316" stroke-opacity=".02" d="M12 .5h16C34.351.5 39.5 5.649 39.5 12v16c0 6.351-5.149 11.5-11.5 11.5H12C5.649 39.5.5 34.351.5 28V12C.5 5.649 5.649.5 12 .5Z"/><g clip-path="url(#a)"><path fill="#FCFCFD" fill-rule="evenodd" d="M20 30c5.544 0 10-4.456 10-10s-4.456-10-10-10-10 4.456-10 10 4.456 10 10 10m2.75-8.42c0-1.456-.874-1.956-2.624-2.162-1.25-.17-1.5-.5-1.5-1.087 0-.581.418-.955 1.25-.955.75 0 1.168.248 1.374.874a.32.32 0 0 0 .294.206h.663a.284.284 0 0 0 .293-.288v-.044c-.169-.918-.919-1.793-1.874-1.874v-.919c0-.169-.126-.294-.332-.331h-.55c-.168 0-.325.124-.368.331v.919c-1.25.168-2.082 1.124-2.082 2.168 0 1.375.832 1.913 2.582 2.125 1.168.206 1.544.456 1.544 1.125 0 .663-.589 1.125-1.376 1.125-1.088 0-1.462-.462-1.587-1.087-.038-.163-.163-.25-.288-.25h-.712a.285.285 0 0 0-.288.293v.044c.162 1.038.831 1.75 2.207 1.956v.925c0 .17.124.282.33.326h.6c.163 0 .276-.113.32-.326v-.925c1.25-.206 2.124-1.043 2.124-2.169m-6.958 3.114a6.2 6.2 0 0 0 2.084 1.262c.124.087.25.25.25.375v.587c0 .08 0 .125-.045.162-.037.169-.205.25-.374.169a7.5 7.5 0 0 1 0-14.293c.044-.038.124-.038.169-.038.168.038.25.163.25.33v.583c0 .211-.082.337-.25.418a6.17 6.17 0 0 0-3.707 3.707 6.21 6.21 0 0 0 1.622 6.738m6.127-11.57c.038-.168.206-.25.375-.168a7.56 7.56 0 0 1 4.875 4.918c1.25 3.956-.92 8.17-4.875 9.42-.044.036-.125.036-.169.036-.168-.037-.25-.162-.25-.331v-.581c0-.212.082-.337.25-.42a6.17 6.17 0 0 0 3.706-3.705 6.205 6.205 0 0 0-3.706-8c-.125-.087-.25-.25-.25-.419v-.58c0-.088 0-.126.045-.17" clip-rule="evenodd"/></g><path fill="#000" d="M26 33a7 7 0 1 1 14 0 7 7 0 0 1-14 0"/><path stroke="#131316" stroke-opacity=".02" d="M33 26.5a6.5 6.5 0 1 1 0 13 6.5 6.5 0 0 1 0-13Z"/><path fill="url(#b)" d="M30.3 34.785a.26.26 0 0 1 .185-.076h6.384a.13.13 0 0 1 .092.223l-1.26 1.261a.26.26 0 0 1-.186.077h-6.384a.13.13 0 0 1-.092-.224z"/><path fill="url(#c)" d="M30.3 30.076a.27.27 0 0 1 .185-.076h6.384a.13.13 0 0 1 .092.223l-1.26 1.261a.26.26 0 0 1-.186.077h-6.384a.13.13 0 0 1-.092-.223z"/><path fill="url(#d)" d="M35.7 32.416a.26.26 0 0 0-.185-.076h-6.384a.13.13 0 0 0-.092.223l1.26 1.261a.26.26 0 0 0 .186.077h6.384a.13.13 0 0 0 .092-.224z"/><defs><linearGradient id="b" x1="36.259" x2="31.841" y1="29.247" y2="37.71" gradientUnits="userSpaceOnUse"><stop stop-color="#00FFA3"/><stop offset="1" stop-color="#DC1FFF"/></linearGradient><linearGradient id="c" x1="34.327" x2="29.909" y1="28.238" y2="36.701" gradientUnits="userSpaceOnUse"><stop stop-color="#00FFA3"/><stop offset="1" stop-color="#DC1FFF"/></linearGradient><linearGradient id="d" x1="35.287" x2="30.869" y1="28.74" y2="37.203" gradientUnits="userSpaceOnUse"><stop stop-color="#00FFA3"/><stop offset="1" stop-color="#DC1FFF"/></linearGradient><clipPath id="a"><path fill="#fff" d="M8 8h24v24H8z"/></clipPath></defs></svg>