<svg xmlns="http://www.w3.org/2000/svg" width="40" height="40" fill="none"><path fill="#26A17B" d="M0 12C0 5.373 5.373 0 12 0h16c6.627 0 12 5.373 12 12v16c0 6.627-5.373 12-12 12H12C5.373 40 0 34.627 0 28z"/><path stroke="#131316" stroke-opacity=".02" d="M12 .5h16C34.351.5 39.5 5.649 39.5 12v16c0 6.351-5.149 11.5-11.5 11.5H12C5.649 39.5.5 34.351.5 28V12C.5 5.649 5.649.5 12 .5Z"/><g fill="#fff" clip-path="url(#a)"><path d="M18.135 19.218V15.37h-4.99V12h13.943v3.419h-4.99v3.799z"/><path d="M20 17.319c4.99 0 9 1.044 9 2.326s-4.01 2.328-9 2.328-9-1.045-9-2.328 4.01-2.326 9-2.326m0 .38c-5.223 0-7.927 1.424-8.254 1.946.327.475 3.032 1.187 8.254 1.187 5.27 0 7.927-.712 8.254-1.187-.327-.474-3.031-1.947-8.254-1.947"/><path d="M22.098 20.405v-2.66a28 28 0 0 0-2.051-.094c-.653 0-1.26 0-1.866.047v2.66c.56 0 1.213.047 1.866.047.699.047 1.398.047 2.051 0M20 21.973c-.653 0-1.26 0-1.865-.048V29h3.917v-7.123a28 28 0 0 1-2.052.096"/></g><path fill="#000" d="M26 33a7 7 0 1 1 14 0 7 7 0 0 1-14 0"/><path stroke="#131316" stroke-opacity=".02" d="M33 26.5a6.5 6.5 0 1 1 0 13 6.5 6.5 0 0 1 0-13Z"/><path fill="url(#b)" d="M30.3 34.785a.26.26 0 0 1 .185-.076h6.384a.13.13 0 0 1 .092.223l-1.26 1.261a.26.26 0 0 1-.186.077h-6.384a.13.13 0 0 1-.092-.224z"/><path fill="url(#c)" d="M30.3 30.076a.27.27 0 0 1 .185-.076h6.384a.13.13 0 0 1 .092.223l-1.26 1.261a.26.26 0 0 1-.186.077h-6.384a.13.13 0 0 1-.092-.223z"/><path fill="url(#d)" d="M35.7 32.416a.26.26 0 0 0-.185-.076h-6.384a.13.13 0 0 0-.092.223l1.26 1.261a.26.26 0 0 0 .186.077h6.384a.13.13 0 0 0 .092-.224z"/><defs><linearGradient id="b" x1="36.259" x2="31.841" y1="29.247" y2="37.71" gradientUnits="userSpaceOnUse"><stop stop-color="#00FFA3"/><stop offset="1" stop-color="#DC1FFF"/></linearGradient><linearGradient id="c" x1="34.327" x2="29.909" y1="28.238" y2="36.701" gradientUnits="userSpaceOnUse"><stop stop-color="#00FFA3"/><stop offset="1" stop-color="#DC1FFF"/></linearGradient><linearGradient id="d" x1="35.287" x2="30.869" y1="28.74" y2="37.203" gradientUnits="userSpaceOnUse"><stop stop-color="#00FFA3"/><stop offset="1" stop-color="#DC1FFF"/></linearGradient><clipPath id="a"><path fill="#fff" d="M8 8h24v24H8z"/></clipPath></defs></svg>