<svg width="24" height="24" viewBox="0 0 24 24" fill="none" xmlns="http://www.w3.org/2000/svg">
<g clip-path="url(#clip0_2402_31750)">
<path fill-rule="evenodd" clip-rule="evenodd" d="M10.388 3.25H13.612C14.697 3.25 15.578 3.25 16.287 3.335C17.027 3.423 17.661 3.611 18.215 4.045C18.77 4.477 19.107 5.047 19.372 5.743C19.626 6.41 19.839 7.265 20.102 8.317L20.586 10.25H22C22.1989 10.25 22.3897 10.329 22.5303 10.4697C22.671 10.6103 22.75 10.8011 22.75 11C22.75 11.1989 22.671 11.3897 22.5303 11.5303C22.3897 11.671 22.1989 11.75 22 11.75H2C1.80109 11.75 1.61032 11.671 1.46967 11.5303C1.32902 11.3897 1.25 11.1989 1.25 11C1.25 10.8011 1.32902 10.6103 1.46967 10.4697C1.61032 10.329 1.80109 10.25 2 10.25H3.414L3.898 8.317C4.161 7.265 4.374 6.41 4.628 5.743C4.894 5.047 5.23 4.477 5.785 4.044C6.339 3.611 6.974 3.424 7.713 3.334C8.422 3.25 9.303 3.25 10.388 3.25ZM4.961 10.25H19.039L18.659 8.727C18.381 7.617 18.189 6.85 17.969 6.277C17.759 5.722 17.551 5.429 17.292 5.227C17.033 5.025 16.698 4.895 16.109 4.824C15.499 4.751 14.709 4.75 13.565 4.75H10.435C9.291 4.75 8.5 4.751 7.891 4.824C7.301 4.894 6.967 5.024 6.708 5.227C6.448 5.429 6.242 5.722 6.03 6.277C5.812 6.85 5.619 7.617 5.341 8.727L4.961 10.25ZM6.5 14.75C5.77065 14.75 5.07118 15.0397 4.55546 15.5555C4.03973 16.0712 3.75 16.7707 3.75 17.5C3.75 18.2293 4.03973 18.9288 4.55546 19.4445C5.07118 19.9603 5.77065 20.25 6.5 20.25C7.22935 20.25 7.92882 19.9603 8.44454 19.4445C8.96027 18.9288 9.25 18.2293 9.25 17.5C9.25 16.7707 8.96027 16.0712 8.44454 15.5555C7.92882 15.0397 7.22935 14.75 6.5 14.75ZM2.25 17.5C2.24858 16.4701 2.62117 15.4748 3.29851 14.699C3.97586 13.9232 4.91186 13.4197 5.93252 13.2822C6.95318 13.1447 7.98905 13.3825 8.84756 13.9513C9.70607 14.5202 10.3288 15.3815 10.6 16.375C11.4983 16.0135 12.5017 16.0135 13.4 16.375C13.6741 15.3844 14.2977 14.5266 15.1555 13.9604C16.0133 13.3941 17.0471 13.1578 18.0658 13.295C19.0844 13.4323 20.0188 13.9338 20.6961 14.7069C21.3735 15.4799 21.7478 16.4722 21.75 17.5C21.752 18.5871 21.3372 19.6337 20.5911 20.4244C19.845 21.2151 18.8243 21.6899 17.7389 21.751C16.6534 21.8121 15.5859 21.4549 14.7557 20.7529C13.9256 20.0509 13.3961 19.0575 13.276 17.977L13.006 17.842C12.6936 17.6859 12.3492 17.6046 12 17.6046C11.6508 17.6046 11.3064 17.6859 10.994 17.842L10.724 17.977C10.6039 19.0575 10.0744 20.0509 9.24427 20.7529C8.41414 21.4549 7.34657 21.8121 6.26114 21.751C5.17571 21.6899 4.15496 21.2151 3.40886 20.4244C2.66276 19.6337 2.24804 18.5871 2.25 17.5ZM17.5 14.75C16.7707 14.75 16.0712 15.0397 15.5555 15.5555C15.0397 16.0712 14.75 16.7707 14.75 17.5C14.75 18.2293 15.0397 18.9288 15.5555 19.4445C16.0712 19.9603 16.7707 20.25 17.5 20.25C18.2293 20.25 18.9288 19.9603 19.4445 19.4445C19.9603 18.9288 20.25 18.2293 20.25 17.5C20.25 16.7707 19.9603 16.0712 19.4445 15.5555C18.9288 15.0397 18.2293 14.75 17.5 14.75Z" fill="#6C737F"/>
</g>
<defs>
<clipPath id="clip0_2402_31750">
<rect width="24" height="24" fill="white"/>
</clipPath>
</defs>
</svg>
