<svg width="24" height="24" viewBox="0 0 24 24" fill="none" xmlns="http://www.w3.org/2000/svg">
<path d="M21 17.5C21 18.4283 20.6313 19.3185 19.9749 19.9749C19.3185 20.6313 18.4283 21 17.5 21C16.5717 21 15.6815 20.6313 15.0251 19.9749C14.3687 19.3185 14 18.4283 14 17.5C14 16.5717 14.3687 15.6815 15.0251 15.0251C15.6815 14.3687 16.5717 14 17.5 14C18.4283 14 19.3185 14.3687 19.9749 15.0251C20.6313 15.6815 21 16.5717 21 17.5Z" stroke="#6C737F"/>
<path d="M2 11H22M4 11L4.614 8.545C5.159 6.362 5.432 5.271 6.246 4.635C7.06 4 8.185 4 10.435 4H13.565C15.815 4 16.94 4 17.754 4.635C18.568 5.271 18.84 6.362 19.386 8.545L20 11" stroke="#6C737F" stroke-linecap="round"/>
<path d="M10 17.5C10 17.9596 9.90947 18.4148 9.73358 18.8394C9.55769 19.264 9.29988 19.6499 8.97487 19.9749C8.64987 20.2999 8.26403 20.5577 7.83939 20.7336C7.41475 20.9095 6.95963 21 6.5 21C6.04037 21 5.58525 20.9095 5.16061 20.7336C4.73597 20.5577 4.35013 20.2999 4.02513 19.9749C3.70012 19.6499 3.44231 19.264 3.26642 18.8394C3.09053 18.4148 3 17.9596 3 17.5C3 16.5717 3.36875 15.6815 4.02513 15.0251C4.6815 14.3687 5.57174 14 6.5 14C7.42826 14 8.3185 14.3687 8.97487 15.0251C9.63125 15.6815 10 16.5717 10 17.5Z" stroke="#6C737F"/>
<path d="M10 17.5L10.658 17.17C11.0747 16.9616 11.5341 16.8531 12 16.8531C12.4659 16.8531 12.9253 16.9616 13.342 17.17L14 17.5" stroke="#6C737F" stroke-linecap="round"/>
</svg>
