<svg width="24" height="24" viewBox="0 0 24 24" fill="none" xmlns="http://www.w3.org/2000/svg">
<path fill-rule="evenodd" clip-rule="evenodd" d="M4.614 8.545L4.188 10.25H2C1.80109 10.25 1.61032 10.329 1.46967 10.4697C1.32902 10.6103 1.25 10.8011 1.25 11C1.25 11.1989 1.32902 11.3897 1.46967 11.5303C1.61032 11.671 1.80109 11.75 2 11.75H22C22.1989 11.75 22.3897 11.671 22.5303 11.5303C22.671 11.3897 22.75 11.1989 22.75 11C22.75 10.8011 22.671 10.6103 22.5303 10.4697C22.3897 10.329 22.1989 10.25 22 10.25H19.813L19.386 8.545C18.84 6.362 18.568 5.271 17.754 4.635C16.94 4 15.815 4 13.565 4H10.435C8.185 4 7.06 4 6.246 4.635C5.432 5.271 5.159 6.362 4.614 8.545ZM6.5 21C7.27233 21.0001 8.02301 20.7448 8.63509 20.2738C9.24718 19.8028 9.68628 19.1426 9.884 18.396L10.994 17.841C11.3064 17.6849 11.6508 17.6036 12 17.6036C12.3492 17.6036 12.6936 17.6849 13.006 17.841L14.116 18.396C14.3347 19.2167 14.8442 19.93 15.5497 20.4029C16.2552 20.8758 17.1086 21.0761 17.9509 20.9664C18.7931 20.8568 19.5668 20.4448 20.1278 19.807C20.6887 19.1693 20.9987 18.3493 21 17.5C21.0013 16.64 20.686 15.8096 20.1141 15.1673C19.5423 14.5249 18.7539 14.1156 17.8995 14.0175C17.0452 13.9193 16.1845 14.1391 15.4819 14.635C14.7792 15.1309 14.2838 15.8681 14.09 16.706L13.677 16.5C13.1563 16.2397 12.5821 16.1041 12 16.1041C11.4179 16.1041 10.8437 16.2397 10.323 16.5L9.91 16.706C9.71443 15.8698 9.21835 15.1347 8.51612 14.6404C7.81388 14.1461 6.95448 13.9272 6.10134 14.0252C5.24821 14.1232 4.46086 14.5314 3.88904 15.1721C3.31722 15.8128 3.00081 16.6413 3 17.5C3 18.4283 3.36875 19.3185 4.02513 19.9749C4.6815 20.6313 5.57174 21 6.5 21Z" fill="#131316"/>
</svg>
