<svg width="24" height="24" viewBox="0 0 24 24" fill="none" xmlns="http://www.w3.org/2000/svg">
<g clip-path="url(#clip0_2059_19257)">
<path d="M14.018 7.36399C14.0694 7.17184 14.0425 6.96713 13.943 6.79487C13.8435 6.62262 13.6796 6.49695 13.4875 6.44549C13.2953 6.39404 13.0906 6.42103 12.9184 6.52052C12.7461 6.62 12.6204 6.78384 12.569 6.97599L9.98099 16.636C9.92954 16.8283 9.95658 17.0331 10.0562 17.2055C10.1557 17.3778 10.3197 17.5035 10.512 17.555C10.7043 17.6064 10.9091 17.5794 11.0815 17.4798C11.2538 17.3802 11.3795 17.2163 11.431 17.024L14.018 7.36399ZM16.03 8.46999C15.9613 8.39631 15.8785 8.3372 15.7865 8.29621C15.6945 8.25522 15.5952 8.23318 15.4945 8.2314C15.3938 8.22963 15.2938 8.24815 15.2004 8.28587C15.107 8.32359 15.0222 8.37974 14.951 8.45096C14.8797 8.52217 14.8236 8.60701 14.7859 8.7004C14.7482 8.79378 14.7296 8.89381 14.7314 8.99452C14.7332 9.09522 14.7552 9.19453 14.7962 9.28653C14.8372 9.37853 14.8963 9.46133 14.97 9.52999L15.141 9.70199C15.823 10.384 16.28 10.842 16.575 11.23C16.858 11.6 16.922 11.816 16.922 12C16.922 12.184 16.858 12.4 16.575 12.77C16.28 13.157 15.823 13.616 15.141 14.298L14.97 14.47C14.8963 14.5387 14.8372 14.6215 14.7962 14.7135C14.7552 14.8055 14.7332 14.9048 14.7314 15.0055C14.7296 15.1062 14.7482 15.2062 14.7859 15.2996C14.8236 15.393 14.8797 15.4778 14.951 15.549C15.0222 15.6202 15.107 15.6764 15.2004 15.7141C15.2938 15.7518 15.3938 15.7704 15.4945 15.7686C15.5952 15.7668 15.6945 15.7448 15.7865 15.7038C15.8785 15.6628 15.9613 15.6037 16.03 15.53L16.239 15.322C16.874 14.687 17.404 14.157 17.768 13.68C18.152 13.176 18.422 12.644 18.422 12C18.422 11.356 18.152 10.824 17.768 10.32C17.404 9.84299 16.874 9.31299 16.238 8.67799L16.03 8.46999ZM7.96999 8.46999C8.11217 8.33751 8.30022 8.26539 8.49452 8.26882C8.68882 8.27225 8.8742 8.35096 9.01162 8.48837C9.14903 8.62579 9.22774 8.81117 9.23117 9.00547C9.2346 9.19977 9.16247 9.38782 9.02999 9.52999L8.85899 9.70199C8.177 10.384 7.72099 10.842 7.42499 11.23C7.14199 11.6 7.07899 11.816 7.07899 12C7.07899 12.184 7.14199 12.4 7.42499 12.77C7.72099 13.157 8.177 13.616 8.85899 14.298L9.03099 14.47C9.10259 14.5392 9.15969 14.622 9.19895 14.7135C9.23822 14.805 9.25886 14.9035 9.25968 15.003C9.2605 15.1026 9.24147 15.2014 9.20372 15.2935C9.16596 15.3857 9.11024 15.4694 9.03978 15.5398C8.96933 15.6102 8.88557 15.6658 8.79338 15.7035C8.70119 15.7412 8.60242 15.7601 8.50283 15.7592C8.40325 15.7583 8.30485 15.7375 8.21336 15.6982C8.12188 15.6588 8.03915 15.6017 7.96999 15.53L7.76199 15.322C7.12599 14.687 6.59599 14.157 6.23199 13.68C5.84799 13.176 5.57899 12.644 5.57899 12C5.57899 11.356 5.84899 10.824 6.23199 10.32C6.59599 9.84299 7.12599 9.31299 7.76199 8.67799L7.96999 8.46999Z" fill="#6C737F"/>
<path fill-rule="evenodd" clip-rule="evenodd" d="M11.943 1.25C9.634 1.25 7.825 1.25 6.413 1.44C4.969 1.634 3.829 2.04 2.934 2.934C2.039 3.829 1.634 4.969 1.44 6.414C1.25 7.825 1.25 9.634 1.25 11.943V12.057C1.25 14.366 1.25 16.175 1.44 17.587C1.634 19.031 2.04 20.171 2.934 21.066C3.829 21.961 4.969 22.366 6.414 22.56C7.825 22.75 9.634 22.75 11.943 22.75H12.057C14.366 22.75 16.175 22.75 17.587 22.56C19.031 22.366 20.171 21.96 21.066 21.066C21.961 20.171 22.366 19.031 22.56 17.586C22.75 16.175 22.75 14.366 22.75 12.057V11.943C22.75 9.634 22.75 7.825 22.56 6.413C22.366 4.969 21.96 3.829 21.066 2.934C20.171 2.039 19.031 1.634 17.586 1.44C16.175 1.25 14.366 1.25 12.057 1.25H11.943ZM3.995 3.995C4.565 3.425 5.335 3.098 6.614 2.926C7.914 2.752 9.622 2.75 12 2.75C14.378 2.75 16.086 2.752 17.386 2.926C18.665 3.098 19.436 3.426 20.006 3.995C20.575 4.565 20.902 5.335 21.074 6.614C21.248 7.914 21.25 9.622 21.25 12C21.25 14.378 21.248 16.086 21.074 17.386C20.902 18.665 20.574 19.436 20.005 20.006C19.435 20.575 18.665 20.902 17.386 21.074C16.086 21.248 14.378 21.25 12 21.25C9.622 21.25 7.914 21.248 6.614 21.074C5.335 20.902 4.564 20.574 3.994 20.005C3.425 19.435 3.098 18.665 2.926 17.386C2.752 16.086 2.75 14.378 2.75 12C2.75 9.622 2.752 7.914 2.926 6.614C3.098 5.335 3.426 4.565 3.995 3.995Z" fill="#6C737F"/>
</g>
<defs>
<clipPath id="clip0_2059_19257">
<rect width="24" height="24" fill="white"/>
</clipPath>
</defs>
</svg>
