<svg width="24" height="24" viewBox="0 0 24 24" fill="none" xmlns="http://www.w3.org/2000/svg">
<g clip-path="url(#clip0_2088_24584)">
<path d="M12.5424 10.5604C12.5424 11.2176 12.1416 11.5957 11.4348 11.5957H10.5067V9.52568H11.439C12.1416 9.52568 12.5424 9.89968 12.5424 10.5604ZM14.3567 12.9515C14.3567 13.2684 14.6317 13.4747 15.0635 13.4747C15.6135 13.4747 16.026 13.1275 16.026 12.638V12.3437L15.1281 12.4008C14.62 12.4352 14.3567 12.6229 14.3567 12.9515ZM23 5.23635V18.6811C22.9995 19.1673 22.8061 19.6333 22.4624 19.9771C22.1186 20.3208 21.6526 20.5142 21.1664 20.5147H2.83282C2.34669 20.5142 1.88064 20.3208 1.53689 19.9771C1.19315 19.6333 0.999798 19.1673 0.999252 18.6811V5.23635C0.999798 4.75023 1.19315 4.28417 1.53689 3.94043C1.88064 3.59669 2.34669 3.40333 2.83282 3.40279H21.1664C21.6526 3.40333 22.1186 3.59669 22.4624 3.94043C22.8061 4.28417 22.9995 4.75023 23 5.23635ZM5.8812 9.75049C6.20227 9.7773 6.52264 9.5903 6.72546 9.35311C6.92414 9.10836 7.05408 8.78043 7.01971 8.44767C6.73714 8.45936 6.38583 8.63467 6.18302 8.87943C5.99945 9.0898 5.84339 9.42943 5.8812 9.75049ZM8.19602 12.5961C8.18846 12.5885 7.44733 12.3059 7.43977 11.45C7.43221 10.7357 8.02415 10.3919 8.05096 10.3727C7.71477 9.8763 7.19502 9.82268 7.01558 9.81099C6.54946 9.78418 6.15208 10.0743 5.9307 10.0743C5.7052 10.0743 5.36901 9.82199 5.00258 9.83024C4.76329 9.83639 4.5298 9.90522 4.32544 10.0298C4.12107 10.1545 3.95298 10.3305 3.83795 10.5404C3.33745 11.4039 3.70801 12.6792 4.19339 13.3819C4.42989 13.7291 4.71657 14.1113 5.09126 14.0962C5.44601 14.0811 5.58764 13.8673 6.01527 13.8673C6.44702 13.8673 6.56939 14.0962 6.94339 14.0928C7.33321 14.0852 7.57383 13.7456 7.81446 13.3977C8.07777 13.0003 8.18846 12.6187 8.19671 12.5954L8.19602 12.5961ZM13.3674 10.5569C13.3674 9.5408 12.6607 8.84574 11.6521 8.84574H9.69684V14.0556H10.5067V12.2757H11.626C12.6497 12.2757 13.3674 11.5731 13.3674 10.5569ZM16.8049 11.4617C16.8049 10.7096 16.2013 10.2242 15.2773 10.2242C14.4179 10.2242 13.784 10.7171 13.7607 11.3888H14.4901C14.5513 11.0677 14.849 10.8581 15.2539 10.8581C15.7503 10.8581 16.0253 11.087 16.0253 11.5153V11.802L15.0167 11.8632C14.0769 11.9202 13.5695 12.3066 13.5695 12.9749C13.5695 13.6507 14.0927 14.0976 14.8449 14.0976C15.3529 14.0976 15.8225 13.8418 16.0363 13.4328H16.0514V14.0591H16.8001V11.4617H16.8049ZM20.7086 10.2737H19.8877L18.9369 13.3523H18.9217L17.9709 10.2737H17.1191L18.49 14.0666L18.4178 14.2956C18.2954 14.6854 18.0933 14.838 17.7344 14.838C17.6553 14.8364 17.5762 14.8325 17.4972 14.8263V15.4526C17.5433 15.4678 17.7454 15.4719 17.8066 15.4719C18.5972 15.4719 18.9678 15.1701 19.2923 14.2571L20.7086 10.2737Z" fill="#6C737F"/>
</g>
<defs>
<clipPath id="clip0_2088_24584">
<rect width="24" height="24" fill="white"/>
</clipPath>
</defs>
</svg>
