<svg width="24" height="24" viewBox="0 0 24 24" fill="none" xmlns="http://www.w3.org/2000/svg">
<path d="M20.9421 3.05801C23.4121 5.52701 21.4101 11.532 16.4721 16.471C11.5321 21.41 5.52708 23.411 3.05808 20.942C0.588081 18.472 2.59008 12.468 7.52908 7.52901C12.4681 2.59001 18.4731 0.589015 20.9421 3.05801ZM3.05808 3.05801C0.588081 5.52801 2.59008 11.533 7.52808 16.471C12.4681 21.41 18.4731 23.411 20.9421 20.942C23.4121 18.473 21.4101 12.468 16.4711 7.52901C11.5321 2.59001 5.52708 0.589015 3.05808 3.05801Z" stroke="#6C737F"/>
<path d="M14.5 12C14.5 12.663 14.2366 13.2989 13.7678 13.7678C13.2989 14.2366 12.663 14.5 12 14.5C11.337 14.5 10.7011 14.2366 10.2322 13.7678C9.76339 13.2989 9.5 12.663 9.5 12C9.5 11.337 9.76339 10.7011 10.2322 10.2322C10.7011 9.76339 11.337 9.5 12 9.5C12.663 9.5 13.2989 9.76339 13.7678 10.2322C14.2366 10.7011 14.5 11.337 14.5 12Z" stroke="#6C737F"/>
</svg>
