<svg width="24" height="24" viewBox="0 0 24 24" fill="none" xmlns="http://www.w3.org/2000/svg">
<g clip-path="url(#clip0_2086_15536)">
<path d="M7.6425 4.1925C6.555 4.917 6 5.835 6 6.75C6 7.665 6.555 8.583 7.6425 9.3075C8.7255 10.029 10.263 10.5 12 10.5C13.737 10.5 15.2745 10.029 16.3575 9.3075C17.445 8.583 18 7.665 18 6.75C18 5.835 17.445 4.917 16.3575 4.1925C15.2745 3.471 13.737 3 12 3C10.263 3 8.7255 3.471 7.6425 4.1925ZM6.8115 2.9445C8.172 2.037 10.008 1.5 12 1.5C13.992 1.5 15.828 2.037 17.19 2.9445C18.543 3.8475 19.5 5.1795 19.5 6.75C19.5 8.322 18.5445 9.6525 17.19 10.5555C15.8265 11.463 13.9905 12 12 12C10.0095 12 8.172 11.463 6.81 10.5555C5.457 9.6525 4.5 8.3205 4.5 6.75C4.5 5.178 5.457 3.8475 6.8115 2.9445ZM19.278 10.719C18.899 11.11 18.469 11.4665 17.988 11.7885C17.996 11.8585 18 11.929 18 12C18 12.915 17.445 13.833 16.3575 14.5575C15.2745 15.279 13.737 15.75 12 15.75C10.263 15.75 8.7255 15.279 7.6425 14.5575C6.555 13.833 6 12.915 6 12C6 11.93 6.0035 11.8595 6.0105 11.7885C5.54402 11.4784 5.11162 11.1199 4.7205 10.719C4.57586 11.1307 4.50132 11.5637 4.5 12C4.5 13.572 5.4555 14.9025 6.81 15.8055C8.172 16.713 10.008 17.25 12 17.25C13.992 17.25 15.828 16.713 17.19 15.8055C18.543 14.9025 19.5 13.5705 19.5 12C19.4987 11.5637 19.4226 11.1307 19.278 10.719ZM19.2795 15.969C18.9005 16.36 18.4705 16.7165 17.9895 17.0385C17.9965 17.1085 18 17.179 18 17.25C18 18.165 17.445 19.083 16.3575 19.8075C15.2745 20.529 13.737 21 12 21C10.263 21 8.7255 20.529 7.6425 19.8075C6.555 19.083 6 18.165 6 17.25C6 17.18 6.0035 17.1095 6.0105 17.0385C5.54402 16.7284 5.11162 16.3699 4.7205 15.969C4.57586 16.3807 4.50132 16.8137 4.5 17.25C4.5 18.822 5.4555 20.1525 6.81 21.0555C8.172 21.963 10.008 22.5 12 22.5C13.992 22.5 15.828 21.963 17.19 21.0555C18.5445 20.1525 19.5 18.8205 19.5 17.25C19.4987 16.8137 19.4241 16.3807 19.2795 15.969Z" fill="#6C737F"/>
</g>
<defs>
<clipPath id="clip0_2086_15536">
<rect width="24" height="24" fill="white"/>
</clipPath>
</defs>
</svg>
