<svg width="24" height="24" viewBox="0 0 24 24" fill="none" xmlns="http://www.w3.org/2000/svg">
<g clip-path="url(#clip0_2407_44451)">
<path fill-rule="evenodd" clip-rule="evenodd" d="M12.0005 2C17.523 2 22 6.47701 22 12.0005C22 15.7012 19.9891 18.9326 16.9997 20.6624V12.0085V12.0005C16.9997 9.23826 14.7617 7.00025 12.0005 7.00025C11.0891 7.00025 10.2357 7.24336 9.50038 7.66855V2.31514C10.2987 2.10905 11.1371 2 12.0005 2ZM7.00025 11.9915V12.0005V12.0085V12.0325C7.01726 14.7788 9.24926 16.9997 12.0005 16.9997C12.9109 16.9997 13.7643 16.7566 14.4996 16.3314V21.6849C13.7013 21.8909 12.8629 22 12.0005 22C6.47701 22 2 17.523 2 12.0005C2 8.29883 4.0109 5.06738 7.00025 3.3386V11.9915Z" fill="#6C737F"/>
</g>
<defs>
<clipPath id="clip0_2407_44451">
<rect width="24" height="24" fill="white"/>
</clipPath>
</defs>
</svg>
