<svg width="24" height="24" viewBox="0 0 24 24" fill="none" xmlns="http://www.w3.org/2000/svg">
<path d="M15.8564 19.2139C13.299 19.593 10.7 19.5931 8.14258 19.2139C8.82404 20.5553 10.2845 21.5 12 21.5C13.7154 21.5 15.1749 20.5551 15.8564 19.2139ZM18.25 9.00488C18.2499 5.39455 15.4326 2.5 12 2.5C8.56742 2.50003 5.75006 5.39457 5.75 9.00488V9.70898L5.73828 10.0596C5.6811 10.8739 5.42097 11.6634 4.97949 12.3545L4.97852 12.3555L3.8711 14.0801C3.03168 15.3878 3.68748 17.1412 5.10645 17.543L5.5293 17.6592C9.91123 18.8185 14.5272 18.7795 18.8936 17.543L19.0244 17.501C20.3094 17.0468 20.9037 15.4545 20.2041 14.2051L20.1289 14.0811L19.0215 12.3564L19.0205 12.3555C18.5157 11.5659 18.2481 10.648 18.249 9.71094V9.50391L18.25 9.50293V9.00488ZM19.25 9.73926C19.2544 10.4751 19.466 11.195 19.8623 11.8154L20.9707 13.541L21.0752 13.7158C22.0633 15.48 21.2553 17.7753 19.3594 18.4434L19.166 18.5049C18.4489 18.708 17.7252 18.8796 16.9971 19.0205C16.9949 19.0721 16.9879 19.1248 16.9688 19.1758C16.2377 21.1265 14.2782 22.5 12 22.5C9.79281 22.5 7.88505 21.2107 7.10352 19.3564L7.03223 19.1758L7.00586 19.0771C7.00289 19.0583 7.00273 19.0393 7.00195 19.0205C6.42267 18.9084 5.84603 18.7775 5.27344 18.626L4.83399 18.5049C2.73498 17.9106 1.8468 15.3823 3.0293 13.54L4.1377 11.8145C4.53863 11.1862 4.75102 10.4562 4.75 9.71094V9.00488C4.75006 4.87735 7.98071 1.50003 12 1.5C16.0193 1.5 19.2499 4.87733 19.25 9.00488V9.73926Z" fill="#6C737F"/>
</svg>
