<svg width="24" height="24" viewBox="0 0 24 24" fill="none" xmlns="http://www.w3.org/2000/svg">
<g clip-path="url(#clip0_2407_44548)">
<path fill-rule="evenodd" clip-rule="evenodd" d="M7.09899 1.25H16.9C17.917 1.25 18.617 1.25 19.206 1.454C19.7563 1.64868 20.2544 1.96753 20.6616 2.38583C21.0688 2.80413 21.3742 3.31062 21.554 3.866C21.75 4.463 21.749 5.173 21.749 6.226V20.374C21.749 21.84 20.022 22.712 18.885 21.671C18.8485 21.6361 18.8 21.6166 18.7495 21.6166C18.699 21.6166 18.6505 21.6361 18.614 21.671L18.13 22.113C17.202 22.963 15.796 22.963 14.868 22.113C14.7 21.9562 14.4788 21.8689 14.249 21.8689C14.0192 21.8689 13.798 21.9562 13.63 22.113C12.702 22.963 11.296 22.963 10.368 22.113C10.2 21.9562 9.97879 21.8689 9.74899 21.8689C9.51919 21.8689 9.29796 21.9562 9.12999 22.113C8.20199 22.963 6.79599 22.963 5.86799 22.113L5.38499 21.671C5.34847 21.6358 5.29972 21.6161 5.24899 21.6161C5.19827 21.6161 5.14952 21.6358 5.11299 21.671C3.97599 22.711 2.24899 21.84 2.24899 20.374V6.227C2.24899 5.173 2.24899 4.463 2.44399 3.866C2.6238 3.31062 2.92915 2.80413 3.33635 2.38583C3.74355 1.96753 4.24164 1.64868 4.79199 1.454C5.38199 1.249 6.08199 1.25 7.09899 1.25ZM7.24399 2.75C6.02299 2.75 5.60199 2.76 5.28399 2.871C4.95188 2.99007 4.65161 3.18395 4.40642 3.43764C4.16123 3.69133 3.97769 3.99803 3.86999 4.334C3.75899 4.672 3.74999 5.118 3.74999 6.37V20.374C3.74999 20.494 3.80899 20.566 3.88399 20.601C3.91821 20.6173 3.95636 20.6235 3.99399 20.619C4.03446 20.6121 4.07182 20.5929 4.10099 20.564C4.41391 20.2759 4.82368 20.116 5.24899 20.116C5.67431 20.116 6.08408 20.2759 6.39699 20.564L6.87999 21.006C7.04796 21.1628 7.26919 21.2501 7.49899 21.2501C7.72879 21.2501 7.95003 21.1628 8.11799 21.006C8.56244 20.5965 9.14466 20.3692 9.74899 20.3692C10.3533 20.3692 10.9356 20.5965 11.38 21.006C11.548 21.1628 11.7692 21.2501 11.999 21.2501C12.2288 21.2501 12.45 21.1628 12.618 21.006C13.0624 20.5965 13.6447 20.3692 14.249 20.3692C14.8533 20.3692 15.4356 20.5965 15.88 21.006C16.048 21.1628 16.2692 21.2501 16.499 21.2501C16.7288 21.2501 16.95 21.1628 17.118 21.006L17.601 20.564C17.9139 20.2759 18.3237 20.116 18.749 20.116C19.1743 20.116 19.5841 20.2759 19.897 20.564C19.94 20.604 19.977 20.616 20.005 20.619C20.0423 20.6234 20.0801 20.6171 20.114 20.601C20.189 20.566 20.249 20.493 20.249 20.374V6.37C20.249 5.118 20.239 4.672 20.129 4.333C20.021 3.997 19.8371 3.69037 19.5915 3.43685C19.346 3.18332 19.0454 2.98971 18.713 2.871C18.396 2.761 17.975 2.751 16.754 2.751L7.24399 2.75ZM15 7.44C15.0736 7.50561 15.1336 7.58509 15.1765 7.6739C15.2193 7.76271 15.2443 7.8591 15.2498 7.95756C15.2554 8.05601 15.2415 8.1546 15.2089 8.24768C15.1764 8.34076 15.1257 8.4265 15.06 8.5L11.488 12.5C11.4176 12.5788 11.3314 12.6419 11.235 12.685C11.1386 12.7282 11.0341 12.7505 10.9285 12.7505C10.8228 12.7505 10.7184 12.7282 10.622 12.685C10.5256 12.6419 10.4393 12.5788 10.369 12.5L8.94099 10.9C8.80975 10.7515 8.74259 10.5572 8.75418 10.3594C8.76578 10.1615 8.85519 9.97635 9.00289 9.84424C9.15059 9.71213 9.34456 9.64384 9.54244 9.65429C9.74032 9.66474 9.92603 9.75307 10.059 9.9L10.929 10.874L13.941 7.501C14.0065 7.42745 14.0859 7.36753 14.1746 7.32466C14.2633 7.28179 14.3595 7.25681 14.4579 7.25115C14.5562 7.24548 14.6547 7.25924 14.7477 7.29165C14.8407 7.32405 14.9265 7.37446 15 7.44ZM6.74999 15.5C6.74999 15.3011 6.82901 15.1103 6.96966 14.9697C7.11031 14.829 7.30108 14.75 7.49999 14.75H16.5C16.6989 14.75 16.8897 14.829 17.0303 14.9697C17.171 15.1103 17.25 15.3011 17.25 15.5C17.25 15.6989 17.171 15.8897 17.0303 16.0303C16.8897 16.171 16.6989 16.25 16.5 16.25H7.49999C7.30108 16.25 7.11031 16.171 6.96966 16.0303C6.82901 15.8897 6.74999 15.6989 6.74999 15.5Z" fill="#6C737F"/>
</g>
<defs>
<clipPath id="clip0_2407_44548">
<rect width="24" height="24" fill="white"/>
</clipPath>
</defs>
</svg>
