<svg width="24" height="24" viewBox="0 0 24 24" fill="none" xmlns="http://www.w3.org/2000/svg">
<g clip-path="url(#clip0_2324_56491)">
<path d="M10.2693 1.00471L10.2612 4.26912C10.7857 4.25968 11.3137 4.25085 11.8295 4.25224L11.837 1.00897L13.8023 1.01341L13.7943 4.34424C16.3297 4.58007 18.3355 5.39109 18.5539 7.79261C18.716 9.54967 18.0018 10.6023 16.8618 11.1989C18.7355 11.6689 19.9073 12.822 19.6694 15.3982C19.3755 18.5971 17.0609 19.4503 13.7576 19.6373L13.7482 23L11.7839 22.9953L11.7927 19.6771C11.2836 19.6763 10.762 19.671 10.2237 19.658L10.2152 22.9913L8.2528 22.9849L8.25985 19.6171C7.80104 19.6127 7.33317 19.6028 6.85764 19.601L4.29999 19.5946L4.69595 17.1733C4.69595 17.1733 6.14881 17.2012 6.12372 17.1781C6.67963 17.1786 6.82828 16.7667 6.86386 16.5084L6.87763 11.1935L7.08536 11.1931C7.00437 11.1814 6.9323 11.1789 6.87741 11.1784L6.88656 7.38457C6.81276 6.97292 6.55415 6.49573 5.75858 6.49332C5.77998 6.46593 4.33133 6.49061 4.33133 6.49061L4.33659 4.32486L7.04612 4.33336L7.04635 4.34379C7.45364 4.34457 7.87142 4.33759 8.29677 4.32973L8.30504 1L10.2693 1.00471ZM10.2745 17.2056C11.565 17.2081 15.5237 17.4867 15.7752 15.2157L15.7884 14.9874C15.7933 12.3626 11.6189 12.7469 10.2865 12.7432L10.2745 17.2056ZM10.2906 10.7001C11.4004 10.7028 14.883 10.9782 14.8892 8.68811C14.8947 6.29985 11.4095 6.65476 10.3 6.65211L10.2906 10.7001Z" fill="#6C737F"/>
</g>
<defs>
<clipPath id="clip0_2324_56491">
<rect width="24" height="24" fill="white"/>
</clipPath>
</defs>
</svg>
