<svg width="24" height="24" viewBox="0 0 24 24" fill="none" xmlns="http://www.w3.org/2000/svg">
<path d="M22 22.5C22.2761 22.5 22.5 22.2761 22.5 22C22.5 21.7239 22.2761 21.5 22 21.5V22.5ZM2 21.5C1.72386 21.5 1.5 21.7239 1.5 22C1.5 22.2761 1.72386 22.5 2 22.5V21.5ZM11.586 2.586L11.9392 2.93993L11.9396 2.93955L11.586 2.586ZM8.5 22C8.5 22.2761 8.72386 22.5 9 22.5C9.27614 22.5 9.5 22.2761 9.5 22H8.5ZM9.5 19C9.5 18.7239 9.27614 18.5 9 18.5C8.72386 18.5 8.5 18.7239 8.5 19H9.5ZM6 7.5C5.72386 7.5 5.5 7.72386 5.5 8C5.5 8.27614 5.72386 8.5 6 8.5V7.5ZM12 8.5C12.2761 8.5 12.5 8.27614 12.5 8C12.5 7.72386 12.2761 7.5 12 7.5V8.5ZM6 10.5C5.72386 10.5 5.5 10.7239 5.5 11C5.5 11.2761 5.72386 11.5 6 11.5V10.5ZM12 11.5C12.2761 11.5 12.5 11.2761 12.5 11C12.5 10.7239 12.2761 10.5 12 10.5V11.5ZM6 13.5C5.72386 13.5 5.5 13.7239 5.5 14C5.5 14.2761 5.72386 14.5 6 14.5V13.5ZM12 14.5C12.2761 14.5 12.5 14.2761 12.5 14C12.5 13.7239 12.2761 13.5 12 13.5V14.5ZM22 22V21.5H2V22V22.5H22V22ZM21 22H21.5V6H21H20.5V22H21ZM21 6H21.5C21.5 5.07115 21.5011 4.32442 21.4223 3.73884C21.3416 3.13877 21.1689 2.63376 20.7676 2.23245L20.414 2.586L20.0604 2.93955C20.2451 3.12424 20.3654 3.38323 20.4312 3.87216C20.4989 4.37558 20.5 5.04285 20.5 6H21ZM20.414 2.586L20.7676 2.23245C20.3662 1.83114 19.8612 1.65844 19.2612 1.57771C18.6756 1.49894 17.9289 1.5 17 1.5V2V2.5C17.9571 2.5 18.6244 2.50106 19.1278 2.56879C19.6168 2.63456 19.8758 2.75486 20.0604 2.93955L20.414 2.586ZM17 2V1.5H15V2V2.5H17V2ZM15 2V1.5C14.0711 1.5 13.3244 1.49894 12.7388 1.57771C12.1388 1.65844 11.6338 1.83114 11.2324 2.23245L11.586 2.586L11.9396 2.93955C12.1242 2.75486 12.3832 2.63456 12.8722 2.56879C13.3756 2.50106 14.0429 2.5 15 2.5V2ZM11.586 2.586L11.2328 2.23207C10.5956 2.86793 10.5215 3.78767 10.5041 4.99274L11.004 5L11.5039 5.00726C11.5225 3.73233 11.6324 3.24607 11.9392 2.93993L11.586 2.586ZM15 22H15.5V9H15H14.5V22H15ZM15 9H15.5C15.5 8.07115 15.5011 7.32442 15.4223 6.73884C15.3416 6.13877 15.1689 5.63376 14.7676 5.23245L14.414 5.586L14.0604 5.93955C14.2451 6.12424 14.3654 6.38323 14.4312 6.87216C14.4989 7.37558 14.5 8.04285 14.5 9H15ZM14.414 5.586L14.7676 5.23245C14.3662 4.83114 13.8612 4.65844 13.2612 4.57771C12.6756 4.49894 11.9289 4.5 11 4.5V5V5.5C11.9571 5.5 12.6244 5.50106 13.1278 5.56879C13.6168 5.63456 13.8758 5.75486 14.0604 5.93955L14.414 5.586ZM11 5V4.5H7V5V5.5H11V5ZM7 5V4.5C6.07115 4.5 5.32442 4.49894 4.73884 4.57771C4.13877 4.65844 3.63376 4.83114 3.23245 5.23245L3.586 5.586L3.93955 5.93955C4.12424 5.75486 4.38323 5.63456 4.87216 5.56879C5.37558 5.50106 6.04285 5.5 7 5.5V5ZM3.586 5.586L3.23245 5.23245C2.83114 5.63376 2.65844 6.13877 2.57771 6.73884C2.49894 7.32442 2.5 8.07115 2.5 9H3H3.5C3.5 8.04285 3.50106 7.37558 3.56879 6.87216C3.63456 6.38323 3.75486 6.12424 3.93955 5.93955L3.586 5.586ZM3 9H2.5V22H3H3.5V9H3ZM9 22H9.5V19H9H8.5V22H9ZM6 8V8.5H12V8V7.5H6V8ZM6 11V11.5H12V11V10.5H6V11ZM6 14V14.5H12V14V13.5H6V14Z" fill="#6C737F"/>
</svg>
