<svg width="24" height="24" viewBox="0 0 24 24" fill="none" xmlns="http://www.w3.org/2000/svg">
<g clip-path="url(#clip0_2116_7806)">
<path fill-rule="evenodd" clip-rule="evenodd" d="M6.77499 5.25H17.225C18.041 5.25 18.699 5.25 19.232 5.294C19.782 5.339 20.263 5.434 20.709 5.662C21.409 6.021 21.979 6.591 22.338 7.291C22.566 7.737 22.661 8.219 22.706 8.768C22.75 9.301 22.75 9.959 22.75 10.775V10.894C22.751 11.232 22.752 11.592 22.622 11.914C22.5097 12.1903 22.3286 12.4333 22.096 12.62C21.9897 12.7044 21.8731 12.775 21.749 12.83C21.746 14.442 21.726 16.07 21.581 17.466C21.496 18.286 21.366 19.055 21.159 19.71C20.956 20.356 20.655 20.966 20.18 21.389C19.357 22.121 18.32 22.444 17.027 22.599C15.757 22.75 14.129 22.75 12.051 22.75H11.949C9.87099 22.75 8.24299 22.75 6.97299 22.598C5.67899 22.444 4.64299 22.121 3.81999 21.389C3.34399 20.967 3.04399 20.356 2.83999 19.711C2.63399 19.055 2.50399 18.286 2.41899 17.466C2.27399 16.071 2.25299 14.442 2.24999 12.829C2.12628 12.7742 2.01002 12.704 1.90399 12.62C1.67136 12.4333 1.49029 12.1903 1.37799 11.914C1.24799 11.592 1.24799 11.232 1.24999 10.894V10.775C1.24999 9.959 1.24999 9.301 1.29399 8.768C1.33899 8.218 1.43399 7.737 1.66199 7.291C2.02062 6.59053 2.59052 6.02063 3.29099 5.662C3.73599 5.434 4.21799 5.339 4.76699 5.294C5.30099 5.25 5.95899 5.25 6.77499 5.25ZM3.75199 13.309C3.75899 14.746 3.78799 16.126 3.91099 17.312C3.99099 18.082 4.10699 18.739 4.27099 19.26C4.43899 19.79 4.63199 20.105 4.81599 20.268C5.31099 20.708 5.99399 20.971 7.15099 21.108C8.32099 21.248 9.85999 21.25 12 21.25C14.14 21.25 15.678 21.249 16.849 21.109C18.006 20.971 18.689 20.707 19.184 20.268C19.367 20.105 19.561 19.79 19.728 19.26C19.892 18.74 20.009 18.082 20.089 17.312C20.212 16.126 20.241 14.745 20.248 13.309L15.25 14.808V15.162C15.25 15.672 14.939 16.132 14.464 16.322L13.764 16.602C12.6316 17.0549 11.3684 17.0549 10.236 16.602L9.53599 16.322C9.30408 16.2293 9.10527 16.0692 8.96517 15.8625C8.82508 15.6557 8.75013 15.4117 8.74999 15.162V14.808L3.75199 13.309ZM8.74999 13.242L3.35699 11.624C3.21222 11.583 3.06881 11.5373 2.92699 11.487C2.8981 11.476 2.86974 11.4636 2.84199 11.45C2.80979 11.4236 2.7847 11.3896 2.76899 11.351C2.7636 11.3209 2.75959 11.2905 2.75699 11.26C2.74979 11.1094 2.74746 10.9587 2.74999 10.808C2.74999 9.952 2.74999 9.355 2.78899 8.89C2.82599 8.434 2.89599 8.173 2.99699 7.975C3.21196 7.55455 3.55376 7.2124 3.97399 6.997C4.17299 6.896 4.43399 6.827 4.88999 6.789C5.35499 6.751 5.95099 6.75 6.80799 6.75H17.192C18.048 6.75 18.645 6.75 19.11 6.789C19.565 6.826 19.827 6.896 20.025 6.997C20.445 7.212 20.787 7.554 21.003 7.975C21.104 8.173 21.173 8.435 21.211 8.89C21.249 9.355 21.25 9.952 21.25 10.808C21.25 11.033 21.25 11.163 21.242 11.26C21.2397 11.2905 21.236 11.3209 21.231 11.351C21.215 11.3897 21.1896 11.4237 21.157 11.45C21.1296 11.4636 21.1015 11.476 21.073 11.487C20.9312 11.5373 20.7878 11.583 20.643 11.624L15.25 13.242V13C15.25 12.31 14.69 11.75 14 11.75H9.99999C9.30999 11.75 8.74999 12.31 8.74999 13V13.242ZM10.25 13.25V14.992L10.793 15.209C11.5678 15.5189 12.4322 15.5189 13.207 15.209L13.75 14.992V13.25H10.25ZM12 2.75C11.5346 2.74986 11.0806 2.89404 10.7005 3.16269C10.3205 3.43133 10.0331 3.81121 9.87799 4.25C9.80936 4.43443 9.67099 4.58449 9.49272 4.66783C9.31446 4.75117 9.11058 4.76111 8.92505 4.69551C8.73953 4.62991 8.58721 4.49401 8.50096 4.31714C8.41471 4.14026 8.40143 3.93658 8.46399 3.75C8.72254 3.01866 9.20147 2.38546 9.83482 1.93761C10.4682 1.48975 11.2248 1.24927 12.0005 1.24927C12.7762 1.24927 13.5328 1.48975 14.1662 1.93761C14.7995 2.38546 15.2784 3.01866 15.537 3.75C15.6033 3.93764 15.5923 4.14393 15.5065 4.3235C15.4207 4.50307 15.2671 4.6412 15.0795 4.7075C14.8918 4.7738 14.6856 4.76285 14.506 4.67705C14.3264 4.59126 14.1883 4.43764 14.122 4.25C13.9669 3.81121 13.6795 3.43133 13.2994 3.16269C12.9194 2.89404 12.4654 2.74986 12 2.75Z" fill="#6C737F"/>
</g>
<defs>
<clipPath id="clip0_2116_7806">
<rect width="24" height="24" fill="white"/>
</clipPath>
</defs>
</svg>
