<svg width="24" height="24" viewBox="0 0 24 24" fill="none" xmlns="http://www.w3.org/2000/svg">
<g clip-path="url(#clip0_2531_78877)">
<g clip-path="url(#clip1_2531_78877)">
<path d="M22.4873 11.4795C22.3586 8.88422 21.2709 6.4213 19.4248 4.5752C17.4557 2.60606 14.7848 1.5 12 1.5C9.21523 1.5 6.54433 2.60606 4.5752 4.5752C2.60606 6.54433 1.5 9.21523 1.5 12C1.5 14.7848 2.60606 17.4557 4.5752 19.4248C6.54433 21.3939 9.21523 22.5 12 22.5C14.7848 22.5 17.4557 21.3939 19.4248 19.4248C21.3939 17.4557 22.5 14.7848 22.5 12L22.4873 11.4795ZM23.9854 12.5947C23.8383 15.5608 22.5952 18.3755 20.4854 20.4854C18.2349 22.7358 15.1826 24 12 24C8.8174 24 5.76509 22.7358 3.51465 20.4854C1.26421 18.2349 0 15.1826 0 12C0 8.8174 1.26421 5.76509 3.51465 3.51465C5.76509 1.26421 8.8174 0 12 0C15.1826 0 18.2349 1.26421 20.4854 3.51465C22.7358 5.76509 24 8.8174 24 12L23.9854 12.5947Z" fill="#6C737F"/>
<path d="M15.5059 14.4355C15.8176 14.1628 16.2917 14.1943 16.5645 14.5059C16.8372 14.8175 16.8058 15.2917 16.4942 15.5645L12.4942 19.0645C12.2114 19.3119 11.7886 19.3119 11.5059 19.0645L7.50587 15.5645C7.19428 15.2917 7.16284 14.8175 7.43556 14.5059C7.70834 14.1943 8.18247 14.1628 8.49416 14.4355L12 17.5029L15.5059 14.4355ZM12 4.75C12.2399 4.75 12.4653 4.86468 12.6065 5.05859L16.6065 10.5586C16.8475 10.89 16.7779 11.3536 16.4502 11.5996L12.4502 14.5996C12.1835 14.7996 11.8165 14.7996 11.5498 14.5996L7.54982 11.5996C7.22216 11.3536 7.15255 10.89 7.39357 10.5586L11.3936 5.05859L11.4502 4.99023C11.5912 4.83814 11.79 4.75 12 4.75ZM9.04103 10.8428L12 13.0625L14.958 10.8428L12 6.77441L9.04103 10.8428Z" fill="#6C737F"/>
</g>
</g>
<defs>
<clipPath id="clip0_2531_78877">
<rect width="24" height="24" fill="white"/>
</clipPath>
<clipPath id="clip1_2531_78877">
<rect width="24" height="24" fill="white"/>
</clipPath>
</defs>
</svg>
