<svg width="24" height="24" viewBox="0 0 24 24" fill="none" xmlns="http://www.w3.org/2000/svg">
<g clip-path="url(#clip0_20_258)">
<path fill-rule="evenodd" clip-rule="evenodd" d="M9.944 3.25H14.056C15.894 3.25 17.35 3.25 18.489 3.403C19.661 3.561 20.61 3.893 21.359 4.641C22.107 5.39 22.439 6.339 22.597 7.511C22.687 8.184 22.724 8.967 22.739 9.874C22.7514 9.95007 22.7528 10.0275 22.743 10.104C22.749 10.6693 22.7513 11.2827 22.75 11.944V13C22.75 13.1989 22.671 13.3897 22.5303 13.5303C22.3897 13.671 22.1989 13.75 22 13.75C21.8011 13.75 21.6103 13.671 21.4697 13.5303C21.329 13.3897 21.25 13.1989 21.25 13V12C21.25 11.5547 21.2493 11.138 21.248 10.75H2.752C2.75 11.138 2.74933 11.5547 2.75 12C2.75 13.907 2.752 15.262 2.89 16.29C3.025 17.295 3.279 17.875 3.702 18.298C4.125 18.721 4.705 18.975 5.711 19.11C6.739 19.248 8.093 19.25 10 19.25H13C13.1989 19.25 13.3897 19.329 13.5303 19.4697C13.671 19.6103 13.75 19.8011 13.75 20C13.75 20.1989 13.671 20.3897 13.5303 20.5303C13.3897 20.671 13.1989 20.75 13 20.75H9.944C8.106 20.75 6.65 20.75 5.511 20.597C4.339 20.439 3.39 20.107 2.641 19.359C1.893 18.61 1.561 17.661 1.403 16.489C1.25 15.349 1.25 13.894 1.25 12.056V11.944C1.24866 11.2827 1.251 10.6693 1.257 10.104C1.24691 10.0276 1.24792 9.95012 1.26 9.874C1.276 8.967 1.313 8.184 1.403 7.511C1.561 6.339 1.893 5.39 2.641 4.641C3.39 3.893 4.339 3.561 5.511 3.403C6.651 3.25 8.106 3.25 9.944 3.25ZM2.776 9.25H21.224C21.2108 8.73513 21.1728 8.2212 21.11 7.71C20.975 6.705 20.721 6.125 20.298 5.702C19.875 5.279 19.295 5.025 18.289 4.89C17.262 4.752 15.907 4.75 14 4.75H10C8.093 4.75 6.739 4.752 5.71 4.89C4.705 5.025 4.125 5.279 3.702 5.702C3.279 6.125 3.025 6.705 2.89 7.71C2.83 8.155 2.796 8.662 2.776 9.249M18 14.75C17.4033 14.75 16.831 14.9871 16.409 15.409C15.9871 15.831 15.75 16.4033 15.75 17C15.75 17.5967 15.9871 18.169 16.409 18.591C16.831 19.0129 17.4033 19.25 18 19.25C18.5967 19.25 19.169 19.0129 19.591 18.591C20.0129 18.169 20.25 17.5967 20.25 17C20.25 16.4033 20.0129 15.831 19.591 15.409C19.169 14.9871 18.5967 14.75 18 14.75ZM14.25 17C14.2502 16.4153 14.3871 15.8388 14.6497 15.3164C14.9124 14.7941 15.2936 14.3404 15.7628 13.9916C16.2321 13.6428 16.7764 13.4085 17.3523 13.3075C17.9282 13.2065 18.5197 13.2416 19.0796 13.4099C19.6395 13.5782 20.1523 13.8752 20.5771 14.277C21.0018 14.6788 21.3267 15.1743 21.5258 15.7241C21.725 16.2738 21.7928 16.8625 21.7239 17.4431C21.655 18.0237 21.4513 18.5801 21.129 19.068L22.03 19.97C22.1037 20.0387 22.1628 20.1215 22.2038 20.2135C22.2448 20.3055 22.2668 20.4048 22.2686 20.5055C22.2704 20.6062 22.2518 20.7062 22.2141 20.7996C22.1764 20.893 22.1203 20.9778 22.049 21.049C21.9778 21.1203 21.893 21.1764 21.7996 21.2141C21.7062 21.2518 21.6062 21.2704 21.5055 21.2686C21.4048 21.2668 21.3055 21.2448 21.2135 21.2038C21.1215 21.1628 21.0387 21.1037 20.97 21.03L20.068 20.129C19.5028 20.5027 18.8469 20.7162 18.17 20.7469C17.4931 20.7776 16.8205 20.6244 16.2238 20.3034C15.627 19.9825 15.1284 19.5059 14.7808 18.9242C14.4333 18.3425 14.2499 17.6776 14.25 17ZM5.25 16C5.25 15.8011 5.32902 15.6103 5.46967 15.4697C5.61032 15.329 5.80109 15.25 6 15.25H10C10.1989 15.25 10.3897 15.329 10.5303 15.4697C10.671 15.6103 10.75 15.8011 10.75 16C10.75 16.1989 10.671 16.3897 10.5303 16.5303C10.3897 16.671 10.1989 16.75 10 16.75H6C5.80109 16.75 5.61032 16.671 5.46967 16.5303C5.32902 16.3897 5.25 16.1989 5.25 16Z" fill="#6C737F"/>
</g>
<defs>
<clipPath id="clip0_20_258">
<rect width="24" height="24" fill="white"/>
</clipPath>
</defs>
</svg>
