<svg width="24" height="24" viewBox="0 0 24 24" fill="none" xmlns="http://www.w3.org/2000/svg">
<g clip-path="url(#clip0_2116_8017)">
<path d="M9.375 8.26C9.47219 8.24352 9.57167 8.24636 9.66776 8.26835C9.76384 8.29035 9.85465 8.33107 9.93499 8.38819C10.0153 8.44531 10.0836 8.5177 10.136 8.60123C10.1883 8.68476 10.2236 8.77779 10.24 8.875L10.768 11.993C10.8012 12.1893 10.755 12.3907 10.6397 12.5529C10.5243 12.7151 10.3493 12.8248 10.153 12.858C9.95674 12.8912 9.75535 12.845 9.59313 12.7296C9.43091 12.6143 9.32116 12.4393 9.288 12.243L8.761 9.125C8.72799 8.92902 8.77411 8.72796 8.88923 8.56596C9.00436 8.40396 9.17907 8.29328 9.375 8.26ZM14.79 8.875C14.8032 8.77506 14.8363 8.6788 14.8875 8.59197C14.9387 8.50514 15.0069 8.42952 15.088 8.36963C15.1691 8.30975 15.2614 8.26682 15.3595 8.24342C15.4575 8.22002 15.5593 8.21662 15.6587 8.23343C15.7581 8.25024 15.853 8.28692 15.9379 8.34126C16.0228 8.39561 16.0959 8.46651 16.1528 8.54974C16.2097 8.63296 16.2492 8.7268 16.269 8.82564C16.2888 8.92448 16.2884 9.02629 16.268 9.125L15.74 12.243C15.7236 12.3402 15.6882 12.4332 15.6358 12.5167C15.5835 12.6002 15.5152 12.6725 15.4349 12.7296C15.3546 12.7868 15.2638 12.8275 15.1677 12.8495C15.0716 12.8715 14.9722 12.8744 14.875 12.858C14.7778 12.8416 14.6848 12.8062 14.6013 12.7538C14.5178 12.7015 14.4455 12.6332 14.3884 12.5529C14.3312 12.4725 14.2905 12.3818 14.2685 12.2857C14.2465 12.1896 14.2436 12.0902 14.26 11.993L14.79 8.875Z" fill="#6C737F"/>
<path fill-rule="evenodd" clip-rule="evenodd" d="M2.24899 2.292C2.06122 2.22596 1.8549 2.23722 1.67543 2.3233C1.49596 2.40938 1.35803 2.56323 1.29199 2.751C1.22595 2.93877 1.23721 3.14509 1.32329 3.32456C1.40937 3.50403 1.56322 3.64196 1.75099 3.708L2.01299 3.799C2.67999 4.034 3.11899 4.189 3.44199 4.348C3.74499 4.497 3.87899 4.618 3.96699 4.746C4.05699 4.878 4.12699 5.06 4.16699 5.423C4.20699 5.803 4.20799 6.298 4.20799 7.038V9.76C4.20799 11.213 4.22199 12.26 4.35899 13.06C4.50499 13.914 4.79699 14.526 5.34399 15.102C5.93799 15.729 6.68999 16.002 7.58699 16.128C8.44499 16.25 9.53499 16.25 10.88 16.25H16.286C17.028 16.25 17.652 16.25 18.156 16.188C18.693 16.123 19.181 15.979 19.608 15.632C20.034 15.284 20.273 14.835 20.445 14.323C20.608 13.841 20.734 13.23 20.884 12.503L21.392 10.034L21.394 10.029L21.404 9.977C21.569 9.152 21.707 8.458 21.742 7.9C21.778 7.314 21.711 6.736 21.329 6.24C21.094 5.934 20.764 5.761 20.463 5.656C20.1378 5.54893 19.8018 5.4785 19.461 5.446C18.774 5.37 17.939 5.37 17.121 5.37H5.66699L5.65699 5.262C5.60299 4.765 5.48699 4.312 5.20399 3.9C4.91999 3.484 4.54199 3.218 4.10199 3.001C3.68999 2.799 3.16599 2.615 2.54899 2.398L2.24899 2.292ZM5.70899 6.87H17.089C17.945 6.87 18.699 6.871 19.294 6.937C19.59 6.971 19.811 7.017 19.966 7.071C20.029 7.08983 20.0884 7.11888 20.142 7.157C20.204 7.239 20.27 7.387 20.244 7.808C20.217 8.252 20.101 8.844 19.923 9.734V9.736L19.423 12.156C19.263 12.939 19.153 13.459 19.024 13.844C18.901 14.21 18.785 14.367 18.66 14.469C18.535 14.571 18.357 14.653 17.975 14.699C17.571 14.749 17.04 14.75 16.241 14.75H10.938C9.52099 14.75 8.53799 14.748 7.79799 14.643C7.08199 14.542 6.70499 14.358 6.43199 14.07C6.11199 13.732 5.93899 13.402 5.83699 12.807C5.72699 12.157 5.70799 11.249 5.70799 9.76L5.70899 6.87ZM7.49999 21.75C6.90325 21.75 6.33096 21.5129 5.909 21.091C5.48704 20.669 5.24999 20.0967 5.24999 19.5C5.24999 18.9033 5.48704 18.331 5.909 17.909C6.33096 17.4871 6.90325 17.25 7.49999 17.25C8.09673 17.25 8.66902 17.4871 9.09098 17.909C9.51294 18.331 9.74999 18.9033 9.74999 19.5C9.74999 20.0967 9.51294 20.669 9.09098 21.091C8.66902 21.5129 8.09673 21.75 7.49999 21.75ZM6.74999 19.5C6.74999 19.6989 6.82901 19.8897 6.96966 20.0303C7.11031 20.171 7.30108 20.25 7.49999 20.25C7.6989 20.25 7.88967 20.171 8.03032 20.0303C8.17097 19.8897 8.24999 19.6989 8.24999 19.5C8.24999 19.3011 8.17097 19.1103 8.03032 18.9697C7.88967 18.829 7.6989 18.75 7.49999 18.75C7.30108 18.75 7.11031 18.829 6.96966 18.9697C6.82901 19.1103 6.74999 19.3011 6.74999 19.5ZM16.5 21.75C15.9033 21.75 15.331 21.5129 14.909 21.091C14.487 20.669 14.25 20.0967 14.25 19.5C14.25 18.9033 14.487 18.331 14.909 17.909C15.331 17.4871 15.9033 17.25 16.5 17.25C17.0967 17.25 17.669 17.4871 18.091 17.909C18.5129 18.331 18.75 18.9033 18.75 19.5C18.75 20.0967 18.5129 20.669 18.091 21.091C17.669 21.5129 17.0967 21.75 16.5 21.75ZM15.75 19.5C15.75 19.6989 15.829 19.8897 15.9697 20.0303C16.1103 20.171 16.3011 20.25 16.5 20.25C16.6989 20.25 16.8897 20.171 17.0303 20.0303C17.171 19.8897 17.25 19.6989 17.25 19.5C17.25 19.3011 17.171 19.1103 17.0303 18.9697C16.8897 18.829 16.6989 18.75 16.5 18.75C16.3011 18.75 16.1103 18.829 15.9697 18.9697C15.829 19.1103 15.75 19.3011 15.75 19.5Z" fill="#6C737F"/>
</g>
<defs>
<clipPath id="clip0_2116_8017">
<rect width="24" height="24" fill="white"/>
</clipPath>
</defs>
</svg>
