<svg width="24" height="24" viewBox="0 0 24 24" fill="none" xmlns="http://www.w3.org/2000/svg">
<path d="M2.162 8.5C2 9.603 2 11.05 2 13C2 16.771 2 18.657 3.172 19.828C4.344 20.999 6.229 21 10 21H14C17.771 21 19.657 21 20.828 19.828C21.999 18.656 22 16.771 22 13C22 11.05 22 9.604 21.838 8.5C19.561 9.98 18.102 10.924 16.75 11.505V12C16.7523 12.1989 16.6754 12.3906 16.5363 12.5328C16.3973 12.6751 16.2074 12.7562 16.0085 12.7585C15.8096 12.7608 15.6179 12.6839 15.4757 12.5448C15.3334 12.4058 15.2523 12.2159 15.25 12.017C13.1197 12.5786 10.8803 12.5786 8.75 12.017C8.74775 12.2159 8.66657 12.4058 8.52432 12.5448C8.38207 12.6839 8.19041 12.7608 7.9915 12.7585C7.79259 12.7562 7.60272 12.6751 7.46366 12.5328C7.3246 12.3906 7.24775 12.1989 7.25 12V11.505C5.898 10.923 4.44 9.98 2.162 8.5Z" fill="#101010"/>
<path fill-rule="evenodd" clip-rule="evenodd" d="M10.581 2.25H10.561C10.447 2.25 10.359 2.25 10.275 2.255C9.75542 2.28658 9.25548 2.46498 8.83329 2.76945C8.4111 3.07393 8.08399 3.49197 7.88999 3.975C7.84739 4.08841 7.80738 4.20277 7.76999 4.318L7.76599 4.33C7.66311 4.60254 7.48907 4.84253 7.26199 5.025C7.03465 5.03233 6.81699 5.04233 6.60899 5.055C4.96499 5.151 3.92199 5.421 3.17199 6.172C2.928 6.41526 2.72773 6.69874 2.57999 7.01C2.63799 7.03 2.69365 7.057 2.74699 7.091C4.84699 8.456 6.16699 9.311 7.26399 9.858C7.29979 9.67529 7.40226 9.51243 7.55148 9.4011C7.7007 9.28976 7.886 9.23791 8.07133 9.25562C8.25667 9.27333 8.42879 9.35934 8.55422 9.49692C8.67966 9.6345 8.74944 9.81382 8.74999 10V10.458C10.87 11.098 13.13 11.098 15.25 10.458V10C15.2492 9.81291 15.3184 9.6323 15.444 9.49362C15.5696 9.35493 15.7424 9.26818 15.9287 9.2504C16.1149 9.23261 16.3011 9.28507 16.4506 9.39749C16.6002 9.5099 16.7023 9.67415 16.737 9.858C17.833 9.31 19.153 8.456 21.253 7.091C21.3053 7.05761 21.3614 7.03042 21.42 7.01C21.2722 6.69874 21.072 6.41526 20.828 6.172C20.078 5.422 19.035 5.152 17.391 5.054C17.1937 5.04333 16.9877 5.034 16.773 5.026L16.733 4.992C16.5008 4.79135 16.3207 4.53744 16.208 4.252L16.205 4.243C16.169 4.136 16.142 4.052 16.11 3.974C15.9158 3.49116 15.5887 3.07332 15.1665 2.76903C14.7443 2.46474 14.2444 2.2865 13.725 2.255C13.6301 2.25062 13.535 2.24895 13.44 2.25H10.581ZM14.818 4.816L14.813 4.805L14.808 4.793L14.804 4.781L14.8 4.771L14.798 4.766L14.794 4.754L14.79 4.742L14.788 4.736L14.785 4.728L14.783 4.721L14.781 4.715C14.7618 4.65418 14.7411 4.59383 14.719 4.534C14.6308 4.31427 14.482 4.12412 14.2899 3.98568C14.0978 3.84724 13.8703 3.7662 13.634 3.752C13.5624 3.7494 13.4907 3.74874 13.419 3.75H10.581C10.438 3.75 10.398 3.75 10.366 3.752C10.1298 3.76638 9.90258 3.84751 9.71069 3.98594C9.5188 4.12437 9.37014 4.31442 9.28199 4.534L9.27899 4.541L9.27099 4.562C9.24377 4.63814 9.2181 4.71482 9.19399 4.792L9.19199 4.798L9.18899 4.805L9.18699 4.813L9.18499 4.819L9.18099 4.831L9.17699 4.843L9.17499 4.848L9.17099 4.858L9.16699 4.87L9.16199 4.882L9.15799 4.892L9.15699 4.893L9.11299 5.001L9.99999 5H14.896C14.868 4.93955 14.8419 4.87818 14.818 4.816Z" fill="#101010"/>
</svg>
