<svg width="24" height="24" viewBox="0 0 24 24" fill="none" xmlns="http://www.w3.org/2000/svg">
<path d="M15.5 13V12.6846C13.2139 13.3515 10.7861 13.3516 8.5 12.6846V13C8.5 13.2762 8.27614 13.5 8 13.5C7.72386 13.5 7.5 13.2762 7.5 13V12.336C6.20524 11.8033 4.82569 10.9295 2.66504 9.52638C2.65748 9.57592 2.64852 9.62629 2.6416 9.67775C2.50065 10.7259 2.5 12.1005 2.5 14C2.5 15.8996 2.50065 17.2741 2.6416 18.3223C2.78064 19.3561 3.0479 19.9975 3.52539 20.4746C4.00303 20.9518 4.64441 21.2183 5.67773 21.3574C6.72577 21.4985 8.10044 21.5 10 21.5H14C15.8996 21.5 17.2741 21.4994 18.3223 21.3584C19.3561 21.2194 19.9975 20.9521 20.4746 20.4746C20.9518 19.997 21.2183 19.3556 21.3574 18.3223C21.4985 17.2742 21.5 15.8996 21.5 14C21.5 12.1005 21.4994 10.7259 21.3584 9.67775C21.3515 9.62624 21.3416 9.57597 21.334 9.52638C19.1736 10.9287 17.7942 11.8031 16.5 12.336V13C16.5 13.2762 16.2761 13.5 16 13.5C15.7239 13.5 15.5 13.2762 15.5 13ZM10 6.50002C8.97918 6.50002 8.10781 6.50009 7.35449 6.52248L6.63965 6.55275C5.11786 6.64248 4.25017 6.87997 3.64355 7.41408L3.52539 7.52541C3.26313 7.78744 3.06686 8.10017 2.91797 8.49904C5.04623 9.882 6.36019 10.7232 7.5 11.2471V11C7.5 10.7239 7.72386 10.5 8 10.5C8.27614 10.5 8.5 10.7239 8.5 11V11.6406C8.52942 11.6501 8.55843 11.6608 8.58789 11.6699L9.00684 11.791C11.1074 12.3574 13.3288 12.3171 15.4121 11.6699L15.5 11.6406V11C15.5 10.7239 15.7239 10.5 16 10.5C16.2761 10.5 16.5 10.7239 16.5 11V11.2481C17.6394 10.724 18.9527 9.88145 21.0811 8.49904C20.9661 8.19104 20.8243 7.93416 20.6436 7.71291L20.4746 7.52541C19.9391 6.98988 19.1992 6.7213 17.9355 6.59767L17.3613 6.55275C16.4562 6.49982 15.3609 6.50002 14 6.50002H10ZM10.3545 3.50294H10.3516C10.0682 3.52005 9.7948 3.61726 9.56445 3.78322C9.33551 3.94819 9.15694 4.17417 9.05078 4.43556L9.05176 4.43654C9.0352 4.4787 9.01639 4.53092 8.97461 4.65724L8.9502 4.73146L8.94824 4.7383L8.91309 4.84084L8.91016 4.8506C8.82555 5.08434 8.70665 5.30468 8.56055 5.5049C9.00977 5.50195 9.48897 5.50002 10 5.50002H14C14.5106 5.50002 14.9895 5.50196 15.4385 5.5049C15.2925 5.30467 15.1744 5.08359 15.0898 4.84962V4.84865C15.0823 4.82854 15.0757 4.81028 15.0713 4.79689L15.0518 4.73732L15.0254 4.66017L15.0244 4.65822C14.9795 4.52337 14.965 4.48037 14.9502 4.44435L14.9492 4.44044C14.8433 4.17714 14.6648 3.94914 14.4346 3.78322C14.2042 3.61726 13.9308 3.52005 13.6475 3.50294H13.6445L13.418 3.50002H10.5801L10.3545 3.50294ZM22.5 14C22.5 15.8713 22.5008 17.3249 22.3486 18.4551C22.1945 19.5997 21.8753 20.4874 21.1816 21.1817C20.4878 21.876 19.6005 22.1947 18.4561 22.3486C17.3257 22.5007 15.8714 22.5 14 22.5H10C8.1287 22.5 6.6751 22.5008 5.54492 22.3486C4.40033 22.1946 3.51265 21.8754 2.81836 21.1817C2.12405 20.4879 1.80534 19.6005 1.65137 18.4561C1.49934 17.3257 1.5 15.8714 1.5 14C1.5 12.1287 1.49934 10.6743 1.65137 9.54396C1.80534 8.39956 2.12405 7.51218 2.81836 6.81837L2.98828 6.65919C3.85887 5.89557 5.01842 5.64685 6.58105 5.5547L6.59766 5.55373L6.70898 5.54689C7.26099 5.48576 7.76548 5.07438 7.96973 4.50978L7.99902 4.42287L8.02441 4.34572L8.02539 4.34279L8.12109 4.0713L8.12207 4.0674L8.19434 3.90529C8.37483 3.53491 8.64469 3.21361 8.98047 2.97169C9.36327 2.696 9.81631 2.53502 10.2871 2.50587V2.5049C10.3672 2.49947 10.4558 2.50002 10.5801 2.50002H13.418L13.7109 2.5049L13.71 2.50587C14.1815 2.53469 14.6352 2.69562 15.0186 2.97169C15.4016 3.24769 15.6993 3.62669 15.876 4.06447L15.9727 4.33986L15.999 4.41701H15.998C16.0077 4.44554 16.016 4.46871 16.0205 4.48244L16.0254 4.49806L16.0303 4.50978L16.0752 4.62111C16.3183 5.1647 16.8449 5.54018 17.4023 5.55373H17.4014C17.4076 5.55408 17.4137 5.55434 17.4199 5.5547H17.4209L18.0244 5.60158C19.3832 5.73313 20.4047 6.04144 21.1816 6.81837L21.3076 6.95119C21.9151 7.62448 22.2043 8.47125 22.3486 9.54396C22.5007 10.6743 22.5 12.1287 22.5 14Z" fill="#6C737F"/>
</svg>
