<svg width="24" height="24" viewBox="0 0 24 24" fill="none" xmlns="http://www.w3.org/2000/svg">
<path d="M21.5 12C21.5 9.62909 21.4988 7.90143 21.3213 6.58105C21.1566 5.35682 20.8472 4.54847 20.2949 3.9375L20.1816 3.81738C19.5581 3.19384 18.7258 2.85427 17.4199 2.67871C16.0995 2.50123 14.3711 2.5 12 2.5C9.62912 2.5 7.90145 2.50128 6.58105 2.67871C5.35651 2.8433 4.54753 3.15197 3.93652 3.7041L3.81738 3.81738C3.19378 4.44147 2.85426 5.27405 2.67871 6.58008C2.50123 7.90066 2.5 9.62887 2.5 12C2.5 14.3711 2.50124 16.0994 2.67871 17.4199C2.85427 18.7262 3.19393 19.5586 3.81738 20.1816L3.9375 20.2949C4.54797 20.8471 5.35575 21.1566 6.58008 21.3213C7.90063 21.4989 9.62886 21.5 12 21.5C14.3711 21.5 16.0994 21.4989 17.4199 21.3213C18.7261 21.1456 19.5586 20.8055 20.1816 20.1816L20.2949 20.0615C20.847 19.4515 21.1566 18.6441 21.3213 17.4199C21.4989 16.0995 21.5 14.3711 21.5 12ZM6.5 18V9C6.5 8.72386 6.72386 8.5 7 8.5C7.27614 8.5 7.5 8.72386 7.5 9V18C7.5 18.2761 7.27614 18.5 7 18.5C6.72386 18.5 6.5 18.2761 6.5 18ZM11.5 18V6C11.5 5.72386 11.7239 5.5 12 5.5C12.2761 5.5 12.5 5.72386 12.5 6V18C12.5 18.2761 12.2761 18.5 12 18.5C11.7239 18.5 11.5 18.2761 11.5 18ZM16.5 18V13C16.5 12.7239 16.7239 12.5 17 12.5C17.2761 12.5 17.5 12.7239 17.5 13V18C17.5 18.2761 17.2761 18.5 17 18.5C16.7239 18.5 16.5 18.2761 16.5 18ZM22.5 12C22.5 14.3428 22.5011 16.1502 22.3125 17.5527C22.1338 18.8812 21.7778 19.9124 21.041 20.7285L20.8887 20.8887C20.0488 21.7295 18.9704 22.1219 17.5537 22.3125C16.151 22.5011 14.3429 22.5 12 22.5C9.6573 22.5 7.84992 22.5011 6.44727 22.3125C5.1186 22.1338 4.08707 21.7778 3.27051 21.041L3.11035 20.8887C2.26998 20.0488 1.87796 18.9704 1.6875 17.5537C1.49898 16.151 1.5 14.3429 1.5 12C1.5 9.65726 1.49901 7.8499 1.6875 6.44727C1.87795 5.03022 2.27006 3.95122 3.11035 3.11035L3.27148 2.95801C4.08833 2.22202 5.11895 1.86605 6.44727 1.6875C7.84982 1.49898 9.65713 1.5 12 1.5C14.3428 1.5 16.1502 1.499 17.5527 1.6875C18.9696 1.87795 20.0483 2.26994 20.8887 3.11035L21.041 3.27148C21.7775 4.08832 22.1338 5.11891 22.3125 6.44727C22.5012 7.84984 22.5 9.65714 22.5 12Z" fill="#6C737F"/>
</svg>
