<svg width="24" height="24" viewBox="0 0 24 24" fill="none" xmlns="http://www.w3.org/2000/svg">
<g clip-path="url(#clip0_20_343)">
<path d="M21.5 12C21.5 9.48044 20.4994 7.06382 18.7178 5.28223C16.9362 3.50063 14.5196 2.5 12 2.5C9.48044 2.5 7.06382 3.50063 5.28223 5.28223C3.50063 7.06382 2.5 9.48044 2.5 12C2.5 14.5196 3.50063 16.9362 5.28223 18.7178C7.06382 20.4994 9.48044 21.5 12 21.5C14.5196 21.5 16.9362 20.4994 18.7178 18.7178C20.4994 16.9362 21.5 14.5196 21.5 12ZM15.2266 14.29C15.4344 14.1085 15.7499 14.1302 15.9316 14.3379C16.1133 14.5457 16.0925 14.8612 15.8848 15.043L12.3291 18.1543C12.1407 18.319 11.8593 18.319 11.6709 18.1543L8.11523 15.043C7.90747 14.8612 7.88668 14.5457 8.06836 14.3379C8.25011 14.1302 8.56562 14.1085 8.77344 14.29L12 17.1133L15.2266 14.29ZM12 5.72266C12.1598 5.72266 12.3102 5.79854 12.4043 5.92773L15.96 10.8174C16.1204 11.0383 16.0739 11.3468 15.8555 11.5107L12.2998 14.1777C12.1221 14.311 11.8779 14.311 11.7002 14.1777L8.14453 11.5107C7.9261 11.3468 7.87955 11.0383 8.04004 10.8174L11.5957 5.92773L11.6758 5.8418C11.7653 5.76551 11.8799 5.72266 12 5.72266ZM9.1377 11.0059L12 13.1523L14.8613 11.0059L12 7.07227L9.1377 11.0059ZM22.5 12C22.5 14.7848 21.3939 17.4557 19.4248 19.4248C17.4557 21.3939 14.7848 22.5 12 22.5C9.21523 22.5 6.54433 21.3939 4.5752 19.4248C2.60606 17.4557 1.5 14.7848 1.5 12C1.5 9.21523 2.60606 6.54433 4.5752 4.5752C6.54433 2.60606 9.21523 1.5 12 1.5C14.7848 1.5 17.4557 2.60606 19.4248 4.5752C21.3939 6.54433 22.5 9.21523 22.5 12Z" fill="#6C737F"/>
</g>
<defs>
<clipPath id="clip0_20_343">
<rect width="24" height="24" fill="white"/>
</clipPath>
</defs>
</svg>
