<svg width="24" height="24" viewBox="0 0 24 24" fill="none" xmlns="http://www.w3.org/2000/svg">
<path d="M12 2C10.0222 2 8.08879 2.58649 6.4443 3.6853C4.79981 4.78412 3.51809 6.3459 2.76121 8.17316C2.00433 10.0004 1.8063 12.0111 2.19215 13.9509C2.578 15.8907 3.53041 17.6725 4.92894 19.0711C6.32746 20.4696 8.10929 21.422 10.0491 21.8078C11.9889 22.1937 13.9996 21.9957 15.8268 21.2388C17.6541 20.4819 19.2159 19.2002 20.3147 17.5557C21.4135 15.9112 22 13.9778 22 12C22 9.34783 20.9464 6.8043 19.0711 4.92893C17.1957 3.05357 14.6522 2 12 2ZM8.575 10.3917L11.4917 6.225C11.5516 6.14719 11.6286 6.08418 11.7167 6.04082C11.8049 5.99746 11.9018 5.97491 12 5.97491C12.0982 5.97491 12.1951 5.99746 12.2833 6.04082C12.3714 6.08418 12.4484 6.14719 12.5083 6.225L15.425 10.3917C15.5166 10.5175 15.5572 10.6734 15.5386 10.828C15.5201 10.9825 15.4438 11.1244 15.325 11.225L12.4083 13.725C12.2929 13.8258 12.1449 13.8814 11.9917 13.8814C11.8384 13.8814 11.6904 13.8258 11.575 13.725L8.65834 11.225C8.5421 11.1221 8.46896 10.9791 8.45351 10.8246C8.43806 10.6702 8.48145 10.5156 8.575 10.3917ZM15.4417 15.9333L12.55 18.4333C12.3979 18.5669 12.2024 18.6406 12 18.6406C11.7976 18.6406 11.6021 18.5669 11.45 18.4333L8.55834 15.9333C8.39147 15.7875 8.28939 15.5813 8.27454 15.3601C8.25969 15.139 8.3333 14.921 8.47917 14.7542C8.62504 14.5873 8.83122 14.4852 9.05236 14.4704C9.27349 14.4555 9.49147 14.5291 9.65834 14.675L12 16.725L14.3417 14.675C14.5085 14.5291 14.7265 14.4555 14.9476 14.4704C15.1688 14.4852 15.375 14.5873 15.5208 14.7542C15.6667 14.921 15.7403 15.139 15.7255 15.3601C15.7106 15.5813 15.6085 15.7875 15.4417 15.9333Z" fill="#131316"/>
</svg>
