<svg width="24" height="24" viewBox="0 0 24 24" fill="none" xmlns="http://www.w3.org/2000/svg">
<g clip-path="url(#clip0_2025_12249)">
<path d="M3.73913 18.2498C3.73913 19.3956 4.51957 20.3331 5.47826 20.3331C5.68809 20.3286 5.89478 20.2833 6.08575 20.1998C6.27672 20.1164 6.44798 19.9966 6.58913 19.8477C6.74934 19.6913 6.96738 19.6017 7.19602 19.5983C7.42467 19.5949 7.64552 19.6779 7.81076 19.8294C7.97599 19.9809 8.0723 20.1887 8.07883 20.4077C8.08536 20.6268 8.00159 20.8395 7.84565 20.9998C7.54287 21.3121 7.17672 21.5619 6.76964 21.7339C6.36255 21.9058 5.92312 21.9963 5.47826 21.9998C3.55978 21.9998 2 20.3175 2 18.2498C2 16.1821 3.55978 14.4999 5.47826 14.4999C5.92312 14.5033 6.36255 14.5938 6.76964 14.7657C7.17672 14.9377 7.54287 15.1875 7.84565 15.4998C8.00159 15.6601 8.08536 15.8728 8.07883 16.0919C8.0723 16.3109 7.97599 16.5187 7.81076 16.6702C7.64552 16.8217 7.42467 16.9047 7.19602 16.9013C6.96738 16.8979 6.74934 16.8083 6.58913 16.6519C6.44798 16.503 6.27672 16.3833 6.08575 16.2998C5.89478 16.2164 5.68809 16.171 5.47826 16.1665C4.51957 16.1665 3.73913 17.104 3.73913 18.2498ZM12.3913 17.3446C11.9565 17.2238 11.5065 17.0998 11.2554 16.9446C11.1196 16.8602 11.1217 16.8404 11.1337 16.7467C11.1356 16.671 11.1563 16.5968 11.1941 16.5303C11.2319 16.4639 11.2857 16.407 11.3511 16.3644C11.8511 16.0394 13.0185 16.1842 13.5065 16.3061C13.7296 16.3633 13.9673 16.3332 14.1673 16.2224C14.3673 16.1116 14.5132 15.9293 14.5728 15.7155C14.6325 15.5016 14.6011 15.2738 14.4855 15.0822C14.3699 14.8906 14.1796 14.7508 13.9565 14.6936C13.7261 14.6363 11.6739 14.1499 10.387 14.9811C10.1148 15.1561 9.88612 15.3863 9.71707 15.6555C9.54802 15.9246 9.44275 16.226 9.4087 16.5384C9.1913 18.1925 10.8924 18.6644 11.9087 18.9456C13.2196 19.3092 13.3348 19.4581 13.2978 19.7362C13.2641 19.9873 13.1609 20.0842 13.0652 20.1456C12.5652 20.4644 11.4163 20.3081 10.9402 20.1831C10.7177 20.1236 10.4796 20.1512 10.2783 20.2599C10.077 20.3686 9.92897 20.5495 9.86685 20.7628C9.80472 20.9761 9.83355 21.2043 9.94699 21.3972C10.0604 21.5901 10.2492 21.7319 10.4717 21.7914C11.0108 21.9268 11.5655 21.9968 12.1228 21.9998C12.7554 21.9998 13.4598 21.8956 14.0239 21.5352C14.3024 21.3579 14.5363 21.1236 14.7091 20.8493C14.8818 20.575 14.9889 20.2675 15.0228 19.9487C15.2609 18.1456 13.4663 17.6425 12.3913 17.3446ZM21.4228 14.5488C21.3153 14.5119 21.2012 14.4957 21.0871 14.501C20.973 14.5064 20.8611 14.5333 20.7578 14.5801C20.6546 14.6269 20.562 14.6928 20.4853 14.7739C20.4086 14.8551 20.3493 14.9499 20.3109 15.053L18.9565 18.6883L17.6011 15.053C17.5235 14.8448 17.3629 14.6747 17.1544 14.58C16.946 14.4854 16.7069 14.474 16.4897 14.5483C16.2725 14.6226 16.0949 14.7766 15.9962 14.9763C15.8974 15.1761 15.8855 15.4052 15.963 15.6134L18.137 21.4466C18.1972 21.6086 18.3083 21.7487 18.4549 21.8478C18.6016 21.9468 18.7766 22 18.956 22C19.1354 22 19.3104 21.9468 19.457 21.8478C19.6037 21.7487 19.7147 21.6086 19.775 21.4466L21.9489 15.6134C22.0263 15.4053 22.0144 15.1764 21.9158 14.9768C21.8171 14.7771 21.6398 14.6232 21.4228 14.5488ZM22 8.66659V11.1666C22 11.3876 21.9084 11.5995 21.7453 11.7558C21.5822 11.9121 21.3611 11.9999 21.1304 11.9999C20.8998 11.9999 20.6786 11.9121 20.5156 11.7558C20.3525 11.5995 20.2609 11.3876 20.2609 11.1666V9.49991H15.0435C14.8129 9.49991 14.5917 9.41211 14.4286 9.25584C14.2655 9.09956 14.1739 8.8876 14.1739 8.66659V3.66665H4.6087V11.1666C4.6087 11.3876 4.51708 11.5995 4.35401 11.7558C4.19093 11.9121 3.96975 11.9999 3.73913 11.9999C3.50851 11.9999 3.28733 11.9121 3.12426 11.7558C2.96118 11.5995 2.86957 11.3876 2.86957 11.1666V3.66665C2.86957 3.22462 3.05279 2.80071 3.37894 2.48815C3.70509 2.17559 4.14745 2 4.6087 2H15.0435C15.1577 1.99991 15.2708 2.0214 15.3764 2.06322C15.482 2.10504 15.5779 2.16639 15.6587 2.24375L21.7457 8.07701C21.8264 8.15446 21.8904 8.24639 21.934 8.34755C21.9777 8.44871 22.0001 8.55712 22 8.66659ZM19.0315 7.83326L15.913 4.84476V7.83326H19.0315Z" fill="#6C737F"/>
</g>
<defs>
<clipPath id="clip0_2025_12249">
<rect width="24" height="24" fill="white"/>
</clipPath>
</defs>
</svg>
