<svg width="24" height="24" viewBox="0 0 24 24" fill="none" xmlns="http://www.w3.org/2000/svg">
<g clip-path="url(#clip0_2324_56342)">
<path d="M14.3015 11.0289L9.6609 9.67109C9.12379 9.51641 8.74996 9.01367 8.74996 8.45508C8.74996 7.75469 9.31715 7.1875 10.0175 7.1875H12.8664C13.3906 7.1875 13.9062 7.34648 14.3359 7.63867C14.598 7.81484 14.9504 7.77187 15.1738 7.55273L16.6691 6.0918C16.9742 5.79531 16.9312 5.30117 16.5918 5.03906C15.539 4.21406 14.2242 3.7543 12.875 3.75V1.6875C12.875 1.30937 12.5656 1 12.1875 1H10.8125C10.4343 1 10.125 1.30937 10.125 1.6875V3.75H10.0175C7.28043 3.75 5.08043 6.10039 5.33394 8.88906C5.51441 10.8699 7.02691 12.4813 8.93473 13.0398L13.339 14.3289C13.8761 14.4879 14.25 14.9863 14.25 15.5449C14.25 16.2453 13.6828 16.8125 12.9824 16.8125H10.1336C9.60934 16.8125 9.09371 16.6535 8.66402 16.3613C8.40191 16.1852 8.04957 16.2281 7.82613 16.4473L6.33082 17.9082C6.02574 18.2047 6.06871 18.6988 6.40816 18.9609C7.4609 19.7859 8.77574 20.2457 10.125 20.25V22.3125C10.125 22.6906 10.4343 23 10.8125 23H12.1875C12.5656 23 12.875 22.6906 12.875 22.3125V20.2414C14.8773 20.2027 16.755 19.0125 17.4168 17.1176C18.3406 14.4707 16.7894 11.7551 14.3015 11.0289Z" fill="#6C737F"/>
</g>
<defs>
<clipPath id="clip0_2324_56342">
<rect width="24" height="24" fill="white"/>
</clipPath>
</defs>
</svg>
