<svg width="24" height="24" viewBox="0 0 24 24" fill="none" xmlns="http://www.w3.org/2000/svg">
<g clip-path="url(#clip0_2324_56399)">
<path d="M17.7296 19.0431C17.6709 18.7471 17.3798 18.5577 17.0856 18.6248C16.6083 18.7337 15.8614 18.8665 15.0577 18.8665C12.5236 18.8665 10.5073 17.3133 9.63533 15.0518H14.7107C14.8324 15.0518 14.9504 15.0104 15.0454 14.9343C15.1404 14.8583 15.2067 14.7522 15.2334 14.6335L15.5179 13.3675C15.5932 13.0325 15.3385 12.7143 14.9952 12.7143H9.00251C8.9485 12.0746 8.93939 11.4515 9.00863 10.8283H15.553C15.6751 10.8284 15.7937 10.7866 15.8888 10.71C15.984 10.6334 16.0502 10.5265 16.0763 10.4072L16.367 9.07884C16.4401 8.74473 16.1857 8.42857 15.8437 8.42857H9.67055C10.5917 6.42004 12.4692 5.07902 14.9214 5.07902C15.5681 5.07902 16.1966 5.17946 16.6112 5.26406C16.8887 5.32067 17.1624 5.15254 17.2363 4.87911L17.7716 2.89839C17.8529 2.59746 17.6615 2.29054 17.3552 2.23246C16.8149 2.13 15.944 2 15.0032 2C10.6646 2 7.16368 4.68982 5.87104 8.42857H4.39448C4.09863 8.42857 3.85876 8.66844 3.85876 8.96429V10.2926C3.85876 10.5885 4.09863 10.8283 4.39448 10.8283H5.35738C5.31234 11.4358 5.30466 12.1358 5.3493 12.7143H4.39448C4.09863 12.7143 3.85876 12.9542 3.85876 13.25V14.5161C3.85876 14.8119 4.09863 15.0518 4.39448 15.0518H5.73885C6.85604 19.0845 10.3438 22 15.0032 22C16.1773 22 17.1711 21.7971 17.7309 21.6523C18.0062 21.5811 18.1785 21.3082 18.1232 21.0292L17.7296 19.0431Z" fill="#6C737F"/>
</g>
<defs>
<clipPath id="clip0_2324_56399">
<rect width="24" height="24" fill="white"/>
</clipPath>
</defs>
</svg>
