<svg width="24" height="24" viewBox="0 0 24 24" fill="none" xmlns="http://www.w3.org/2000/svg">
<g clip-path="url(#clip0_2323_43974)">
<path fill-rule="evenodd" clip-rule="evenodd" d="M14.989 3.99C15.056 3.91777 15.1365 3.85943 15.226 3.81833C15.3155 3.77722 15.4123 3.75415 15.5107 3.75044C15.6091 3.74673 15.7073 3.76244 15.7997 3.79668C15.8921 3.83092 15.9768 3.88302 16.049 3.95L21.265 8.794C21.7458 9.24046 22.1266 9.78368 22.3824 10.3879C22.6382 10.9922 22.7631 11.6437 22.7489 12.2997C22.7347 12.9557 22.5818 13.6012 22.3002 14.1938C22.0186 14.7864 21.6146 15.3127 21.115 15.738L16.025 20.071C15.95 20.1349 15.8632 20.1834 15.7695 20.2137C15.6757 20.244 15.5769 20.2556 15.4787 20.2478C15.3806 20.2399 15.2849 20.2128 15.1971 20.168C15.1094 20.1232 15.0314 20.0615 14.9675 19.9865C14.9036 19.9115 14.8551 19.8247 14.8248 19.731C14.7945 19.6372 14.7829 19.5384 14.7907 19.4403C14.7986 19.3421 14.8257 19.2464 14.8705 19.1586C14.9153 19.0709 14.977 18.9929 15.052 18.929L20.142 14.596C20.4805 14.308 20.7541 13.9516 20.9449 13.5503C21.1357 13.1489 21.2393 12.7117 21.2489 12.2674C21.2586 11.8231 21.174 11.3818 21.0008 10.9726C20.8276 10.5633 20.5697 10.1954 20.244 9.893L15.028 5.05C14.9558 4.98303 14.8974 4.90249 14.8563 4.81297C14.8152 4.72346 14.7922 4.62672 14.7884 4.52829C14.7847 4.42985 14.8004 4.33165 14.8347 4.23929C14.8689 4.14693 14.921 4.06222 14.988 3.99M13.123 4.885C13.1363 4.895 13.1493 4.90633 13.162 4.919L17.176 8.487C17.924 9.152 18.546 9.704 18.972 10.205C19.42 10.732 19.739 11.299 19.739 12C19.739 12.701 19.419 13.268 18.972 13.795C18.545 14.295 17.924 14.848 17.176 15.513L13.162 19.081L13.123 19.116C12.799 19.404 12.496 19.673 12.234 19.846C11.977 20.016 11.51 20.262 10.987 20.026C10.464 19.792 10.337 19.279 10.294 18.974C10.249 18.664 10.249 18.259 10.249 17.824V16.204C8.78833 16.306 7.36018 16.6837 6.04 17.317C4.527 18.054 3.319 19.1 2.663 20.349C2.58477 20.4969 2.4593 20.6145 2.30658 20.6829C2.15385 20.7513 1.98263 20.7666 1.82016 20.7265C1.65769 20.6864 1.51331 20.5931 1.41 20.4614C1.30668 20.3298 1.25036 20.1673 1.25 20C1.25 15.279 2.631 12.205 4.606 10.315C6.328 8.668 8.426 7.992 10.25 7.851V6.175C10.25 5.741 10.25 5.335 10.295 5.025C10.338 4.721 10.465 4.208 10.988 3.973C11.511 3.738 11.978 3.985 12.235 4.154C12.497 4.327 12.8 4.596 13.124 4.884M11.754 5.676C11.8647 5.772 12.002 5.893 12.166 6.039L16.138 9.569C16.939 10.282 17.48 10.765 17.83 11.176C18.167 11.572 18.24 11.802 18.24 11.999C18.24 12.196 18.167 12.427 17.83 12.822C17.48 13.233 16.94 13.716 16.138 14.428L12.166 17.959C12.0027 18.105 11.865 18.226 11.753 18.322C11.7503 18.174 11.7493 17.9907 11.75 17.772V15.43C11.75 15.2311 11.671 15.0403 11.5303 14.8997C11.3897 14.759 11.1989 14.68 11 14.68C9.087 14.68 7.1 15.134 5.384 15.97C4.47234 16.4069 3.62998 16.9757 2.884 17.658C3.253 14.611 4.342 12.645 5.644 11.4C7.264 9.849 9.31 9.321 11 9.321C11.1989 9.321 11.3897 9.24198 11.5303 9.10133C11.671 8.96068 11.75 8.76991 11.75 8.571V6.227C11.75 6.00833 11.751 5.825 11.753 5.677" fill="#6C737F"/>
</g>
<defs>
<clipPath id="clip0_2323_43974">
<rect width="24" height="24" fill="white"/>
</clipPath>
</defs>
</svg>
