<svg width="24" height="24" viewBox="0 0 24 24" fill="none" xmlns="http://www.w3.org/2000/svg">
<g clip-path="url(#clip0_20_348)">
<path d="M6.26 21.388H6C5.057 21.388 4.586 21.388 4.293 21.095C4 20.804 4 20.332 4 19.389V18.277C4 17.759 4 17.5 4.133 17.268C4.266 17.036 4.467 16.92 4.869 16.686C7.515 15.147 11.272 14.281 13.779 15.776C13.9477 15.8767 14.0977 15.9994 14.229 16.144C14.3636 16.2911 14.4672 16.4637 14.5339 16.6515C14.6006 16.8394 14.6289 17.0387 14.6171 17.2377C14.6054 17.4367 14.5538 17.6313 14.4655 17.81C14.3772 17.9887 14.2539 18.1478 14.103 18.278C13.9828 18.3922 13.836 18.4747 13.676 18.518C13.796 18.504 13.911 18.4884 14.021 18.471C14.932 18.326 15.697 17.838 16.397 17.309L18.205 15.944C18.5277 15.7098 18.9163 15.5837 19.315 15.5837C19.7137 15.5837 20.1023 15.7098 20.425 15.944C20.998 16.377 21.174 17.09 20.811 17.672C20.388 18.35 19.792 19.217 19.22 19.747C18.648 20.277 17.794 20.751 17.098 21.087C16.326 21.46 15.474 21.674 14.607 21.815C12.849 22.099 11.017 22.055 9.277 21.697C8.28432 21.4927 7.27349 21.3885 6.26 21.388ZM6.586 2.58603C6.219 2.95303 6.082 3.45903 6.031 4.25003C6.61719 4.242 7.1771 4.0055 7.59155 3.59087C8.00599 3.17624 8.24224 2.61622 8.25 2.03003C7.46 2.08203 6.953 2.21903 6.586 2.58603ZM17.414 2.58603C17.047 2.21903 16.541 2.08203 15.75 2.03103C15.758 2.61722 15.9945 3.17713 16.4092 3.59158C16.8238 4.00602 17.3838 4.24227 17.97 4.25003C17.918 3.46003 17.781 2.95303 17.414 2.58603ZM17.414 9.41403C17.047 9.78103 16.541 9.91803 15.75 9.96903C15.758 9.38284 15.9945 8.82293 16.4092 8.40848C16.8238 7.99404 17.3838 7.75779 17.97 7.75003C17.918 8.54003 17.781 9.04703 17.414 9.41403ZM6.586 9.41403C6.953 9.78103 7.459 9.91803 8.25 9.96903C8.24197 9.38284 8.00547 8.82293 7.59084 8.40848C7.17621 7.99404 6.61619 7.75779 6.03 7.75003C6.082 8.54003 6.219 9.04703 6.586 9.41403Z" fill="#131316"/>
<path fill-rule="evenodd" clip-rule="evenodd" d="M6 5.75C6.99456 5.75 7.94839 5.35491 8.65165 4.65165C9.35491 3.94839 9.75 2.99456 9.75 2H14.25C14.25 2.99456 14.6451 3.94839 15.3483 4.65165C16.0516 5.35491 17.0054 5.75 18 5.75V6.25C17.0054 6.25 16.0516 6.64509 15.3483 7.34835C14.6451 8.05161 14.25 9.00544 14.25 10H9.75C9.75 9.00544 9.35491 8.05161 8.65165 7.34835C7.94839 6.64509 6.99456 6.25 6 6.25V5.75ZM12 7C12.2652 7 12.5196 6.89464 12.7071 6.70711C12.8946 6.51957 13 6.26522 13 6C13 5.73478 12.8946 5.48043 12.7071 5.29289C12.5196 5.10536 12.2652 5 12 5C11.7348 5 11.4804 5.10536 11.2929 5.29289C11.1054 5.48043 11 5.73478 11 6C11 6.26522 11.1054 6.51957 11.2929 6.70711C11.4804 6.89464 11.7348 7 12 7Z" fill="#131316"/>
</g>
<defs>
<clipPath id="clip0_20_348">
<rect width="24" height="24" fill="white"/>
</clipPath>
</defs>
</svg>
