<svg width="24" height="24" viewBox="0 0 24 24" fill="none" xmlns="http://www.w3.org/2000/svg">
<g clip-path="url(#clip0_2088_24615)">
<g clip-path="url(#clip1_2088_24615)">
<path d="M3.96301 7.235C3.22828 7.23471 2.50795 7.43883 1.8826 7.82453C1.25725 8.21023 0.751529 8.76231 0.422013 9.419C0.144304 9.97109 -0.000335693 10.5805 -0.000335693 11.1985C-0.000335693 11.8165 0.144304 12.4259 0.422013 12.978C0.751529 13.6347 1.25725 14.1868 1.8826 14.5725C2.50795 14.9582 3.22828 15.1623 3.96301 15.162C5.03301 15.162 5.93301 14.81 6.59001 14.205C7.33801 13.515 7.77001 12.495 7.77001 11.289C7.76849 11.0189 7.74508 10.7493 7.70001 10.483H3.96401V12.009H6.10401C6.06018 12.2527 5.96761 12.485 5.83187 12.692C5.69612 12.8991 5.51999 13.0766 5.31401 13.214C4.95801 13.455 4.50001 13.593 3.96401 13.593C2.93001 13.593 2.05301 12.896 1.73901 11.957C1.57354 11.4649 1.57354 10.9321 1.73901 10.44C2.05301 9.5 2.93001 8.804 3.96401 8.804C4.52905 8.79454 5.0751 9.00793 5.48401 9.398L6.61601 8.268C5.89921 7.59313 4.94745 7.22279 3.96301 7.235ZM10.464 7.785V14.685H11.35V11.89H12.815C13.4177 11.89 13.925 11.694 14.337 11.302C14.5422 11.1182 14.7051 10.8922 14.8147 10.6395C14.9243 10.3868 14.978 10.1134 14.972 9.838C14.9762 9.56406 14.9217 9.29239 14.8121 9.04126C14.7026 8.79012 14.5406 8.56534 14.337 8.382C14.1352 8.18698 13.8969 8.03375 13.6357 7.93113C13.3745 7.8285 13.0956 7.7785 12.815 7.784L10.464 7.785ZM12.891 8.635C13.0456 8.63793 13.198 8.67172 13.3394 8.7344C13.4807 8.79708 13.6081 8.88739 13.714 9C13.8267 9.10959 13.9162 9.24066 13.9774 9.38545C14.0385 9.53024 14.0701 9.68583 14.0701 9.843C14.0701 10.0002 14.0385 10.1558 13.9774 10.3006C13.9162 10.4453 13.8267 10.5764 13.714 10.686C13.6008 10.8033 13.4643 10.8957 13.3132 10.9572C13.1622 11.0187 13 11.0479 12.837 11.043H11.35V8.635H12.891ZM17.015 9.81C16.1737 9.81 15.538 10.1183 15.108 10.735L15.889 11.226C16.177 10.8087 16.5687 10.6 17.064 10.6C17.3799 10.5956 17.6858 10.711 17.92 10.923C18.036 11.018 18.1291 11.1379 18.1924 11.2738C18.2558 11.4097 18.2878 11.5581 18.286 11.708V11.91C17.946 11.7167 17.5127 11.6203 16.986 11.621C16.3687 11.621 15.8757 11.7657 15.507 12.055C15.137 12.343 14.9523 12.7313 14.953 13.22C14.9493 13.4396 14.9945 13.6572 15.0853 13.8572C15.1761 14.0571 15.3102 14.2343 15.478 14.376C15.828 14.6847 16.263 14.839 16.783 14.839C17.393 14.839 17.8813 14.569 18.248 14.029H18.286V14.684H19.134V11.775C19.134 11.165 18.9447 10.685 18.566 10.335C18.186 9.985 17.669 9.81 17.015 9.81ZM19.278 9.964L21.224 14.386L20.126 16.766H21.041L24 9.963H23.035L21.667 13.354H21.647L20.241 9.964H19.278ZM17.132 12.332C17.626 12.332 18.0113 12.442 18.288 12.662C18.288 13.034 18.1413 13.3583 17.848 13.635C17.7175 13.7666 17.5622 13.8709 17.391 13.942C17.2199 14.013 17.0363 14.0494 16.851 14.049C16.6011 14.0538 16.3572 13.9719 16.161 13.817C16.0698 13.7508 15.9957 13.6639 15.9447 13.5634C15.8938 13.4629 15.8675 13.3517 15.868 13.239C15.868 12.9837 15.989 12.768 16.231 12.592C16.471 12.4187 16.772 12.332 17.132 12.332Z" fill="#6C737F"/>
</g>
</g>
<defs>
<clipPath id="clip0_2088_24615">
<rect width="24" height="24" fill="white"/>
</clipPath>
<clipPath id="clip1_2088_24615">
<rect width="24" height="24" fill="white"/>
</clipPath>
</defs>
</svg>
