<svg width="24" height="24" viewBox="0 0 24 24" fill="none" xmlns="http://www.w3.org/2000/svg">
<path d="M2.5 14V10C2.5 8.1287 2.49924 6.6751 2.65137 5.54492C2.80546 4.40033 3.12466 3.51265 3.81836 2.81836C4.51216 2.12405 5.39955 1.80534 6.54395 1.65137C7.67427 1.49934 9.12864 1.5 11 1.5H13C14.8714 1.5 16.3257 1.49934 17.4561 1.65137C18.6005 1.80534 19.4878 2.12405 20.1816 2.81836C20.3767 3.01361 20.3767 3.33019 20.1816 3.52539C19.9863 3.72052 19.6698 3.72058 19.4746 3.52539C18.9975 3.0479 18.3561 2.78064 17.3223 2.6416C16.2741 2.50065 14.8996 2.5 13 2.5H11C9.10045 2.5 7.72589 2.50065 6.67773 2.6416C5.64394 2.78064 5.00248 3.0479 4.52539 3.52539C4.04824 4.00303 3.78173 4.6444 3.64258 5.67773C3.50149 6.72577 3.5 8.10044 3.5 10V14C3.5 15.8996 3.50065 17.2741 3.6416 18.3223C3.78064 19.3561 4.0479 19.9975 4.52539 20.4746C5.00303 20.9518 5.64441 21.2183 6.67773 21.3574C7.72577 21.4985 9.10044 21.5 11 21.5H13C14.8996 21.5 16.2741 21.4994 17.3223 21.3584C18.3561 21.2194 18.9975 20.9521 19.4746 20.4746L19.6143 20.3232C20.2782 19.5424 20.457 18.3506 20.4912 15.9932C20.4952 15.7171 20.722 15.4961 20.998 15.5C21.274 15.504 21.495 15.7309 21.4912 16.0068C21.4579 18.2988 21.3107 19.8678 20.3789 20.9678L20.1816 21.1816C19.4878 21.876 18.6005 22.1947 17.4561 22.3486C16.3257 22.5007 14.8714 22.5 13 22.5H11C9.1287 22.5 7.6751 22.5008 6.54492 22.3486C5.40033 22.1945 4.51265 21.8753 3.81836 21.1816C3.12405 20.4878 2.80534 19.6005 2.65137 18.4561C2.49934 17.3257 2.5 15.8714 2.5 14ZM9.5 16.5C9.77614 16.5 10 16.7239 10 17C10 17.2761 9.77614 17.5 9.5 17.5H8C7.72386 17.5 7.5 17.2761 7.5 17C7.5 16.7239 7.72386 16.5 8 16.5H9.5ZM21.5 8.96582C21.4999 8.57698 21.3453 8.20361 21.0703 7.92871C20.7953 7.65384 20.422 7.49993 20.0332 7.5C19.6444 7.50008 19.2719 7.65478 18.9971 7.92969L18.7148 8.21191C18.7315 8.28535 18.7549 8.37534 18.79 8.47656C18.8938 8.77538 19.0904 9.16849 19.4609 9.53906C19.8313 9.90944 20.2244 10.1062 20.5234 10.21C20.6244 10.245 20.7147 10.2675 20.7881 10.2842L21.0703 10.0029L21.168 9.89453C21.3815 9.63368 21.5 9.30587 21.5 8.96582ZM14.2725 12.6543C13.9759 12.9488 13.8564 13.0703 13.7559 13.1992C13.6317 13.3583 13.5265 13.5298 13.4395 13.7129C13.369 13.8603 13.3155 14.0193 13.1826 14.418L12.7324 15.7656L13.2334 16.2666L14.582 15.8174C14.9807 15.6845 15.1388 15.631 15.2861 15.5605C15.4693 15.4735 15.6417 15.3683 15.8008 15.2441L16.0107 15.0596C16.094 14.9801 16.1984 14.8758 16.3477 14.7266L19.9951 11.0781C19.6195 10.9228 19.1745 10.6667 18.7539 10.2461C18.3329 9.8251 18.0771 9.37955 17.9219 9.00391L14.2725 12.6543ZM10.5 12.5C10.7761 12.5 11 12.7239 11 13C11 13.2761 10.7761 13.5 10.5 13.5H8C7.72386 13.5 7.5 13.2761 7.5 13C7.5 12.7239 7.72386 12.5 8 12.5H10.5ZM14.5 8.5C14.7761 8.5 15 8.72386 15 9C15 9.27614 14.7761 9.5 14.5 9.5H8C7.72386 9.5 7.5 9.27614 7.5 9C7.5 8.72386 7.72386 8.5 8 8.5H14.5ZM22.5 8.96582C22.5 9.61949 22.2403 10.2465 21.7783 10.709L21.3145 11.1729L17.0547 15.4336C16.7732 15.7151 16.6038 15.884 16.415 16.0312C16.1982 16.2004 15.9657 16.3456 15.7168 16.4639L15.7158 16.4629C15.4997 16.5661 15.2726 16.6419 14.8984 16.7666L13.2568 17.3125L12.8564 17.4473C12.6752 17.5074 12.4798 17.5166 12.2939 17.4727C12.108 17.4286 11.9378 17.3333 11.8027 17.1982C11.6676 17.0631 11.5723 16.893 11.5283 16.707C11.4844 16.5212 11.4935 16.3268 11.5537 16.1455L11.6865 15.7441L12.2334 14.1016C12.3582 13.7271 12.4329 13.4995 12.5361 13.2832C12.6544 13.0343 12.7986 12.8008 12.9678 12.584C13.1151 12.3951 13.2842 12.2265 13.5674 11.9453L17.8262 7.68652L18.2891 7.22266L18.4707 7.05859C18.9094 6.69911 19.461 6.5001 20.0332 6.5C20.6872 6.49992 21.3148 6.75931 21.7773 7.22168C22.2399 7.68407 22.4999 8.3118 22.5 8.96582Z" fill="#6C737F"/>
</svg>
