<svg width="24" height="24" viewBox="0 0 24 24" fill="none" xmlns="http://www.w3.org/2000/svg">
<g clip-path="url(#clip0_2521_100340)">
<path fill-rule="evenodd" clip-rule="evenodd" d="M9.00003 6.75C8.80112 6.75 8.61035 6.67098 8.4697 6.53033C8.32905 6.38968 8.25003 6.19891 8.25003 6C8.25003 5.80109 8.32905 5.61032 8.4697 5.46967C8.61035 5.32902 8.80112 5.25 9.00003 5.25H18C18.1989 5.25 18.3897 5.32902 18.5304 5.46967C18.671 5.61032 18.75 5.80109 18.75 6V15C18.75 15.1989 18.671 15.3897 18.5304 15.5303C18.3897 15.671 18.1989 15.75 18 15.75C17.8011 15.75 17.6104 15.671 17.4697 15.5303C17.329 15.3897 17.25 15.1989 17.25 15V7.81L6.53003 18.53C6.38785 18.6625 6.19981 18.7346 6.00551 18.7312C5.81121 18.7277 5.62582 18.649 5.48841 18.5116C5.35099 18.3742 5.27228 18.1888 5.26885 17.9945C5.26543 17.8002 5.33755 17.6122 5.47003 17.47L16.19 6.75H9.00003Z" fill="#6C737F"/>
</g>
<defs>
<clipPath id="clip0_2521_100340">
<rect width="24" height="24" fill="white"/>
</clipPath>
</defs>
</svg>
