<svg width="24" height="24" viewBox="0 0 24 24" fill="none" xmlns="http://www.w3.org/2000/svg">
<g clip-path="url(#clip0_2059_19337)">
<path d="M20.9639 19.8995L17.8429 10.9237C17.6237 10.3332 17.1331 9.96811 16.5695 9.96811C16.0058 9.96811 15.5256 10.3332 15.2856 10.9451L12.175 19.8995C12.1367 19.9997 12.1182 20.1068 12.1208 20.2144C12.1233 20.322 12.1468 20.4281 12.1899 20.5262C12.233 20.6243 12.2948 20.7125 12.3716 20.7857C12.4484 20.8588 12.5387 20.9154 12.6371 20.952C12.7355 20.9886 12.8401 21.0046 12.9446 20.9989C13.0492 20.9932 13.1515 20.966 13.2457 20.919C13.3398 20.8719 13.4238 20.8059 13.4927 20.7248C13.5616 20.6438 13.614 20.5494 13.6468 20.4471L14.294 18.5897H18.8345L19.4817 20.4471C19.5965 20.78 19.8992 20.9839 20.2228 20.9839C20.3063 20.9839 20.4002 20.9732 20.4837 20.941C20.6788 20.8683 20.8379 20.7189 20.926 20.5257C21.0141 20.3324 21.0239 20.111 20.9534 19.9103L20.9639 19.8995ZM14.8681 16.9684L16.5799 12.0403L18.2917 16.9684H14.8681ZM12.2064 7.53088C9.84735 11.3639 7.71799 13.683 5.12936 15.2291C5.04095 15.282 4.94328 15.3164 4.84192 15.3305C4.74057 15.3445 4.63751 15.3379 4.53864 15.311C4.43977 15.2841 4.34703 15.2374 4.26571 15.1736C4.18438 15.1098 4.11607 15.0301 4.06468 14.9392C4.01243 14.8485 3.97825 14.748 3.96414 14.6435C3.95003 14.5391 3.95628 14.4328 3.98251 14.3309C4.00874 14.229 4.05444 14.1334 4.11693 14.0498C4.17942 13.9662 4.25746 13.8963 4.34651 13.8441C6.5385 12.5342 8.33384 10.6553 10.3484 7.54162H3.78285C3.35489 7.54162 3 7.17657 3 6.73637C3 6.29616 3.35489 5.93112 3.78285 5.93112H7.69712V3.80525C7.69712 3.36505 8.05201 3 8.47997 3C8.90793 3 9.26282 3.36505 9.26282 3.80525V5.93112H13.1771C13.605 5.93112 13.9599 6.29616 13.9599 6.73637C13.9599 7.17657 13.605 7.54162 13.1771 7.54162H12.1959L12.2064 7.53088ZM12.2481 15.3365C12.1124 15.3365 11.9767 15.3042 11.8515 15.2291C11.173 14.8211 10.5154 14.3701 9.89954 13.8977C9.73344 13.7696 9.62363 13.5788 9.59427 13.3674C9.56491 13.156 9.6184 12.9412 9.74297 12.7704C9.86755 12.5995 10.053 12.4866 10.2585 12.4564C10.4641 12.4262 10.6729 12.4812 10.839 12.6093C11.4026 13.0495 12.0185 13.4575 12.6447 13.8333C12.793 13.9231 12.9085 14.0606 12.9734 14.2245C13.0383 14.3884 13.0491 14.5697 13.004 14.7406C12.9589 14.9114 12.8605 15.0622 12.7239 15.1699C12.5874 15.2776 12.4202 15.3361 12.2481 15.3365Z" fill="#6C737F"/>
</g>
<defs>
<clipPath id="clip0_2059_19337">
<rect width="24" height="24" fill="white"/>
</clipPath>
</defs>
</svg>
