<svg width="24" height="24" viewBox="0 0 24 24" fill="none" xmlns="http://www.w3.org/2000/svg">
<g clip-path="url(#clip0_2323_43943)">
<path d="M20.27 16.265L20.975 12.185C21.0164 11.9459 21.005 11.7006 20.9417 11.4663C20.8784 11.232 20.7646 11.0144 20.6084 10.8287C20.4522 10.6429 20.2573 10.4936 20.0373 10.391C19.8174 10.2885 19.5777 10.2352 19.335 10.235H14.154C14.0331 10.235 13.9136 10.2087 13.8039 10.1579C13.6942 10.1071 13.5968 10.0331 13.5186 9.94086C13.4404 9.84866 13.3832 9.74053 13.3509 9.62399C13.3187 9.50745 13.3123 9.38529 13.332 9.266L13.995 5.221C14.1021 4.5642 14.0714 3.89232 13.905 3.248C13.8331 2.98201 13.6954 2.7384 13.5046 2.53968C13.3137 2.34096 13.0759 2.19353 12.813 2.111L12.668 2.064C12.3401 1.9591 11.9845 1.98342 11.674 2.132C11.334 2.296 11.086 2.595 10.994 2.95L10.518 4.784C10.3667 5.36771 10.1465 5.93134 9.862 6.463C9.447 7.24 8.805 7.863 8.137 8.438L6.698 9.678C6.49837 9.85051 6.34245 10.0679 6.24303 10.3123C6.1436 10.5566 6.1035 10.8211 6.126 11.084L6.938 20.477C6.97379 20.8924 7.16404 21.2793 7.47119 21.5613C7.77834 21.8432 8.18005 21.9998 8.597 22H13.245C16.727 22 19.698 19.574 20.27 16.265Z" fill="#131316"/>
<path fill-rule="evenodd" clip-rule="evenodd" d="M2.968 9.485C3.16126 9.47655 3.35031 9.5431 3.49566 9.67075C3.64101 9.7984 3.73142 9.97727 3.748 10.17L4.718 21.406C4.73443 21.5733 4.71658 21.7422 4.66554 21.9024C4.6145 22.0626 4.53134 22.2107 4.42114 22.3377C4.31095 22.4647 4.17602 22.5678 4.02461 22.6409C3.87319 22.714 3.70847 22.7555 3.5405 22.7627C3.37254 22.77 3.20485 22.743 3.04768 22.6833C2.89051 22.6236 2.74716 22.5325 2.62638 22.4155C2.50561 22.2985 2.40994 22.1582 2.34523 22.003C2.28051 21.8479 2.24811 21.6811 2.25 21.513V10.234C2.25008 10.0407 2.32481 9.85486 2.45859 9.71531C2.59236 9.57576 2.77486 9.49325 2.968 9.485Z" fill="#131316"/>
</g>
<defs>
<clipPath id="clip0_2323_43943">
<rect width="24" height="24" fill="white"/>
</clipPath>
</defs>
</svg>
