<svg width="24" height="24" viewBox="0 0 24 24" fill="none" xmlns="http://www.w3.org/2000/svg">
<g clip-path="url(#clip0_2323_43912)">
<path fill-rule="evenodd" clip-rule="evenodd" d="M12.438 2.778C12.2935 2.73231 12.137 2.74303 12 2.808C11.9324 2.83967 11.8724 2.88554 11.824 2.94249C11.7757 2.99943 11.7402 3.06612 11.72 3.138L11.244 4.972C11.0775 5.6129 10.8358 6.23186 10.524 6.816C10.039 7.723 9.306 8.42 8.626 9.006L7.188 10.246C7.07813 10.341 6.9923 10.4606 6.93755 10.5952C6.8828 10.7297 6.86068 10.8753 6.873 11.02L7.685 20.413C7.70475 20.6411 7.80923 20.8536 7.97785 21.0085C8.14648 21.1635 8.36701 21.2496 8.596 21.25H13.245C16.381 21.25 19.024 19.068 19.531 16.137L20.236 12.057C20.2589 11.9255 20.2527 11.7906 20.218 11.6618C20.1833 11.5329 20.1209 11.4132 20.035 11.311C19.9492 11.2088 19.8421 11.1265 19.7212 11.0701C19.6003 11.0136 19.4685 10.9842 19.335 10.984H14.154C13.177 10.984 12.434 10.108 12.592 9.144L13.255 5.1C13.3467 4.54615 13.3208 3.97919 13.179 3.436C13.1388 3.29238 13.0632 3.16115 12.959 3.05439C12.8549 2.94763 12.7256 2.86875 12.583 2.825L12.438 2.778ZM11.348 1.457C11.8317 1.22475 12.386 1.18647 12.897 1.35L13.042 1.397C13.819 1.647 14.425 2.267 14.631 3.059C14.824 3.805 14.86 4.583 14.735 5.343L14.072 9.387C14.07 9.39893 14.0706 9.41116 14.0737 9.42283C14.0769 9.43451 14.0826 9.44534 14.0904 9.45459C14.0982 9.46383 14.108 9.47125 14.119 9.47633C14.1299 9.48141 14.1419 9.48403 14.154 9.484H19.334C20.834 9.484 21.97 10.836 21.714 12.313L21.009 16.393C20.371 20.081 17.071 22.75 13.245 22.75H8.596C7.99159 22.7495 7.40933 22.5225 6.96411 22.1137C6.51888 21.7049 6.24303 21.1442 6.191 20.542L5.378 11.149C5.34511 10.7676 5.4032 10.3837 5.54748 10.0291C5.69177 9.67448 5.91814 9.35914 6.208 9.109L7.648 7.869C8.303 7.305 8.854 6.758 9.2 6.109C9.45716 5.62982 9.65592 5.12152 9.792 4.595L10.268 2.762C10.3422 2.47898 10.4773 2.21558 10.6638 1.99017C10.8504 1.76477 11.0839 1.58281 11.348 1.457ZM2.968 9.485C3.16126 9.47655 3.35031 9.5431 3.49566 9.67075C3.64101 9.7984 3.73142 9.97727 3.748 10.17L4.718 21.406C4.73443 21.5733 4.71658 21.7422 4.66554 21.9024C4.6145 22.0626 4.53134 22.2107 4.42114 22.3377C4.31094 22.4647 4.17602 22.5679 4.0246 22.6409C3.87319 22.714 3.70847 22.7555 3.5405 22.7627C3.37253 22.77 3.20484 22.743 3.04767 22.6833C2.8905 22.6236 2.74715 22.5325 2.62638 22.4155C2.5056 22.2985 2.40994 22.1582 2.34523 22.003C2.28051 21.8479 2.24811 21.6811 2.25 21.513V10.234C2.24982 10.0405 2.32443 9.85444 2.45824 9.71467C2.59204 9.5749 2.77469 9.49326 2.968 9.485Z" fill="#6C737F"/>
</g>
<defs>
<clipPath id="clip0_2323_43912">
<rect width="24" height="24" fill="white"/>
</clipPath>
</defs>
</svg>
