<svg width="24" height="24" viewBox="0 0 24 24" fill="none" xmlns="http://www.w3.org/2000/svg">
<g clip-path="url(#clip0_93_13072)">
<path fill-rule="evenodd" clip-rule="evenodd" d="M10.663 3.47801C10.8013 3.62074 10.8774 3.81256 10.8744 4.01132C10.8714 4.21008 10.7896 4.39952 10.647 4.53801L7.851 7.25001H18C18.1989 7.25001 18.3897 7.32903 18.5303 7.46968C18.671 7.61033 18.75 7.8011 18.75 8.00001C18.75 8.19892 18.671 8.38969 18.5303 8.53034C18.3897 8.67099 18.1989 8.75001 18 8.75001H7.85L10.647 11.462C10.7213 11.5297 10.7813 11.6116 10.8234 11.7028C10.8654 11.7941 10.8887 11.8929 10.8918 11.9934C10.8949 12.0938 10.8778 12.1939 10.8415 12.2876C10.8052 12.3813 10.7504 12.4668 10.6804 12.5389C10.6105 12.6111 10.5267 12.6684 10.4341 12.7075C10.3415 12.7466 10.242 12.7668 10.1415 12.7667C10.041 12.7666 9.94156 12.7463 9.84905 12.707C9.75654 12.6677 9.67286 12.6103 9.603 12.538L5.478 8.53801C5.40603 8.46811 5.34882 8.38447 5.30975 8.29206C5.27068 8.19965 5.25055 8.10034 5.25055 8.00001C5.25055 7.89968 5.27068 7.80037 5.30975 7.70796C5.34882 7.61555 5.40603 7.53191 5.478 7.46201L9.603 3.46201C9.74573 3.32366 9.93755 3.24763 10.1363 3.25063C10.3351 3.25363 10.5245 3.33542 10.663 3.47801ZM13.337 11.478C13.4755 11.3354 13.6649 11.2536 13.8637 11.2506C14.0624 11.2476 14.2543 11.3237 14.397 11.462L18.522 15.462C18.594 15.5319 18.6512 15.6155 18.6903 15.708C18.7293 15.8004 18.7495 15.8997 18.7495 16C18.7495 16.1003 18.7293 16.1997 18.6903 16.2921C18.6512 16.3845 18.594 16.4681 18.522 16.538L14.397 20.538C14.3271 20.6103 14.2435 20.6677 14.151 20.707C14.0584 20.7463 13.959 20.7666 13.8585 20.7667C13.758 20.7668 13.6585 20.7466 13.5659 20.7075C13.4733 20.6684 13.3895 20.6111 13.3196 20.5389C13.2496 20.4668 13.1948 20.3813 13.1585 20.2876C13.1222 20.1939 13.1051 20.0938 13.1082 19.9934C13.1113 19.8929 13.1346 19.7941 13.1766 19.7028C13.2187 19.6116 13.2787 19.5297 13.353 19.462L16.149 16.75H6C5.80109 16.75 5.61032 16.671 5.46967 16.5303C5.32902 16.3897 5.25 16.1989 5.25 16C5.25 15.8011 5.32902 15.6103 5.46967 15.4697C5.61032 15.329 5.80109 15.25 6 15.25H16.15L13.353 12.538C13.2104 12.3995 13.1286 12.2101 13.1256 12.0113C13.1226 11.8126 13.1987 11.6207 13.337 11.478Z" fill="#6C737F"/>
</g>
<defs>
<clipPath id="clip0_93_13072">
<rect width="24" height="24" fill="white"/>
</clipPath>
</defs>
</svg>
