<svg width="24" height="24" viewBox="0 0 24 24" fill="none" xmlns="http://www.w3.org/2000/svg">
<g clip-path="url(#clip0_2086_15549)">
<path d="M8.34961 18C8.34961 17.2741 8.34858 16.7952 8.30078 16.4404C8.25553 16.1049 8.17943 15.9791 8.10059 15.9004L8.09961 15.8984C8.02169 15.8202 7.89574 15.7445 7.55957 15.6992C7.20467 15.6514 6.7259 15.6504 6 15.6504C5.27407 15.6504 4.79519 15.6514 4.44043 15.6992C4.10488 15.7445 3.97905 15.8206 3.90039 15.8994L3.89844 15.9004C3.82016 15.9783 3.74449 16.1043 3.69922 16.4404C3.65143 16.7953 3.65039 17.2741 3.65039 18C3.65039 18.7259 3.65143 19.2048 3.69922 19.5596C3.73313 19.8111 3.78417 19.9449 3.84082 20.0293L3.89941 20.0996L3.90039 20.1016C3.97831 20.1798 4.10427 20.2555 4.44043 20.3008C4.79533 20.3486 5.2741 20.3496 6 20.3496C6.72593 20.3496 7.20481 20.3486 7.55957 20.3008C7.89512 20.2555 8.02095 20.1794 8.09961 20.1006L8.10156 20.0996C8.17984 20.0217 8.25551 19.8957 8.30078 19.5596C8.34857 19.2047 8.34961 18.7259 8.34961 18ZM20.3496 18C20.3496 17.2748 20.3485 16.7963 20.3008 16.4414C20.2555 16.1053 20.1794 15.979 20.1006 15.9004L20.0996 15.8984C20.0217 15.8202 19.8957 15.7445 19.5596 15.6992C19.2047 15.6514 18.7259 15.6504 18 15.6504C17.2741 15.6504 16.7952 15.6514 16.4404 15.6992C16.1049 15.7445 15.9791 15.8206 15.9004 15.8994L15.8984 15.9004C15.8202 15.9783 15.7445 16.1043 15.6992 16.4404C15.6514 16.7953 15.6504 17.2741 15.6504 18C15.6504 18.7259 15.6514 19.2048 15.6992 19.5596C15.7331 19.8111 15.7842 19.9449 15.8408 20.0293L15.8994 20.0996L15.9004 20.1006C15.979 20.1794 16.1053 20.2555 16.4414 20.3008C16.7963 20.3485 17.2748 20.3496 18 20.3496C18.7252 20.3496 19.2037 20.3485 19.5586 20.3008C19.8947 20.2555 20.021 20.1794 20.0996 20.1006L20.1006 20.0996C20.1794 20.021 20.2555 19.8947 20.3008 19.5586C20.3485 19.2037 20.3496 18.7252 20.3496 18ZM20.3496 6C20.3496 5.27407 20.3486 4.79519 20.3008 4.44043C20.2555 4.10488 20.1794 3.97905 20.1006 3.90039L20.0996 3.89844C20.0217 3.82016 19.8957 3.74449 19.5596 3.69922C19.2047 3.65143 18.7259 3.65039 18 3.65039C17.2741 3.65039 16.7952 3.65143 16.4404 3.69922C16.1049 3.74447 15.9791 3.82057 15.9004 3.89941L15.8984 3.90039C15.8202 3.97831 15.7445 4.10427 15.6992 4.44043C15.6514 4.79533 15.6504 5.2741 15.6504 6C15.6504 6.72593 15.6514 7.20481 15.6992 7.55957C15.7331 7.81107 15.7842 7.94492 15.8408 8.0293L15.8994 8.09961L15.9004 8.10156C15.9783 8.17984 16.1043 8.25551 16.4404 8.30078C16.7953 8.34857 17.2741 8.34961 18 8.34961C18.7259 8.34961 19.2048 8.34858 19.5596 8.30078C19.8951 8.25553 20.0209 8.17943 20.0996 8.10059L20.1016 8.09961C20.1798 8.02169 20.2555 7.89574 20.3008 7.55957C20.3486 7.20467 20.3496 6.7259 20.3496 6ZM6 2.34961C6.68907 2.34961 7.27155 2.34893 7.7334 2.41113C8.21319 2.47579 8.65882 2.61995 9.01856 2.98047C9.37966 3.34077 9.52411 3.78691 9.58887 4.26758C9.63039 4.57595 9.64134 4.93792 9.64551 5.34961H12C12.359 5.34961 12.6504 5.64102 12.6504 6C12.6504 6.31415 12.4271 6.57615 12.1309 6.63672L12 6.65039H9.64551C9.64134 7.06233 9.63042 7.42487 9.58887 7.7334C9.52421 8.21319 9.38005 8.65882 9.01953 9.01856C8.65923 9.37966 8.21309 9.52411 7.73242 9.58887C7.27073 9.65103 6.68891 9.65039 6 9.65039C5.31093 9.65039 4.72845 9.65107 4.2666 9.58887C3.78681 9.52421 3.34118 9.38005 2.98145 9.01953C2.62034 8.65923 2.47589 8.21309 2.41113 7.73242C2.34897 7.27073 2.34961 6.68891 2.34961 6C2.34961 5.31093 2.34893 4.72845 2.41113 4.2666C2.47579 3.78681 2.61995 3.34118 2.98047 2.98145C3.34077 2.62034 3.78691 2.47589 4.26758 2.41113C4.72927 2.34897 5.31109 2.34961 6 2.34961ZM9.65039 18C9.65039 18.6891 9.65107 19.2715 9.58887 19.7334C9.52421 20.2132 9.38005 20.6588 9.01953 21.0186C8.65923 21.3797 8.21309 21.5241 7.73242 21.5889C7.27073 21.651 6.68891 21.6504 6 21.6504C5.31093 21.6504 4.72845 21.6511 4.2666 21.5889C3.78681 21.5242 3.34118 21.38 2.98145 21.0195C2.62034 20.6592 2.47589 20.2131 2.41113 19.7324C2.34897 19.2707 2.34961 18.6889 2.34961 18C2.34961 17.3109 2.34893 16.7284 2.41113 16.2666C2.47582 15.7866 2.61959 15.3403 2.98047 14.9805C3.34069 14.6197 3.78713 14.4759 4.26758 14.4111C4.57595 14.3696 4.93792 14.3587 5.34961 14.3545V12C5.34961 11.641 5.64102 11.3496 6 11.3496C6.35899 11.3496 6.65039 11.641 6.65039 12V14.3545C7.06233 14.3587 7.42487 14.3696 7.7334 14.4111C8.21297 14.4758 8.6589 14.6193 9.01856 14.9795C9.37969 15.3398 9.52411 15.7869 9.58887 16.2676C9.65103 16.7293 9.65039 17.3111 9.65039 18ZM21.6504 18C21.6504 18.6886 21.6511 19.2706 21.5889 19.7324C21.5242 20.2126 21.38 20.6583 21.0195 21.0186C20.6592 21.3797 20.213 21.5241 19.7324 21.5889C19.2706 21.6511 18.6886 21.6504 18 21.6504C17.3114 21.6504 16.7294 21.6511 16.2676 21.5889C15.787 21.5241 15.3399 21.3807 14.9795 21.0195V21.0186C14.6195 20.6585 14.4758 20.2124 14.4111 19.7324C14.3696 19.424 14.3587 19.0621 14.3545 18.6504H12C11.641 18.6504 11.3496 18.359 11.3496 18C11.3496 17.641 11.641 17.3496 12 17.3496H14.3545C14.3587 16.9377 14.3696 16.5751 14.4111 16.2666C14.4758 15.7868 14.619 15.3402 14.9795 14.9805C15.3398 14.6194 15.7869 14.4759 16.2676 14.4111C16.7293 14.349 17.3111 14.3496 18 14.3496C18.6891 14.3496 19.2715 14.3489 19.7334 14.4111C20.213 14.4758 20.6589 14.6193 21.0186 14.9795C21.3798 15.3399 21.5241 15.787 21.5889 16.2676C21.6511 16.7294 21.6504 17.3114 21.6504 18ZM3.65039 6C3.65039 6.72593 3.65143 7.20481 3.69922 7.55957C3.73313 7.81107 3.78417 7.94492 3.84082 8.0293L3.89941 8.09961L3.90039 8.10156C3.97831 8.17984 4.10427 8.25551 4.44043 8.30078C4.79533 8.34857 5.2741 8.34961 6 8.34961C6.72593 8.34961 7.20481 8.34858 7.55957 8.30078C7.89513 8.25553 8.02095 8.17943 8.09961 8.10059L8.10156 8.09961C8.17984 8.02169 8.25551 7.89574 8.30078 7.55957C8.34857 7.20467 8.34961 6.7259 8.34961 6C8.34961 5.27407 8.34858 4.79519 8.30078 4.44043C8.25553 4.10488 8.17943 3.97905 8.10059 3.90039L8.09961 3.89844C8.02169 3.82016 7.89574 3.74449 7.55957 3.69922C7.20467 3.65143 6.7259 3.65039 6 3.65039C5.27407 3.65039 4.79519 3.65143 4.44043 3.69922C4.10488 3.74447 3.97905 3.82057 3.90039 3.89941L3.89844 3.90039C3.82016 3.97831 3.74449 4.10427 3.69922 4.44043C3.65143 4.79533 3.65039 5.2741 3.65039 6ZM21.6504 6C21.6504 6.68907 21.6511 7.27155 21.5889 7.7334C21.5242 8.21319 21.38 8.65882 21.0195 9.01856C20.6592 9.37966 20.2131 9.52411 19.7324 9.58887C19.424 9.63039 19.0621 9.64036 18.6504 9.64453V12C18.6504 12.359 18.359 12.6504 18 12.6504C17.641 12.6504 17.3496 12.359 17.3496 12V9.64453C16.9377 9.64036 16.5751 9.63042 16.2666 9.58887C15.7866 9.52419 15.3403 9.38041 14.9805 9.01953C14.6197 8.65931 14.4759 8.21287 14.4111 7.73242C14.349 7.27073 14.3496 6.68891 14.3496 6C14.3496 5.31093 14.3489 4.72845 14.4111 4.2666C14.4758 3.78703 14.6193 3.3411 14.9795 2.98145C15.3398 2.62031 15.7869 2.47589 16.2676 2.41113C16.7293 2.34897 17.3111 2.34961 18 2.34961C18.6891 2.34961 19.2715 2.34893 19.7334 2.41113C20.2132 2.47579 20.6588 2.61995 21.0186 2.98047C21.3797 3.34077 21.5241 3.78691 21.5889 4.26758C21.651 4.72927 21.6504 5.31109 21.6504 6Z" fill="#6C737F"/>
</g>
<defs>
<clipPath id="clip0_2086_15549">
<rect width="24" height="24" fill="white"/>
</clipPath>
</defs>
</svg>
