<svg width="24" height="24" viewBox="0 0 24 24" fill="none" xmlns="http://www.w3.org/2000/svg">
<g clip-path="url(#clip0_2088_24642)">
<path d="M8.11558 12.0839C8.11558 12.55 7.74502 12.9047 7.27545 12.9047C6.92414 12.9047 6.66426 12.7061 6.66426 12.3321C6.66426 11.8659 7.02726 11.4919 7.49339 11.4919C7.84883 11.4919 8.11558 11.7099 8.11558 12.0839ZM4.07444 10.2317H3.895C3.83794 10.2317 3.78019 10.2702 3.77262 10.3349L3.60831 11.3551L3.92181 11.3434C4.34188 11.3434 4.66638 11.2864 4.74269 10.801C4.83069 10.2888 4.50619 10.2317 4.07444 10.2317ZM14.9219 10.2317H14.75C14.6812 10.2317 14.6352 10.2702 14.6276 10.3349L14.4674 11.3551L14.7727 11.3434C15.269 11.3434 15.6128 11.2286 15.6128 10.6559C15.6087 10.251 15.247 10.2317 14.9219 10.2317ZM23 5.27759V18.7224C22.9995 19.2085 22.8061 19.6746 22.4624 20.0183C22.1186 20.3621 21.6526 20.5554 21.1664 20.556H2.83281C2.34668 20.5554 1.88062 20.3621 1.53688 20.0183C1.19314 19.6746 0.999783 19.2085 0.999237 18.7224V5.27759C0.999783 4.79146 1.19314 4.3254 1.53688 3.98166C1.88062 3.63792 2.34668 3.44456 2.83281 3.44402H21.1664C21.6526 3.44456 22.1186 3.63792 22.4624 3.98166C22.8061 4.3254 22.9995 4.79146 23 5.27759ZM5.90044 10.449C5.90044 9.64667 5.28169 9.37923 4.57494 9.37923H3.04731C2.99796 9.37961 2.95047 9.39809 2.91384 9.43116C2.87722 9.46424 2.85401 9.50961 2.84862 9.55867L2.2223 13.4582C2.21062 13.5345 2.26837 13.6108 2.34468 13.6108H3.07068C3.17381 13.6108 3.26937 13.5001 3.28106 13.3929L3.45293 12.3767C3.49143 12.1017 3.95687 12.1973 4.14044 12.1973C5.23288 12.1973 5.90113 11.5483 5.90113 10.4483L5.90044 10.449ZM9.11658 10.7852H8.39058C8.24552 10.7852 8.23795 10.9955 8.23039 11.0987C8.00902 10.7742 7.68795 10.7164 7.32495 10.7164C6.38926 10.7164 5.67494 11.5373 5.67494 12.4427C5.67494 13.1873 6.14107 13.6727 6.88564 13.6727C7.22939 13.6727 7.65701 13.4857 7.89764 13.2182C7.87561 13.2955 7.86269 13.3751 7.85914 13.4554C7.85914 13.5434 7.89764 13.6081 7.98152 13.6081H8.63877C8.74189 13.6081 8.82989 13.4974 8.84914 13.3901L9.23896 10.9344C9.25065 10.8615 9.1929 10.7852 9.11658 10.7852ZM10.6635 14.5245L13.0965 10.9873C13.1158 10.968 13.1158 10.9488 13.1158 10.9227C13.1158 10.858 13.0587 10.7893 12.9934 10.7893H12.2598C12.2257 10.7908 12.1925 10.8002 12.1626 10.8168C12.1328 10.8334 12.1072 10.8567 12.088 10.8849L11.076 12.3747L10.6559 10.9426C10.6399 10.8992 10.6113 10.8615 10.5739 10.8344C10.5364 10.8072 10.4918 10.7917 10.4455 10.79H9.73121C9.6659 10.79 9.60884 10.8587 9.60884 10.9234C9.60884 10.9694 10.3534 13.0931 10.4187 13.2952C10.3156 13.4403 9.63565 14.3877 9.63565 14.5025C9.63565 14.5712 9.69271 14.6249 9.75802 14.6249H10.4916C10.5259 14.6225 10.5591 14.6123 10.5889 14.5952C10.6187 14.578 10.6442 14.5543 10.6635 14.5259V14.5245ZM16.7479 10.449C16.7479 9.64667 16.1291 9.37923 15.4224 9.37923H13.9057C13.8551 9.37924 13.806 9.39732 13.7675 9.4302C13.7289 9.46308 13.7034 9.50863 13.6954 9.55867L13.0766 13.4547C13.069 13.5311 13.1261 13.6074 13.199 13.6074H13.982C14.0584 13.6074 14.1154 13.5503 14.1347 13.485L14.3065 12.3774C14.345 12.1024 14.8112 12.198 14.994 12.198C16.0789 12.198 16.7479 11.549 16.7479 10.449ZM19.9633 10.7852H19.2373C19.0922 10.7852 19.0847 10.9955 19.073 11.0987C18.8626 10.7742 18.5381 10.7164 18.1676 10.7164C17.2319 10.7164 16.5175 11.5373 16.5175 12.4427C16.5175 13.1873 16.9837 13.6727 17.7282 13.6727C18.0837 13.6727 18.5113 13.4857 18.7402 13.2182C18.7286 13.2753 18.7017 13.3977 18.7017 13.4554C18.7017 13.5434 18.7402 13.6081 18.8241 13.6081H19.4848C19.5879 13.6081 19.6759 13.4974 19.6952 13.3901L20.085 10.9344C20.0967 10.8615 20.0396 10.7852 19.9633 10.7852ZM21.7776 9.51329C21.7776 9.43698 21.7206 9.37991 21.6553 9.37991H20.9485C20.8914 9.37991 20.8337 9.42598 20.8261 9.48304L20.2074 13.4554L20.1964 13.4747C20.1964 13.5434 20.2534 13.6081 20.3298 13.6081H20.9602C21.0558 13.6081 21.1513 13.4974 21.1589 13.3901L21.7776 9.52498V9.51329ZM18.3401 11.4919C17.874 11.4919 17.511 11.8625 17.511 12.3321C17.511 12.7026 17.7784 12.9047 18.1297 12.9047C18.5883 12.9047 18.9589 12.5534 18.9589 12.0839C18.963 11.7099 18.6956 11.4919 18.3401 11.4919Z" fill="#6C737F"/>
</g>
<defs>
<clipPath id="clip0_2088_24642">
<rect width="24" height="24" fill="white"/>
</clipPath>
</defs>
</svg>
