<svg width="24" height="24" viewBox="0 0 24 24" fill="none" xmlns="http://www.w3.org/2000/svg">
<g clip-path="url(#clip0_2508_25949)">
<rect width="24" height="24" rx="12" fill="#FCFCFD"/>
<mask id="mask0_2508_25949" style="mask-type:luminance" maskUnits="userSpaceOnUse" x="0" y="0" width="24" height="24">
<path d="M24 12C24 18.6276 18.6276 24 12 24C5.3724 24 0 18.6276 0 12C0 5.3724 5.3724 0 12 0C18.6276 0 24 5.3724 24 12Z" fill="white"/>
<path fill-rule="evenodd" clip-rule="evenodd" d="M12 6.30005C12.2387 6.30005 12.4676 6.39487 12.6364 6.56365C12.8052 6.73244 12.9 6.96135 12.9 7.20005V11.628L15.636 14.364C15.7244 14.4464 15.7954 14.5458 15.8445 14.6562C15.8937 14.7666 15.9202 14.8858 15.9223 15.0066C15.9244 15.1275 15.9022 15.2475 15.857 15.3596C15.8117 15.4716 15.7443 15.5734 15.6589 15.6589C15.5734 15.7444 15.4716 15.8117 15.3595 15.857C15.2475 15.9023 15.1274 15.9245 15.0066 15.9224C14.8857 15.9202 14.7666 15.8938 14.6562 15.8446C14.5458 15.7954 14.4464 15.7245 14.364 15.636L11.364 12.636C11.1952 12.4674 11.1002 12.2387 11.1 12V7.20005C11.1 6.96135 11.1948 6.73244 11.3636 6.56365C11.5324 6.39487 11.7613 6.30005 12 6.30005Z" fill="black"/>
</mask>
<g mask="url(#mask0_2508_25949)">
<path d="M-2.39999 -2.3999H26.4V26.4001H-2.39999V-2.3999Z" fill="#FF8800"/>
</g>
</g>
<defs>
<clipPath id="clip0_2508_25949">
<rect width="24" height="24" rx="12" fill="white"/>
</clipPath>
</defs>
</svg>
