<svg width="24" height="24" viewBox="0 0 24 24" fill="none" xmlns="http://www.w3.org/2000/svg">
<g clip-path="url(#clip0_2521_100373)">
<path fill-rule="evenodd" clip-rule="evenodd" d="M18.53 5.47C18.6705 5.61062 18.7493 5.80125 18.7493 6C18.7493 6.19875 18.6705 6.38937 18.53 6.53L7.81 17.25H15C15.1989 17.25 15.3897 17.329 15.5303 17.4697C15.671 17.6103 15.75 17.8011 15.75 18C15.75 18.1989 15.671 18.3897 15.5303 18.5303C15.3897 18.671 15.1989 18.75 15 18.75H6C5.80109 18.75 5.61032 18.671 5.46967 18.5303C5.32902 18.3897 5.25 18.1989 5.25 18V9C5.25 8.80108 5.32902 8.61032 5.46967 8.46967C5.61032 8.32901 5.80109 8.25 6 8.25C6.19891 8.25 6.38968 8.32901 6.53033 8.46967C6.67098 8.61032 6.75 8.80108 6.75 9V16.19L17.47 5.47C17.6106 5.32955 17.8012 5.25066 18 5.25066C18.1988 5.25066 18.3894 5.32955 18.53 5.47Z" fill="#6C737F"/>
</g>
<defs>
<clipPath id="clip0_2521_100373">
<rect width="24" height="24" fill="white"/>
</clipPath>
</defs>
</svg>
