<svg width="24" height="24" viewBox="0 0 24 24" fill="none" xmlns="http://www.w3.org/2000/svg">
<path fill-rule="evenodd" clip-rule="evenodd" d="M9.49 1.229C9.8925 1.0175 10.669 0.75 12 0.75C13.331 0.75 14.1075 1.018 14.511 1.229C14.817 1.389 14.996 1.644 15.098 1.857C15.243 2.1595 15.5605 2.842 15.838 3.5815C16.3756 3.82706 16.8885 4.12358 17.3695 4.467C18.1495 4.337 18.9005 4.272 19.235 4.2455C19.47 4.2275 19.78 4.2555 20.0725 4.4405C20.4575 4.6835 21.0775 5.222 21.7425 6.375C22.4075 7.528 22.5645 8.334 22.583 8.789C22.5975 9.134 22.466 9.4165 22.333 9.6115C21.9791 10.1286 21.6038 10.6307 21.208 11.1165C21.2638 11.7042 21.2638 12.2958 21.208 12.8835C21.6038 13.3693 21.9791 13.8714 22.333 14.3885C22.4665 14.5835 22.5975 14.866 22.583 15.211C22.5645 15.666 22.408 16.472 21.743 17.625C21.077 18.778 20.457 19.3165 20.0725 19.56C19.7805 19.745 19.4705 19.7725 19.235 19.7545C18.6104 19.7067 17.988 19.6328 17.3695 19.533C16.8885 19.8764 16.3756 20.1729 15.838 20.4185C15.6154 21.0034 15.3685 21.5787 15.098 22.143C14.996 22.356 14.817 22.6105 14.511 22.771C14.1075 22.9825 13.331 23.25 12 23.25C10.669 23.25 9.8925 22.9825 9.489 22.771C9.183 22.611 9.004 22.356 8.902 22.143C8.757 21.8405 8.4395 21.158 8.162 20.4185C7.62438 20.1729 7.11153 19.8764 6.6305 19.533C5.8505 19.663 5.0995 19.728 4.7645 19.7545C4.5295 19.7725 4.2195 19.7445 3.9275 19.5595C3.5425 19.3165 2.9225 18.778 2.2575 17.625C1.5925 16.472 1.435 15.666 1.4165 15.211C1.4025 14.866 1.5335 14.5835 1.6665 14.3885C2.02038 13.8714 2.3957 13.3693 2.7915 12.8835C2.73572 12.2958 2.73572 11.7042 2.7915 11.1165C2.3957 10.6307 2.02038 10.1286 1.6665 9.6115C1.5335 9.4165 1.4025 9.1345 1.4165 8.789C1.4355 8.334 1.5915 7.528 2.257 6.375C2.9225 5.222 3.543 4.6835 3.9275 4.44C4.2195 4.255 4.5295 4.2275 4.765 4.2455C5.1 4.2715 5.85 4.3375 6.63 4.467C7.11119 4.12355 7.62421 3.82703 8.162 3.5815C8.38457 2.99663 8.63146 2.42129 8.902 1.857C9.004 1.644 9.183 1.3895 9.489 1.229M10.628 8.3955C9.813 8.08 9.05 8.572 8.9255 9.437C8.80603 10.2861 8.74738 11.1426 8.75 12C8.75 13.039 8.8315 13.905 8.9265 14.563C9.0515 15.428 9.814 15.92 10.629 15.605C11.201 15.3835 11.972 15.0385 12.9855 14.5C13.954 13.985 14.7015 13.5295 15.2655 13.1525C16.1445 12.565 16.1445 11.435 15.2655 10.8475C14.7015 10.4705 13.954 10.015 12.9855 9.5C11.972 8.9615 11.201 8.6165 10.629 8.395" fill="#131316"/>
</svg>
