<svg width="24" height="24" viewBox="0 0 24 24" fill="none" xmlns="http://www.w3.org/2000/svg">
<path d="M12.0006 1C13.2975 1.00002 14.0328 1.26094 14.3951 1.45117C14.5772 1.54681 14.7051 1.68559 14.7946 1.8252L14.8717 1.96387L14.8727 1.96484C15.0282 2.28976 15.3589 3.01064 15.6364 3.76562C16.2273 4.027 16.7877 4.35189 17.3092 4.7334C18.1027 4.59609 18.8945 4.523 19.2545 4.49512H19.2555C19.4553 4.48004 19.7063 4.5042 19.9381 4.65039L19.9391 4.65137C20.2847 4.87039 20.8789 5.37633 21.527 6.5H21.526C22.0938 7.48283 22.2736 8.1927 22.3209 8.62891L22.3336 8.7998L22.3346 8.80078C22.3449 9.07344 22.2416 9.30312 22.1266 9.4707L22.1256 9.46973C21.9216 9.76765 21.4631 10.4161 20.9479 11.0342C21.0164 11.676 21.0163 12.323 20.9479 12.9648C21.3227 13.4146 21.6686 13.8792 21.9069 14.2148L22.1266 14.5303L22.1276 14.5312C22.2406 14.697 22.3449 14.9264 22.3346 15.1992L22.3336 15.2002C22.3168 15.6093 22.1754 16.3767 21.527 17.5C20.8783 18.6237 20.2838 19.1298 19.9391 19.3486L19.9381 19.3496C19.7062 19.4958 19.456 19.5199 19.2555 19.5049H19.2545C18.8947 19.477 18.1034 19.4029 17.3102 19.2656C16.7885 19.6475 16.2275 19.9718 15.6364 20.2334C15.3584 20.9883 15.029 21.7097 14.8737 22.0352L14.8717 22.0371C14.784 22.2185 14.6372 22.4217 14.3951 22.5488C14.0328 22.7391 13.2975 23 12.0006 23C10.7035 23 9.96772 22.7398 9.60511 22.5498V22.5488C9.3628 22.4215 9.21524 22.2179 9.12757 22.0342V22.0352C8.97209 21.7103 8.6406 20.989 8.36292 20.2334C7.77205 19.9719 7.21149 19.6472 6.69007 19.2656C5.89678 19.4029 5.10599 19.477 4.74671 19.5049H4.74573C4.54581 19.5199 4.29501 19.4958 4.06312 19.3496L4.06214 19.3486C3.71658 19.1297 3.12287 18.6236 2.47425 17.5C1.826 16.377 1.68388 15.6099 1.66761 15.2002L1.66859 15.1992C1.6571 14.9245 1.76107 14.6948 1.87464 14.5293C2.07876 14.2313 2.53744 13.5836 3.05237 12.9658C2.9838 12.3234 2.98373 11.6756 3.05237 11.0332C2.53732 10.4149 2.07779 9.76808 1.87366 9.4707L1.87269 9.46875C1.75974 9.30297 1.65634 9.07351 1.66663 8.80078V8.79883C1.68405 8.39055 1.82556 7.62373 2.47425 6.5C3.12291 5.37637 3.71642 4.87022 4.06116 4.65137L4.06312 4.65039C4.29481 4.50482 4.54412 4.48006 4.74476 4.49512H4.74573C5.10539 4.52296 5.89709 4.59618 6.69007 4.7334C7.2114 4.35174 7.77213 4.02717 8.36292 3.76562C8.64057 3.01066 8.97326 2.28978 9.12855 1.96484C9.21572 1.78302 9.36242 1.57869 9.60511 1.45117C9.96752 1.2609 10.7037 1 12.0006 1ZM12.0006 2C10.9844 2 10.4194 2.17801 10.1617 2.29199L10.07 2.33594C10.0768 2.33236 10.0578 2.33935 10.0299 2.39746C9.86443 2.74379 9.50022 3.53009 9.22913 4.30566C9.1821 4.44012 9.07952 4.54809 8.94788 4.60254C8.29584 4.87229 7.68263 5.22752 7.12366 5.6582C7.01065 5.74529 6.86541 5.77942 6.72523 5.75293C5.91705 5.59961 5.05052 5.52176 4.66859 5.49219C4.62206 5.48884 4.60105 5.49394 4.59534 5.49609C4.40513 5.61718 3.91933 5.99728 3.34046 7C2.76224 8.00165 2.67575 8.61219 2.66566 8.83887L2.66859 8.84863C2.67216 8.85932 2.67996 8.87776 2.69788 8.9043C2.91484 9.22036 3.41575 9.93059 3.95277 10.5547C4.04533 10.6624 4.0874 10.8045 4.06898 10.9453C3.97708 11.6453 3.97708 12.3547 4.06898 13.0547C4.0874 13.1956 4.04533 13.3376 3.95277 13.4453C3.41597 14.0687 2.91517 14.7789 2.69886 15.0947V15.0957C2.68042 15.1226 2.67196 15.1404 2.66859 15.1504L2.66663 15.1572V15.1602C2.67545 15.3835 2.75996 15.9944 3.34046 17C3.92077 18.0052 4.40789 18.3839 4.5973 18.5039H4.59632C4.58933 18.4995 4.60435 18.5116 4.66956 18.5068C5.05115 18.4772 5.9167 18.4004 6.72523 18.2471L6.8307 18.2383C6.93567 18.2409 7.03803 18.2767 7.12269 18.3418C7.68172 18.7724 8.2958 19.1268 8.94788 19.3965C9.07963 19.451 9.18212 19.5597 9.22913 19.6943C9.43262 20.2768 9.68877 20.8652 9.87366 21.2686L10.0299 21.6035C10.0572 21.6608 10.0763 21.6674 10.07 21.6641L10.1617 21.708C10.4199 21.8221 10.9847 22 12.0006 22C13.1609 22 13.7324 21.7679 13.9303 21.6641C13.9249 21.667 13.9422 21.6596 13.9694 21.6045C14.1347 21.2581 14.5002 20.4708 14.7721 19.6943L14.817 19.5986C14.8718 19.509 14.9547 19.4383 15.0534 19.3975C15.7054 19.1277 16.3186 18.7725 16.8776 18.3418C16.9906 18.2547 17.1358 18.2205 17.276 18.2471C18.0835 18.4003 18.9483 18.4772 19.3307 18.5068C19.3762 18.5102 19.3974 18.5062 19.4039 18.5039L19.4879 18.4463C19.7159 18.2795 20.153 17.8796 20.6608 17C21.2406 15.9955 21.3243 15.3846 21.3336 15.1602C21.3321 15.1529 21.3267 15.1309 21.3014 15.0938V15.0928C21.0846 14.7763 20.5845 14.0682 20.0485 13.4453C19.9559 13.3376 19.9129 13.1956 19.9313 13.0547C20.0232 12.3547 20.0232 11.6453 19.9313 10.9453C19.9129 10.8044 19.9559 10.6624 20.0485 10.5547C20.5853 9.93124 21.0861 9.22007 21.3024 8.9043C21.3292 8.86514 21.3338 8.84414 21.3346 8.83887H21.3336C21.3253 8.64172 21.2604 8.14974 20.8561 7.3584L20.6608 7C20.0811 5.99503 19.5934 5.61621 19.4039 5.49609V5.49512C19.3971 5.49283 19.375 5.48884 19.3307 5.49219C18.9481 5.52183 18.0836 5.59984 17.276 5.75293C17.1358 5.77951 16.9906 5.74522 16.8776 5.6582C16.3185 5.22758 15.7045 4.87316 15.0524 4.60352C14.9206 4.54904 14.8181 4.44025 14.7711 4.30566C14.5003 3.53031 14.1377 2.74414 13.9723 2.39844L13.9381 2.34375C13.9306 2.33513 13.9272 2.33428 13.9303 2.33594C13.7324 2.2321 13.1609 2.00002 12.0006 2ZM9.25452 8.04883C9.7038 7.76923 10.264 7.718 10.8092 7.92871L11.2916 8.125C11.8123 8.34709 12.4492 8.64888 13.2203 9.05859C14.2031 9.5809 14.9648 10.0447 15.5436 10.4316C16.1114 10.8112 16.4244 11.3915 16.4244 12C16.4244 12.6085 16.1114 13.1888 15.5436 13.5684C14.9648 13.9553 14.2031 14.4191 13.2203 14.9414C12.4492 15.3511 11.8123 15.6529 11.2916 15.875L10.8092 16.0713C10.264 16.282 9.7038 16.2308 9.25452 15.9512C8.80905 15.6739 8.51274 15.1981 8.43128 14.6348V14.6328C8.30817 13.7603 8.24731 12.8801 8.24964 11.999C8.24969 10.9343 8.33323 10.0444 8.43128 9.36523C8.51274 8.80193 8.80905 8.32611 9.25452 8.04883ZM10.4489 8.86133C10.1791 8.75705 9.94981 8.79453 9.78284 8.89844C9.61238 9.00471 9.46505 9.2075 9.42152 9.50879C9.32962 10.1454 9.24964 10.9873 9.24964 12V12.001C9.24742 12.834 9.30522 13.6664 9.42152 14.4912L9.44202 14.5996C9.50169 14.8419 9.63362 15.0085 9.78284 15.1016C9.94981 15.2055 10.1791 15.243 10.4489 15.1387L10.9 14.9551C11.3908 14.7457 12.0013 14.4567 12.7506 14.0586C13.7058 13.5509 14.4388 13.1034 14.9879 12.7363C15.2988 12.5284 15.4244 12.2501 15.4244 12C15.4244 11.7499 15.2988 11.4716 14.9879 11.2637C14.4388 10.8966 13.7058 10.4491 12.7506 9.94141C12.0013 9.5433 11.3908 9.25427 10.9 9.04492L10.4489 8.86133Z" fill="#6C737F"/>
</svg>
