<svg width="24" height="24" viewBox="0 0 24 24" fill="none" xmlns="http://www.w3.org/2000/svg">
<g clip-path="url(#clip0_2234_36094)">
<path fill-rule="evenodd" clip-rule="evenodd" d="M6.294 1.25H17.706C17.978 1.25 18.165 1.25 18.33 1.265C20.168 1.434 21.581 2.953 21.736 4.811C21.75 4.979 21.75 5.171 21.75 5.459V20.259C21.75 21.032 21.268 21.615 20.656 21.829C20.3295 21.9444 19.9742 21.9493 19.6447 21.8431C19.3151 21.7369 19.0296 21.5253 18.832 21.241C18.822 21.2237 18.807 21.2097 18.789 21.201C18.7767 21.1958 18.7634 21.1931 18.75 21.1931C18.7366 21.1931 18.7233 21.1958 18.711 21.201C18.693 21.2097 18.678 21.2237 18.668 21.241L18.235 21.846C18.0398 22.1251 17.7802 22.353 17.4782 22.5104C17.1761 22.6678 16.8406 22.75 16.5 22.75C16.1594 22.75 15.8239 22.6678 15.5218 22.5104C15.2198 22.353 14.9602 22.1251 14.765 21.846C14.7086 21.761 14.6321 21.6913 14.5422 21.6431C14.4524 21.5949 14.352 21.5696 14.25 21.5696C14.148 21.5696 14.0476 21.5949 13.9578 21.6431C13.8679 21.6913 13.7914 21.761 13.735 21.846C13.5398 22.1251 13.2802 22.353 12.9782 22.5104C12.6761 22.6678 12.3406 22.75 12 22.75C11.6594 22.75 11.3239 22.6678 11.0218 22.5104C10.7198 22.353 10.4602 22.1251 10.265 21.846C10.2086 21.761 10.1321 21.6913 10.0422 21.6431C9.95238 21.5949 9.85198 21.5696 9.75 21.5696C9.64802 21.5696 9.54762 21.5949 9.45776 21.6431C9.3679 21.6913 9.29137 21.761 9.235 21.846C9.03985 22.1251 8.78023 22.353 8.47818 22.5104C8.17614 22.6678 7.84058 22.75 7.5 22.75C7.15942 22.75 6.82386 22.6678 6.52182 22.5104C6.21977 22.353 5.96015 22.1251 5.765 21.846L5.332 21.241C5.32199 21.2237 5.30701 21.2097 5.289 21.201C5.27666 21.1958 5.2634 21.1931 5.25 21.1931C5.2366 21.1931 5.22334 21.1958 5.211 21.201C5.19299 21.2097 5.17801 21.2237 5.168 21.241C4.9704 21.5253 4.68488 21.7369 4.35533 21.8431C4.02578 21.9493 3.67046 21.9444 3.344 21.829C3.02027 21.7147 2.74055 21.5018 2.54428 21.2201C2.34801 20.9384 2.24508 20.6023 2.25 20.259V5.46C2.25 5.172 2.25 4.98 2.264 4.812C2.419 2.954 3.832 1.435 5.67 1.266C5.835 1.251 6.022 1.251 6.294 1.251M6.334 2.751C6.007 2.751 5.894 2.751 5.807 2.76C4.745 2.857 3.857 3.751 3.759 4.937C3.74944 5.12384 3.74644 5.31095 3.75 5.498V20.26C3.75 20.32 3.767 20.352 3.779 20.369C3.79367 20.3897 3.81367 20.4043 3.839 20.413C3.85598 20.4191 3.8743 20.4205 3.892 20.417C3.897 20.416 3.918 20.409 3.948 20.368C4.09464 20.1588 4.28953 19.988 4.51617 19.8701C4.74281 19.7522 4.99452 19.6906 5.25 19.6906C5.50548 19.6906 5.75719 19.7522 5.98383 19.8701C6.21047 19.988 6.40536 20.1588 6.552 20.368L6.985 20.974C7.04137 21.059 7.1179 21.1287 7.20776 21.1769C7.29762 21.2251 7.39802 21.2504 7.5 21.2504C7.60198 21.2504 7.70238 21.2251 7.79224 21.1769C7.8821 21.1287 7.95863 21.059 8.015 20.974C8.21015 20.6949 8.46977 20.467 8.77182 20.3096C9.07386 20.1522 9.40942 20.07 9.75 20.07C10.0906 20.07 10.4261 20.1522 10.7282 20.3096C11.0302 20.467 11.2898 20.6949 11.485 20.974C11.5414 21.059 11.6179 21.1287 11.7078 21.1769C11.7976 21.2251 11.898 21.2504 12 21.2504C12.102 21.2504 12.2024 21.2251 12.2922 21.1769C12.3821 21.1287 12.4586 21.059 12.515 20.974C12.7102 20.6949 12.9698 20.467 13.2718 20.3096C13.5739 20.1522 13.9094 20.07 14.25 20.07C14.5906 20.07 14.9261 20.1522 15.2282 20.3096C15.5302 20.467 15.7898 20.6949 15.985 20.974C16.0414 21.059 16.1179 21.1287 16.2078 21.1769C16.2976 21.2251 16.398 21.2504 16.5 21.2504C16.602 21.2504 16.7024 21.2251 16.7922 21.1769C16.8821 21.1287 16.9586 21.059 17.015 20.974L17.448 20.368C17.5946 20.1588 17.7895 19.988 18.0162 19.8701C18.2428 19.7522 18.4945 19.6906 18.75 19.6906C19.0055 19.6906 19.2572 19.7522 19.4838 19.8701C19.7105 19.988 19.9054 20.1588 20.052 20.368C20.082 20.41 20.102 20.416 20.108 20.417C20.118 20.42 20.136 20.422 20.161 20.413C20.1849 20.4045 20.2057 20.3892 20.221 20.369C20.2411 20.3359 20.2512 20.2977 20.25 20.259V5.498C20.25 5.158 20.25 5.034 20.241 4.937C20.142 3.751 19.255 2.857 18.193 2.76C18.0178 2.75041 17.8424 2.74741 17.667 2.751H6.334ZM9.47 7.47C9.61063 7.32955 9.80125 7.25066 10 7.25066C10.1988 7.25066 10.3894 7.32955 10.53 7.47L12 8.94L13.47 7.47C13.6122 7.33752 13.8002 7.2654 13.9945 7.26883C14.1888 7.27225 14.3742 7.35097 14.5116 7.48838C14.649 7.62579 14.7277 7.81118 14.7312 8.00548C14.7346 8.19978 14.6625 8.38783 14.53 8.53L13.06 10L14.53 11.47C14.6037 11.5387 14.6628 11.6215 14.7038 11.7135C14.7448 11.8055 14.7668 11.9048 14.7686 12.0055C14.7704 12.1062 14.7518 12.2062 14.7141 12.2996C14.6764 12.393 14.6203 12.4778 14.549 12.549C14.4778 12.6203 14.393 12.6764 14.2996 12.7141C14.2062 12.7518 14.1062 12.7704 14.0055 12.7686C13.9048 12.7668 13.8055 12.7448 13.7135 12.7038C13.6215 12.6628 13.5387 12.6037 13.47 12.53L12 11.06L10.53 12.53C10.3878 12.6625 10.1998 12.7346 10.0055 12.7312C9.81118 12.7277 9.62579 12.649 9.48838 12.5116C9.35097 12.3742 9.27225 12.1888 9.26883 11.9945C9.2654 11.8002 9.33752 11.6122 9.47 11.47L10.94 10L9.47 8.53C9.32955 8.38937 9.25066 8.19875 9.25066 8C9.25066 7.80125 9.32955 7.61063 9.47 7.47ZM6.75 15.5C6.75 15.3011 6.82902 15.1103 6.96967 14.9697C7.11032 14.829 7.30109 14.75 7.5 14.75H16.5C16.6989 14.75 16.8897 14.829 17.0303 14.9697C17.171 15.1103 17.25 15.3011 17.25 15.5C17.25 15.6989 17.171 15.8897 17.0303 16.0303C16.8897 16.171 16.6989 16.25 16.5 16.25H7.5C7.30109 16.25 7.11032 16.171 6.96967 16.0303C6.82902 15.8897 6.75 15.6989 6.75 15.5Z" fill="#6C737F"/>
</g>
<defs>
<clipPath id="clip0_2234_36094">
<rect width="24" height="24" fill="white"/>
</clipPath>
</defs>
</svg>
