<svg width="24" height="24" viewBox="0 0 24 24" fill="none" xmlns="http://www.w3.org/2000/svg">
<path d="M11.9996 1.5C12.4588 1.5 12.8287 1.50008 13.1285 1.52051C13.4327 1.54124 13.702 1.58498 13.9566 1.69043L14.1783 1.79492C14.3949 1.91065 14.5939 2.05816 14.7681 2.23242C15.0003 2.46465 15.1845 2.74054 15.3101 3.04395H15.3092C15.4054 3.27522 15.4514 3.52042 15.4742 3.79492L15.4908 4.08008V4.08594L15.5035 4.22754C15.5246 4.3669 15.5717 4.50154 15.6431 4.62402C15.7372 4.78511 15.8705 4.91989 16.0299 5.0166C16.194 5.10729 16.3784 5.15627 16.566 5.15723C16.7552 5.15812 16.9419 5.11111 17.108 5.02051L17.1138 5.0166L17.3697 4.88867C17.6193 4.77131 17.8537 4.68827 18.1011 4.65527L18.3463 4.63477C18.5914 4.62668 18.8369 4.65512 19.0748 4.71875C19.3128 4.78248 19.5401 4.88111 19.7486 5.01074L19.9508 5.15039L19.9517 5.15137L20.107 5.28516C20.2553 5.42721 20.3837 5.59347 20.5113 5.7832C20.6789 6.03245 20.8633 6.35245 21.0933 6.75H21.0943L21.4039 7.29199C21.4951 7.4552 21.5742 7.60247 21.6402 7.7373C21.7408 7.94282 21.8201 8.13799 21.8687 8.33789L21.9068 8.54004L21.9273 8.78418C21.9354 9.02953 21.9071 9.27567 21.8433 9.51367C21.7584 9.83074 21.6115 10.1282 21.4117 10.3887L21.4107 10.3877C21.2075 10.6529 20.9373 10.853 20.606 11.0625L20.6041 11.0635C20.2666 11.2747 20.0646 11.6244 20.0621 11.9932L20.0728 12.1338C20.0926 12.2738 20.139 12.4097 20.2095 12.5332C20.2799 12.6563 20.3728 12.7646 20.483 12.8525L20.5992 12.9336L20.6051 12.9375L20.8433 13.0947C21.0314 13.2254 21.1943 13.3591 21.3316 13.5146L21.4107 13.6104L21.4117 13.6113L21.5513 13.8135C21.6809 14.0219 21.7796 14.2485 21.8433 14.4863C21.9282 14.8034 21.9497 15.1345 21.9068 15.46C21.8713 15.7343 21.7744 15.99 21.6402 16.2637C21.5079 16.5334 21.3226 16.853 21.0933 17.25C20.8638 17.6475 20.6788 17.9673 20.5113 18.2168C20.3838 18.4066 20.2556 18.5737 20.107 18.7158L19.9508 18.8496C19.6902 19.0495 19.392 19.1963 19.0748 19.2812C18.8369 19.3449 18.5914 19.3733 18.3463 19.3652L18.1011 19.3447C17.771 19.3007 17.464 19.1679 17.1138 18.9824L17.108 18.9795C16.9418 18.8889 16.7553 18.8418 16.566 18.8428C16.3787 18.8437 16.1948 18.892 16.0308 18.9824L15.9166 19.0596C15.698 19.2287 15.55 19.4826 15.5045 19.7725L15.4908 19.9199C15.478 20.2664 15.4465 20.5644 15.3541 20.8389L15.3101 20.9561C15.1845 21.2595 15.0003 21.5353 14.7681 21.7676C14.5939 21.9418 14.3949 22.0894 14.1783 22.2051L13.9566 22.3096C13.702 22.415 13.4327 22.4588 13.1285 22.4795C12.8287 22.4999 12.4588 22.5 11.9996 22.5C11.5406 22.5 11.1714 22.4999 10.8717 22.4795C10.6435 22.4639 10.4352 22.4357 10.2379 22.3779L10.0435 22.3096C9.74015 22.1839 9.4642 21.9998 9.23201 21.7676C8.99983 21.5353 8.81562 21.2595 8.69001 20.9561V20.9551C8.59407 20.7241 8.5487 20.4791 8.52595 20.2051L8.50935 19.9199C8.49504 19.5206 8.29147 19.1697 7.96931 18.9824C7.80539 18.892 7.62144 18.8438 7.43416 18.8428C7.24469 18.8418 7.05749 18.8887 6.89119 18.9795L6.8863 18.9824C6.53612 19.1679 6.22911 19.3007 5.899 19.3447H5.89802C5.57259 19.3876 5.24147 19.3661 4.92439 19.2812C4.68652 19.2175 4.45992 19.1188 4.25154 18.9893L4.04939 18.8496L4.04841 18.8486C3.83065 18.6806 3.65889 18.4697 3.48884 18.2168C3.40504 18.0922 3.31714 17.9498 3.22126 17.7891L2.90584 17.25C2.67682 16.8526 2.49199 16.5325 2.35994 16.2627C2.25938 16.0572 2.18009 15.862 2.13142 15.6621L2.09334 15.46C2.05046 15.1345 2.07192 14.8034 2.15681 14.4863C2.22054 14.2485 2.31925 14.0219 2.4488 13.8135L2.58845 13.6113C2.79161 13.3462 3.06292 13.1469 3.39412 12.9375L3.39607 12.9365L3.51619 12.8506C3.78277 12.6357 3.93806 12.3251 3.93806 12C3.93806 11.6751 3.78306 11.3642 3.51619 11.1484L3.39509 11.0625C3.10346 10.879 2.86093 10.7033 2.66853 10.4854L2.58943 10.3896L2.58845 10.3887C2.38865 10.1282 2.24176 9.83074 2.15681 9.51367C2.07192 9.1966 2.05046 8.86546 2.09334 8.54004C2.1289 8.26575 2.22571 8.00996 2.35994 7.73633C2.49227 7.46661 2.67755 7.14703 2.90681 6.75C3.13651 6.35222 3.32119 6.03257 3.48884 5.7832C3.65897 5.5302 3.83146 5.31926 4.04841 5.15137L4.04939 5.15039L4.25349 5.00977C4.74187 4.70676 5.32222 4.57972 5.89705 4.65527H5.89802L6.02107 4.67578C6.22492 4.71672 6.42245 4.79071 6.63044 4.88867L6.8863 5.01758L6.89119 5.02051L7.02009 5.08008C7.15156 5.13153 7.29213 5.15795 7.43416 5.15723C7.62132 5.15625 7.80449 5.10693 7.96834 5.0166C8.12834 4.91983 8.26268 4.78557 8.35701 4.62402C8.45242 4.46051 8.50485 4.27521 8.50935 4.08594V4.0791L8.52595 3.79395C8.54908 3.51935 8.59507 3.27409 8.69001 3.04395L8.79548 2.82129C8.91111 2.60503 9.05799 2.40648 9.23201 2.23242C9.4642 2.00023 9.74015 1.81607 10.0435 1.69043L10.2379 1.62207C10.4352 1.56434 10.6435 1.53605 10.8717 1.52051C11.1714 1.50009 11.5406 1.5 11.9996 1.5ZM14.4996 12C14.4996 10.6193 13.3803 9.5 11.9996 9.5C10.6191 9.50024 9.49959 10.6194 9.49959 12C9.49959 13.3806 10.6191 14.4998 11.9996 14.5C13.3803 14.5 14.4996 13.3807 14.4996 12ZM4.93806 12C4.93806 12.7447 4.53274 13.4047 3.92634 13.7842L3.92537 13.7832C3.61673 13.9785 3.47297 14.1016 3.3824 14.2197L3.38142 14.2207C3.26168 14.3769 3.17356 14.555 3.12263 14.7451C3.07172 14.9353 3.05886 15.1339 3.08455 15.3291L3.1031 15.4258C3.12798 15.5279 3.17465 15.6521 3.25837 15.8232C3.37202 16.0555 3.53635 16.341 3.77205 16.75L4.07966 17.2773C4.16867 17.4267 4.24672 17.5518 4.31892 17.6592C4.46067 17.8699 4.56269 17.9818 4.65974 18.0566H4.65876C4.81494 18.1764 4.99309 18.2645 5.18318 18.3154C5.37335 18.3663 5.57198 18.3792 5.76716 18.3535L5.8863 18.3291C5.97223 18.3062 6.0727 18.2686 6.20173 18.208L6.41755 18.0996C6.73106 17.9296 7.08232 17.841 7.43904 17.8428C7.75295 17.8444 8.0622 17.9156 8.34431 18.0508L8.46345 18.1123L8.47029 18.1162L8.58748 18.1895C9.15809 18.5738 9.48422 19.2125 9.50837 19.8838L9.52302 20.126C9.53497 20.2679 9.5519 20.3731 9.57478 20.458L9.61384 20.5723V20.5742L9.67732 20.707C9.74669 20.8368 9.83463 20.9561 9.93904 21.0605C10.0784 21.1999 10.2442 21.3104 10.4263 21.3857L10.5181 21.418C10.6189 21.4475 10.7497 21.4695 10.94 21.4824C11.1978 21.5 11.5272 21.5 11.9996 21.5C12.4722 21.5 12.8022 21.5 13.0601 21.4824C13.3136 21.4652 13.4614 21.4323 13.5738 21.3857L13.7076 21.3232C13.8374 21.2538 13.9567 21.165 14.0611 21.0605C14.2003 20.9213 14.311 20.7561 14.3863 20.5742L14.4244 20.459C14.459 20.3305 14.4817 20.1567 14.4918 19.8838L14.5006 19.75C14.5648 19.0844 14.9271 18.465 15.5308 18.1162L15.5367 18.1123L15.6558 18.0508C15.9379 17.9157 16.2472 17.8444 16.5611 17.8428C16.9175 17.841 17.2683 17.9298 17.5816 18.0996L17.7984 18.208C17.9916 18.2988 18.1206 18.3385 18.233 18.3535H18.232C18.4273 18.3793 18.6266 18.3664 18.817 18.3154C19.0071 18.2645 19.1852 18.1764 19.3414 18.0566L19.4156 17.9932C19.4915 17.9206 19.5749 17.8175 19.6812 17.6592C19.8254 17.4444 19.9908 17.1593 20.2271 16.75C20.4635 16.3406 20.6279 16.0553 20.7418 15.8232C20.8536 15.5952 20.9001 15.4514 20.9156 15.3311V15.3301L20.9273 15.1826C20.9322 15.0355 20.9157 14.8878 20.8775 14.7451C20.8266 14.555 20.7385 14.3769 20.6187 14.2207V14.2217C20.5269 14.1026 20.3833 13.9802 20.0787 13.7881L19.9664 13.7148C19.7101 13.5356 19.496 13.3009 19.3404 13.0283C19.1627 12.7169 19.0671 12.3653 19.0621 12.0068V12L19.067 11.8613C19.1106 11.2198 19.4547 10.653 19.9625 10.291L20.0738 10.2158C20.3826 10.0204 20.5272 9.89848 20.6178 9.78027L20.6187 9.7793L20.7017 9.6582C20.7794 9.53319 20.8393 9.39757 20.8775 9.25488C20.9284 9.06473 20.9413 8.86607 20.9156 8.6709L20.897 8.57422C20.8722 8.47207 20.8255 8.34788 20.7418 8.17676C20.685 8.06078 20.6154 7.93159 20.5308 7.78027L20.2281 7.25C19.9913 6.8408 19.8256 6.55549 19.6812 6.34082C19.5395 6.13006 19.4375 6.01824 19.3404 5.94336V5.94238C19.1845 5.82307 19.0066 5.73538 18.817 5.68457C18.6266 5.63361 18.4273 5.61973 18.232 5.64551L18.233 5.64648C18.083 5.6665 17.9038 5.73068 17.5806 5.90137L17.5797 5.90039C17.2666 6.06978 16.9161 6.15905 16.5601 6.15723C16.2019 6.15534 15.8495 6.06247 15.5367 5.8877L15.525 5.88086C15.2171 5.69731 14.9607 5.43841 14.7799 5.12891C14.5991 4.81938 14.4994 4.46867 14.4908 4.11035V4.10938C14.4772 3.74854 14.4432 3.56417 14.3863 3.42773V3.42578C14.311 3.2439 14.2003 3.07869 14.0611 2.93945C13.9567 2.83499 13.8374 2.74616 13.7076 2.67676L13.5738 2.61426C13.4614 2.56772 13.3136 2.53485 13.0601 2.51758C12.8022 2.50003 12.4722 2.5 11.9996 2.5C11.5272 2.5 11.1978 2.50004 10.94 2.51758C10.7497 2.53054 10.6189 2.55247 10.5181 2.58203L10.4263 2.61426C10.2442 2.68964 10.0784 2.80009 9.93904 2.93945C9.83463 3.04391 9.74669 3.16319 9.67732 3.29297L9.61384 3.42578C9.55693 3.56385 9.52197 3.75116 9.50837 4.10938L9.50935 4.11035C9.50076 4.46867 9.40102 4.81938 9.22029 5.12891C9.03949 5.43842 8.78306 5.69731 8.47517 5.88086L8.46345 5.8877C8.15043 6.06275 7.79768 6.1554 7.43904 6.15723C7.08217 6.15903 6.73116 6.06962 6.41755 5.89941V5.90039C6.09618 5.73017 5.91691 5.6665 5.76619 5.64648V5.64551C5.37237 5.59394 4.97401 5.70174 4.65876 5.94336C4.56211 6.01845 4.46015 6.1308 4.31892 6.34082C4.17462 6.55542 4.00924 6.84093 3.77302 7.25C3.53648 7.65963 3.37129 7.94461 3.2574 8.17676C3.14554 8.40479 3.10009 8.5486 3.08455 8.66895V8.66992C3.05877 8.86526 3.07167 9.06455 3.12263 9.25488C3.17344 9.44453 3.26113 9.62241 3.38044 9.77832H3.38142C3.47381 9.89818 3.61863 10.0216 3.92732 10.2158L4.03767 10.29C4.58146 10.6786 4.93806 11.3016 4.93806 12ZM15.4996 12C15.4996 13.933 13.9326 15.5 11.9996 15.5C10.0668 15.4998 8.49959 13.9328 8.49959 12C8.49959 10.0672 10.0668 8.50024 11.9996 8.5C13.9326 8.5 15.4996 10.067 15.4996 12Z" fill="#6C737F"/>
</svg>
