<svg width="24" height="24" viewBox="0 0 24 24" fill="none" xmlns="http://www.w3.org/2000/svg">
<g clip-path="url(#clip0_20_310)">
<path fill-rule="evenodd" clip-rule="evenodd" d="M6.75 7.99999C6.74826 6.72097 7.21348 5.4853 8.05833 4.52502C8.90317 3.56474 10.0695 2.94589 11.3383 2.7847C12.6072 2.6235 13.8912 2.93104 14.9493 3.64956C16.0074 4.36808 16.7669 5.44817 17.085 6.68699C17.1391 6.87458 17.2641 7.0337 17.4336 7.13054C17.6031 7.22739 17.8037 7.25432 17.9928 7.20563C18.1818 7.15694 18.3444 7.03645 18.446 6.86977C18.5477 6.70309 18.5803 6.50335 18.537 6.31299C18.1273 4.72109 17.1508 3.33338 15.7908 2.41025C14.4307 1.48712 12.7805 1.092 11.1498 1.29904C9.51912 1.50609 8.02003 2.30105 6.93379 3.53478C5.84756 4.76852 5.24885 6.35622 5.25 7.99999V9.30299C5.02333 9.31833 4.80933 9.33966 4.608 9.36699C3.708 9.48699 2.95 9.74699 2.348 10.348C1.746 10.95 1.488 11.708 1.367 12.608C1.25 13.475 1.25 14.578 1.25 15.945V16.055C1.25 17.422 1.25 18.525 1.367 19.392C1.487 20.292 1.747 21.05 2.348 21.652C2.95 22.254 3.708 22.512 4.608 22.634C5.475 22.75 6.578 22.75 7.945 22.75H16.055C17.422 22.75 18.525 22.75 19.392 22.634C20.292 22.512 21.05 22.254 21.652 21.652C22.254 21.05 22.512 20.292 22.634 19.392C22.75 18.525 22.75 17.422 22.75 16.055V15.945C22.75 14.578 22.75 13.475 22.634 12.608C22.512 11.708 22.254 10.95 21.652 10.348C21.05 9.74599 20.292 9.48799 19.392 9.36699C18.525 9.24999 17.422 9.24999 16.055 9.24999H7.945C7.52233 9.24999 7.124 9.25099 6.75 9.25299V7.99999ZM3.409 11.409C3.686 11.132 4.074 10.952 4.809 10.853C5.563 10.752 6.565 10.75 8 10.75H16C17.435 10.75 18.436 10.752 19.192 10.853C19.926 10.952 20.314 11.133 20.591 11.409C20.868 11.686 21.048 12.074 21.147 12.809C21.248 13.564 21.25 14.565 21.25 16C21.25 17.435 21.248 18.436 21.147 19.192C21.048 19.926 20.867 20.314 20.591 20.591C20.314 20.868 19.926 21.048 19.191 21.147C18.436 21.248 17.435 21.25 16 21.25H8C6.565 21.25 5.563 21.248 4.808 21.147C4.074 21.048 3.686 20.867 3.409 20.591C3.132 20.314 2.952 19.926 2.853 19.191C2.752 18.436 2.75 17.435 2.75 16C2.75 14.565 2.752 13.563 2.853 12.808C2.952 12.074 3.133 11.686 3.409 11.409Z" fill="#6C737F"/>
</g>
<defs>
<clipPath id="clip0_20_310">
<rect width="24" height="24" fill="white"/>
</clipPath>
</defs>
</svg>
