<svg width="24" height="24" viewBox="0 0 24 24" fill="none" xmlns="http://www.w3.org/2000/svg">
<g clip-path="url(#clip0_2324_56527)">
<path fill-rule="evenodd" clip-rule="evenodd" d="M12 22C17.5444 22 22 17.5444 22 12C22 6.45556 17.5444 2 12 2C6.45556 2 2 6.45556 2 12C2 17.5444 6.45556 22 12 22ZM14.75 13.58C14.75 12.1244 13.8756 11.6244 12.1256 11.4178C10.8756 11.2489 10.6256 10.9178 10.6256 10.3311C10.6256 9.75 11.0444 9.37556 11.8756 9.37556C12.6256 9.37556 13.0444 9.62444 13.25 10.25C13.2944 10.3744 13.4189 10.4556 13.5444 10.4556H14.2067C14.245 10.4568 14.2833 10.4502 14.319 10.4362C14.3548 10.4222 14.3874 10.4012 14.4148 10.3743C14.4422 10.3474 14.4639 10.3152 14.4785 10.2798C14.4932 10.2443 14.5005 10.2062 14.5 10.1678V10.1244C14.3311 9.20556 13.5811 8.33111 12.6256 8.25V7.33111C12.6256 7.16222 12.5 7.03667 12.2944 7H11.7444C11.5756 7 11.4189 7.12444 11.3756 7.33111V8.25C10.1256 8.41778 9.29444 9.37444 9.29444 10.4178C9.29444 11.7933 10.1256 12.3311 11.8756 12.5433C13.0444 12.7489 13.42 12.9989 13.42 13.6678C13.42 14.3311 12.8311 14.7933 12.0444 14.7933C10.9556 14.7933 10.5822 14.3311 10.4567 13.7056C10.4189 13.5433 10.2944 13.4556 10.1689 13.4556H9.45667C9.41827 13.4551 9.38018 13.4624 9.34469 13.477C9.3092 13.4917 9.27704 13.5134 9.25015 13.5408C9.22326 13.5682 9.2022 13.6008 9.18823 13.6365C9.17427 13.6723 9.16769 13.7105 9.16889 13.7489V13.7933C9.33111 14.8311 10 15.5433 11.3756 15.7489V16.6744C11.3756 16.8433 11.5 16.9556 11.7067 17H12.3067C12.4689 17 12.5822 16.8867 12.6256 16.6744V15.7489C13.8756 15.5433 14.75 14.7056 14.75 13.58ZM7.79222 16.6944C8.39682 17.2479 9.10482 17.6765 9.87556 17.9556C10 18.0433 10.1256 18.2056 10.1256 18.3311V18.9178C10.1256 18.9989 10.1256 19.0433 10.0811 19.08C10.0444 19.2489 9.87556 19.33 9.70667 19.2489C8.1907 18.7656 6.8677 17.8127 5.92889 16.528C4.99008 15.2433 4.48411 13.6934 4.48411 12.1022C4.48411 10.5111 4.99008 8.96113 5.92889 7.67645C6.8677 6.39176 8.1907 5.43889 9.70667 4.95556C9.75111 4.91778 9.83111 4.91778 9.87556 4.91778C10.0444 4.95556 10.1256 5.08111 10.1256 5.24889V5.83111C10.1256 6.04222 10.0444 6.16778 9.87556 6.24889C9.02336 6.5565 8.24941 7.04811 7.60876 7.68876C6.96811 8.32941 6.4765 9.10336 6.16889 9.95556C5.73892 11.1129 5.6636 12.372 5.95254 13.5723C6.24149 14.7726 6.88158 15.8596 7.79111 16.6944M13.9178 5.12444C13.9556 4.95556 14.1244 4.87444 14.2933 4.95556C15.4391 5.3275 16.4793 5.96801 17.3273 6.82367C18.1752 7.67933 18.8063 8.72534 19.1678 9.87444C20.4178 13.83 18.2489 18.0433 14.2933 19.2933C14.2489 19.33 14.1678 19.33 14.1244 19.33C13.9556 19.2933 13.8744 19.1678 13.8744 18.9989V18.4178C13.8744 18.2056 13.9556 18.0811 14.1244 17.9989C14.9763 17.6913 15.75 17.1998 16.3904 16.5593C17.0309 15.9189 17.5224 15.1452 17.83 14.2933C18.1159 13.525 18.2468 12.7077 18.215 11.8886C18.1832 11.0694 17.9895 10.2647 17.6449 9.52086C17.3004 8.77702 16.8119 8.10881 16.2076 7.55484C15.6034 7.00087 14.8953 6.57211 14.1244 6.29333C13.9989 6.20556 13.8744 6.04333 13.8744 5.87444V5.29333C13.8744 5.20556 13.8744 5.16778 13.9189 5.12444" fill="#6C737F"/>
</g>
<defs>
<clipPath id="clip0_2324_56527">
<rect width="24" height="24" fill="white"/>
</clipPath>
</defs>
</svg>
