<svg width="24" height="24" viewBox="0 0 24 24" fill="none" xmlns="http://www.w3.org/2000/svg">
<g clip-path="url(#clip0_2324_56431)">
<path d="M10.1346 11.2179V7.37152H5.14502V4H19.0878V7.419H14.0982V11.2179H10.1346Z" fill="#6C737F"/>
<path d="M12 9.31852C16.9895 9.31854 21 10.3634 21 11.6455C20.9997 12.9275 16.9893 13.9725 12 13.9725C7.01067 13.9725 3.00034 12.9276 3 11.6455C3 10.3634 7.01046 9.31852 12 9.31852ZM12 9.69835C6.7773 9.69835 4.07251 11.1232 3.74609 11.6455C4.07298 12.1204 6.77785 12.832 12 12.832C17.2692 12.832 19.9275 12.1204 20.2539 11.6455C19.9275 11.1707 17.2226 9.69839 12 9.69835Z" fill="#6C737F"/>
<path d="M14.0983 12.405V9.74574C13.4454 9.69826 12.746 9.65077 12.0465 9.65077C11.3937 9.65077 10.7875 9.65077 10.1813 9.69826V12.3575C10.7408 12.3575 11.3937 12.405 12.0465 12.405C12.746 12.4525 13.4454 12.4525 14.0983 12.405Z" fill="#6C737F"/>
<path d="M12 13.9725C11.3472 13.9725 10.7408 13.9721 10.1346 13.9246V21H14.0516V13.8771C13.3988 13.9246 12.6995 13.9725 12 13.9725Z" fill="#6C737F"/>
</g>
<defs>
<clipPath id="clip0_2324_56431">
<rect width="24" height="24" fill="white"/>
</clipPath>
</defs>
</svg>
