<svg width="24" height="24" viewBox="0 0 24 24" fill="none" xmlns="http://www.w3.org/2000/svg">
<path d="M21.5 12C21.5 6.75329 17.2467 2.5 12 2.5C6.75329 2.5 2.5 6.75329 2.5 12C2.5 14.7893 3.7018 17.2982 5.61621 19.0361C5.76223 17.9151 6.09188 16.8733 6.86816 16.0684C7.86328 15.0365 9.48192 14.5 12 14.5C14.5181 14.5 16.1367 15.0365 17.1318 16.0684C17.9081 16.8733 18.2368 17.9152 18.3828 19.0361C20.2975 17.2982 21.5 14.7896 21.5 12ZM12 15.5C9.59308 15.5 8.30653 16.0175 7.58789 16.7627C6.90639 17.4694 6.64166 18.4761 6.54688 19.7773C8.09051 20.8617 9.97029 21.5 12 21.5C14.0294 21.5 15.9086 20.8614 17.4521 19.7773C17.3574 18.4761 17.0936 17.4694 16.4121 16.7627C15.6935 16.0175 14.4069 15.5 12 15.5ZM14.5 9C14.5 7.61929 13.3807 6.5 12 6.5C10.6193 6.5 9.5 7.61929 9.5 9C9.5 10.3807 10.6193 11.5 12 11.5C13.3807 11.5 14.5 10.3807 14.5 9ZM22.5 12C22.5 17.799 17.799 22.5 12 22.5C6.20101 22.5 1.5 17.799 1.5 12C1.5 6.20101 6.20101 1.5 12 1.5C17.799 1.5 22.5 6.20101 22.5 12ZM15.5 9C15.5 10.933 13.933 12.5 12 12.5C10.067 12.5 8.5 10.933 8.5 9C8.5 7.067 10.067 5.5 12 5.5C13.933 5.5 15.5 7.067 15.5 9Z" fill="#6C737F"/>
</svg>
