<svg width="24" height="24" viewBox="0 0 24 24" fill="none" xmlns="http://www.w3.org/2000/svg">
<path d="M15 10C15.7956 10 16.5587 9.68393 17.1213 9.12132C17.6839 8.55871 18 7.79565 18 7C18 6.20435 17.6839 5.44129 17.1213 4.87868C16.5587 4.31607 15.7956 4 15 4M18 15C19.754 15.385 21 16.359 21 17.5C21 18.53 19.986 19.423 18.5 19.87M13 7C13 9.20914 11.2091 11 9 11C6.79086 11 5 9.20914 5 7C5 4.79086 6.79086 3 9 3C11.2091 3 13 4.79086 13 7ZM16 18C16 20.2091 12.866 22 9 22C5.13401 22 2 20.2091 2 18C2 15.7909 5.13401 14 9 14C12.866 14 16 15.7909 16 18Z" stroke="#6C737F" stroke-linecap="round"/>
</svg>
