<svg width="24" height="24" viewBox="0 0 24 24" fill="none" xmlns="http://www.w3.org/2000/svg">
<path d="M9.00101 10C11.2101 10 13.001 8.20914 13.001 6C13.001 3.79086 11.2101 2 9.00101 2C6.79187 2 5.00101 3.79086 5.00101 6C5.00101 8.20914 6.79187 10 9.00101 10Z" fill="#101010"/>
<path d="M9.00101 21.001C12.867 21.001 16.001 19.2101 16.001 17.001C16.001 14.7918 12.867 13.001 9.00101 13.001C5.13501 13.001 2.00101 14.7918 2.00101 17.001C2.00101 19.2101 5.13501 21.001 9.00101 21.001Z" fill="#101010"/>
<path d="M21 17C21 18.657 18.964 20 16.479 20C17.211 19.2 17.715 18.195 17.715 17.002C17.715 15.807 17.21 14.802 16.476 14.001C18.962 14 21 15.344 21 17ZM18 6.00002C18.0003 6.48273 17.8842 6.9584 17.6614 7.38663C17.4386 7.81485 17.1157 8.183 16.7203 8.4598C16.3248 8.7366 15.8684 8.91388 15.3898 8.97659C14.9111 9.0393 14.4244 8.98559 13.971 8.82002C14.459 7.96035 14.7151 6.98854 14.714 6.00002C14.714 4.97502 14.444 4.01302 13.972 3.18102C14.4254 3.01565 14.912 2.9621 15.3905 3.02491C15.8689 3.08772 16.3252 3.26503 16.7206 3.54181C17.1159 3.81859 17.4386 4.18665 17.6614 4.61477C17.8841 5.04289 18.0003 5.51742 18 6.00002Z" fill="#101010"/>
</svg>
