<svg width="24" height="24" viewBox="0 0 24 24" fill="none" xmlns="http://www.w3.org/2000/svg">
<path d="M14.5 12C14.5 10.0326 16.2058 8.5 18.2314 8.5H20.4355C20.3399 7.07474 20.1073 6.24256 19.5938 5.65332L19.4746 5.52539C18.9975 5.0479 18.3561 4.78064 17.3223 4.6416C16.2741 4.50065 14.8996 4.5 13 4.5H10C8.10045 4.5 6.72589 4.50065 5.67773 4.6416C4.64394 4.78064 4.00248 5.0479 3.52539 5.52539C3.04824 6.00303 2.78173 6.6444 2.64258 7.67773C2.50149 8.72577 2.5 10.1004 2.5 12C2.5 13.8996 2.50065 15.2741 2.6416 16.3223C2.78064 17.3561 3.0479 17.9975 3.52539 18.4746C4.00303 18.9518 4.64441 19.2183 5.67773 19.3574C6.72577 19.4985 8.10044 19.5 10 19.5H13C14.8996 19.5 16.2741 19.4994 17.3223 19.3584C18.3561 19.2194 18.9975 18.9521 19.4746 18.4746L19.5938 18.3467C20.1074 17.7574 20.3404 16.925 20.4355 15.5H18.2305C16.2069 15.5 14.5 13.9674 14.5 12ZM6.5 15V9C6.5 8.72386 6.72386 8.5 7 8.5C7.27614 8.5 7.5 8.72386 7.5 9V15C7.5 15.2761 7.27614 15.5 7 15.5C6.72386 15.5 6.5 15.2761 6.5 15ZM18.001 11.5L18.1016 11.5098C18.3295 11.5563 18.501 11.7583 18.501 12C18.501 12.2417 18.3295 12.4437 18.1016 12.4902L18.001 12.5H17.9912C17.7151 12.5 17.4912 12.2761 17.4912 12C17.4912 11.7239 17.7151 11.5 17.9912 11.5H18.001ZM15.5 12C15.5 13.3466 16.6881 14.5 18.2305 14.5H20.833C20.9211 14.5 20.9458 14.4999 20.9629 14.499L21.0762 14.4824C21.329 14.423 21.4854 14.2247 21.499 14.0303C21.4996 14.0174 21.5 13.9942 21.5 13.917V10.083C21.5 10.0077 21.4996 9.98382 21.499 9.9707L21.4844 9.8877C21.4307 9.69411 21.2413 9.51814 20.9629 9.50098V9.5H18.2314C16.6871 9.5 15.5 10.6534 15.5 12ZM22.5 13.917C22.5 13.986 22.5003 14.0443 22.4971 14.0957V14.0996C22.4529 14.7314 22.0125 15.2262 21.4424 15.416C21.3517 16.9746 21.1058 18.1302 20.3525 18.998L20.1816 19.1816C19.4878 19.876 18.6005 20.1947 17.4561 20.3486C16.3257 20.5007 14.8714 20.5 13 20.5H10C8.1287 20.5 6.6751 20.5008 5.54492 20.3486C4.40033 20.1945 3.51265 19.8753 2.81836 19.1816C2.12405 18.4878 1.80534 17.6005 1.65137 16.4561C1.49934 15.3257 1.5 13.8714 1.5 12C1.5 10.1287 1.49924 8.6751 1.65137 7.54492C1.80546 6.40033 2.12466 5.51265 2.81836 4.81836C3.51216 4.12405 4.39955 3.80534 5.54395 3.65137C6.67427 3.49934 8.12864 3.5 10 3.5H13C14.8714 3.5 16.3257 3.49934 17.4561 3.65137C18.6005 3.80534 19.4878 4.12405 20.1816 4.81836L20.3525 5.00195C21.1056 5.86975 21.3501 7.02523 21.4414 8.58301C21.9681 8.75798 22.3831 9.19373 22.4795 9.75586L22.4971 9.89941V9.9043L22.5 10.083V13.917Z" fill="#6C737F"/>
</svg>
