<svg width="24" height="24" viewBox="0 0 24 24" fill="none" xmlns="http://www.w3.org/2000/svg">
<g clip-path="url(#clip0_2476_1851)">
<path fill-rule="evenodd" clip-rule="evenodd" d="M2.02802 11.25C2.21719 8.73474 3.34991 6.38388 5.19918 4.6685C7.04845 2.95313 9.47765 1.99996 12 2C11.17 2 10.43 2.364 9.82001 2.921C9.21501 3.475 8.70402 4.249 8.29002 5.163C7.87402 6.083 7.55001 7.159 7.33101 8.326C7.15339 9.29154 7.04711 10.2688 7.01301 11.25H2.02802ZM2.02802 12.75H7.01301C7.04901 13.752 7.15601 14.738 7.33101 15.674C7.55101 16.841 7.87402 17.917 8.29002 18.837C8.70402 19.751 9.21501 20.525 9.82001 21.079C10.43 21.636 11.17 22 12 22C6.73002 22 2.41102 17.923 2.02802 12.75Z" fill="#6C737F"/>
<path d="M12 3.395C11.725 3.395 11.37 3.512 10.957 3.89C10.541 4.271 10.124 4.868 9.75602 5.681C9.39002 6.489 9.09302 7.464 8.88902 8.554C8.72902 9.412 8.62902 10.322 8.59302 11.25H15.407C15.3744 10.3453 15.2755 9.44422 15.111 8.554C14.907 7.464 14.611 6.489 14.244 5.681C13.876 4.868 13.46 4.271 13.044 3.891C12.63 3.512 12.275 3.395 12 3.395ZM8.88902 15.446C9.09302 16.536 9.39002 17.511 9.75602 18.319C10.124 19.132 10.541 19.729 10.956 20.109C11.37 20.488 11.726 20.605 12 20.605C12.275 20.605 12.63 20.488 13.043 20.11C13.46 19.729 13.876 19.132 14.244 18.319C14.61 17.511 14.907 16.536 15.111 15.446C15.272 14.588 15.372 13.678 15.407 12.75H8.59302C8.62802 13.678 8.72802 14.588 8.88902 15.446Z" fill="#6C737F"/>
<path d="M12 2C12.831 2 13.57 2.364 14.18 2.921C14.785 3.475 15.297 4.249 15.71 5.163C16.127 6.083 16.45 7.159 16.669 8.326C16.844 9.262 16.951 10.248 16.987 11.25H21.972C21.7828 8.73474 20.6501 6.38388 18.8008 4.6685C16.9516 2.95313 14.5224 1.99996 12 2ZM16.669 15.674C16.45 16.841 16.127 17.917 15.71 18.837C15.297 19.751 14.785 20.525 14.18 21.079C13.57 21.636 12.831 22 12 22C17.27 22 21.589 17.923 21.972 12.75H16.987C16.9529 13.7312 16.8466 14.7085 16.669 15.674Z" fill="#6C737F"/>
</g>
<defs>
<clipPath id="clip0_2476_1851">
<rect width="24" height="24" fill="white"/>
</clipPath>
</defs>
</svg>
