<svg width="24" height="24" viewBox="0 0 24 24" fill="none" xmlns="http://www.w3.org/2000/svg">
<g clip-path="url(#clip0_2059_19200)">
<path fill-rule="evenodd" clip-rule="evenodd" d="M12 1.25C10.7402 1.25 9.53204 1.75044 8.64124 2.64124C7.75045 3.53204 7.25 4.74022 7.25 6C7.25 7.25978 7.75045 8.46796 8.64124 9.35876C9.53204 10.2496 10.7402 10.75 12 10.75C13.2598 10.75 14.468 10.2496 15.3588 9.35876C16.2496 8.46796 16.75 7.25978 16.75 6C16.75 4.74022 16.2496 3.53204 15.3588 2.64124C14.468 1.75044 13.2598 1.25 12 1.25ZM8.75 6C8.75 5.13805 9.09241 4.3114 9.7019 3.7019C10.3114 3.09241 11.138 2.75 12 2.75C12.862 2.75 13.6886 3.09241 14.2981 3.7019C14.9076 4.3114 15.25 5.13805 15.25 6C15.25 6.86195 14.9076 7.6886 14.2981 8.2981C13.6886 8.90759 12.862 9.25 12 9.25C11.138 9.25 10.3114 8.90759 9.7019 8.2981C9.09241 7.6886 8.75 6.86195 8.75 6Z" fill="#6C737F"/>
<path d="M18.856 16.573C18.9985 16.7116 19.0801 16.9011 19.0829 17.0999C19.0857 17.2987 19.0095 17.4904 18.871 17.633L17.038 19.523C16.9647 19.5984 16.8764 19.6575 16.7788 19.6965C16.6812 19.7355 16.5765 19.7536 16.4714 19.7495C16.3664 19.7455 16.2634 19.7194 16.1691 19.673C16.0748 19.6265 15.9913 19.5608 15.924 19.48L15.09 18.48C15.027 18.4043 14.9795 18.3169 14.9502 18.2228C14.9209 18.1288 14.9105 18.0299 14.9194 17.9318C14.9284 17.8337 14.9566 17.7383 15.0024 17.6511C15.0482 17.5639 15.1108 17.4865 15.1865 17.4235C15.2622 17.3605 15.3496 17.313 15.4437 17.2837C15.5377 17.2544 15.6366 17.244 15.7347 17.2529C15.8328 17.2619 15.9282 17.2901 16.0154 17.3359C16.1026 17.3817 16.18 17.4443 16.243 17.52L16.543 17.88L17.795 16.589C17.9335 16.4464 18.1229 16.3646 18.3217 16.3616C18.5205 16.3586 18.7123 16.4347 18.855 16.573" fill="#6C737F"/>
<path fill-rule="evenodd" clip-rule="evenodd" d="M13.91 21.608C13.3 21.701 12.659 21.75 12 21.75C9.96 21.75 8.078 21.28 6.678 20.48C5.3 19.692 4.25 18.49 4.25 17C4.25 15.51 5.3 14.308 6.678 13.52C8.078 12.72 9.961 12.25 12 12.25C13.805 12.25 15.483 12.618 16.812 13.254C16.874 13.2513 16.9367 13.25 17 13.25C17.7656 13.2501 18.5198 13.4352 19.1985 13.7897C19.8771 14.1441 20.46 14.6573 20.8975 15.2856C21.335 15.9138 21.6141 16.6386 21.7112 17.398C21.8082 18.1574 21.7202 18.929 21.4547 19.6471C21.1893 20.3652 20.7541 21.0085 20.1864 21.5222C19.6187 22.0359 18.9353 22.4047 18.1943 22.5973C17.4533 22.7899 16.6768 22.8005 15.9308 22.6282C15.1848 22.456 14.4915 22.106 13.91 21.608ZM13.75 18C13.75 17.138 14.0924 16.3114 14.7019 15.7019C15.3114 15.0924 16.138 14.75 17 14.75C17.862 14.75 18.6886 15.0924 19.2981 15.7019C19.9076 16.3114 20.25 17.138 20.25 18C20.25 18.862 19.9076 19.6886 19.2981 20.2981C18.6886 20.9076 17.862 21.25 17 21.25C16.138 21.25 15.3114 20.9076 14.7019 20.2981C14.0924 19.6886 13.75 18.862 13.75 18ZM14.418 14.013C13.7527 14.4439 13.2057 15.0344 12.827 15.7308C12.4484 16.4272 12.25 17.2073 12.25 18C12.25 18.803 12.45 19.56 12.8 20.222C12.538 20.2407 12.2713 20.25 12 20.25C10.173 20.25 8.556 19.825 7.422 19.177C6.267 18.517 5.75 17.72 5.75 17C5.75 16.28 6.267 15.483 7.422 14.823C8.556 14.175 10.173 13.75 12 13.75C12.861 13.75 13.677 13.844 14.418 14.013Z" fill="#6C737F"/>
</g>
<defs>
<clipPath id="clip0_2059_19200">
<rect width="24" height="24" fill="white"/>
</clipPath>
</defs>
</svg>
