<svg width="24" height="24" viewBox="0 0 24 24" fill="none" xmlns="http://www.w3.org/2000/svg">
<path d="M11.1111 14.2222C11.1111 15.4489 13.1013 16.4445 15.5556 16.4445C18.0098 16.4445 20 15.4489 20 14.2222M4 9.77779C4 11.0045 5.99022 12 8.44444 12C9.44533 12 10.3689 11.8347 11.1111 11.5556M4 12.8889C4 14.1156 5.99022 15.1111 8.44444 15.1111C9.44533 15.1111 10.368 14.9458 11.1111 14.6667M15.5556 12.8889C13.1013 12.8889 11.1111 11.8933 11.1111 10.6667C11.1111 9.44001 13.1013 8.44446 15.5556 8.44446C18.0098 8.44446 20 9.44001 20 10.6667C20 11.8933 18.0098 12.8889 15.5556 12.8889Z" stroke="#6C737F" stroke-linecap="round" stroke-linejoin="round"/>
<path d="M4 6.22223V16C4 17.2267 5.99022 18.2222 8.44444 18.2222C9.44533 18.2222 10.368 18.0569 11.1111 17.7778M11.1111 17.7778V10.6667M11.1111 17.7778C11.1111 19.0045 13.1013 20 15.5556 20C18.0098 20 20 19.0045 20 17.7778V10.6667M12.8889 8.8889V6.22223" stroke="#6C737F" stroke-linecap="round" stroke-linejoin="round"/>
<path d="M8.44444 8.44444C5.99022 8.44444 4 7.44889 4 6.22222C4 4.99556 5.99022 4 8.44444 4C10.8987 4 12.8889 4.99556 12.8889 6.22222C12.8889 7.44889 10.8987 8.44444 8.44444 8.44444Z" stroke="#6C737F" stroke-linecap="round" stroke-linejoin="round"/>
</svg>
