<svg width="32" height="32" viewBox="0 0 32 32" fill="none" xmlns="http://www.w3.org/2000/svg">
<rect width="32" height="32" rx="5" fill="black"/>
<g clip-path="url(#clip0_2013_32)">
<path fill-rule="evenodd" clip-rule="evenodd" d="M16.0005 6C21.523 6 26 10.477 26 16.0005C26 19.7012 23.9891 22.9326 20.9997 24.6624V16.0085V16.0005C20.9997 13.2383 18.7617 11.0002 16.0005 11.0002C15.0891 11.0002 14.2357 11.2434 13.5004 11.6686V6.31514C14.2987 6.10905 15.1371 6 16.0005 6ZM11.0002 15.9915V16.0005V16.0085V16.0325C11.0173 18.7788 13.2493 20.9997 16.0005 20.9997C16.9109 20.9997 17.7643 20.7566 18.4996 20.3314V25.6849C17.7013 25.8909 16.8629 26 16.0005 26C10.477 26 6 21.523 6 16.0005C6 12.2988 8.0109 9.06738 11.0002 7.3386V15.9915Z" fill="white"/>
</g>
<defs>
<clipPath id="clip0_2013_32">
<rect width="24" height="24" fill="white" transform="translate(4 4)"/>
</clipPath>
</defs>
</svg>
